<mxfile host="65bd71144e">
    <diagram id="TogvUrFgO86cIklhGrKD" name="ページ1">
        <mxGraphModel dx="911" dy="554" grid="1" gridSize="10" guides="1" tooltips="1" connect="1" arrows="1" fold="1" page="1" pageScale="1" pageWidth="827" pageHeight="1169" math="0" shadow="0">
            <root>
                <mxCell id="0"/>
                <mxCell id="1" parent="0"/>
                <mxCell id="21" value="" style="whiteSpace=wrap;html=1;fillColor=#DEDEDE;" parent="1" vertex="1">
                    <mxGeometry x="30" y="80" width="790" height="460" as="geometry"/>
                </mxCell>
                <mxCell id="3" value="" style="whiteSpace=wrap;html=1;strokeWidth=2;fillColor=none;strokeColor=#4DA6FF;" parent="1" vertex="1">
                    <mxGeometry x="250" y="120" width="550" height="390" as="geometry"/>
                </mxCell>
                <mxCell id="20" style="edgeStyle=none;html=1;entryX=0;entryY=0.5;entryDx=0;entryDy=0;startArrow=none;startFill=0;endArrow=block;endFill=1;" parent="1" source="2" target="6" edge="1">
                    <mxGeometry relative="1" as="geometry"/>
                </mxCell>
                <mxCell id="2" value="自分" style="sketch=0;outlineConnect=0;fontColor=#232F3E;gradientColor=none;strokeColor=#232F3E;fillColor=#ffffff;dashed=0;verticalLabelPosition=bottom;verticalAlign=top;align=center;html=1;fontSize=12;fontStyle=0;aspect=fixed;shape=mxgraph.aws4.resourceIcon;resIcon=mxgraph.aws4.user;" parent="1" vertex="1">
                    <mxGeometry x="50" y="280" width="60" height="60" as="geometry"/>
                </mxCell>
                <mxCell id="4" value="docker-compose" style="text;html=1;align=center;verticalAlign=middle;resizable=0;points=[];autosize=1;strokeColor=none;fillColor=none;" parent="1" vertex="1">
                    <mxGeometry x="240" y="95" width="110" height="30" as="geometry"/>
                </mxCell>
                <mxCell id="9" value="" style="group" parent="1" vertex="1" connectable="0">
                    <mxGeometry x="280" y="260" width="150" height="100" as="geometry"/>
                </mxCell>
                <mxCell id="6" value="&lt;br&gt;&lt;br&gt;&lt;br&gt;&lt;br&gt;React container" style="whiteSpace=wrap;html=1;strokeWidth=2;rounded=1;" parent="9" vertex="1">
                    <mxGeometry width="146" height="100" as="geometry"/>
                </mxCell>
                <mxCell id="7" value="" style="shape=image;imageAspect=0;aspect=fixed;verticalLabelPosition=bottom;verticalAlign=top;rounded=1;strokeWidth=2;image=data:image/svg+xml,PHN2ZyB4bWxucz0iaHR0cDovL3d3dy53My5vcmcvMjAwMC9zdmciIGZpbGw9Im5vbmUiIHZpZXdCb3g9IjAgMCAxMjggMTI4IiBoZWlnaHQ9IjEyOCIgd2lkdGg9IjEyOCI+CjxwYXRoIGZpbGw9IiM2MURBRkIiIGQ9Ik0xMjggNjQuMDA3OEMxMjggNTUuNTI4MyAxMTcuMzgxIDQ3LjQ5MjUgMTAxLjEwMSA0Mi41MDkyQzEwNC44NTggMjUuOTE1NiAxMDMuMTg4IDEyLjcxMzggOTUuODMwNCA4LjQ4NzE2Qzk0LjEzNDUgNy40OTU3MiA5Mi4xNTE2IDcuMDI2MDkgODkuOTg2MSA3LjAyNjA5VjEyLjg0NDNDOTEuMTg2MyAxMi44NDQzIDkyLjE1MTYgMTMuMDc5MSA5Mi45NjA1IDEzLjUyMjZDOTYuNTA4OCAxNS41NTc3IDk4LjA0ODEgMjMuMzA2NiA5Ni44NDc5IDMzLjI3MzFDOTYuNTYxIDM1LjcyNTYgOTYuMDkxMyAzOC4zMDg2IDk1LjUxNzMgNDAuOTQzOEM5MC40MDM2IDM5LjY5MTQgODQuODIwMiAzOC43MjYxIDc4Ljk0OTkgMzguMDk5OUM3NS40Mjc2IDMzLjI3MzEgNzEuNzc1IDI4Ljg4OTkgNjguMDk2MiAyNS4wNTQ2Qzc2LjYwMTcgMTcuMTQ5MiA4NC41ODU0IDEyLjgxODIgOTAuMDEyMiAxMi44MTgyVjdDODIuODM3MyA3IDczLjQ0NDggMTIuMTEzNyA2My45NDc4IDIwLjk4NDVDNTQuNDUwOSAxMi4xNjU5IDQ1LjA1ODMgNy4xMDQzNiAzNy44ODM0IDcuMTA0MzZWMTIuOTIyNUM0My4yODQxIDEyLjkyMjUgNTEuMjkzOSAxNy4yMjc1IDU5Ljc5OTQgMjUuMDgwN0M1Ni4xNDY4IDI4LjkxNiA1Mi40OTQxIDMzLjI3MzEgNDkuMDI0MSAzOC4wOTk5QzQzLjEyNzYgMzguNzI2MSAzNy41NDQyIDM5LjY5MTQgMzIuNDMwNSA0MC45Njk4QzMxLjgzMDQgMzguMzYwOCAzMS4zODY5IDM1LjgzIDMxLjA3MzggMzMuNDAzNkMyOS44NDc1IDIzLjQzNyAzMS4zNjA4IDE1LjY4ODEgMzQuODgzIDEzLjYyN0MzNS42NjU3IDEzLjE1NzQgMzYuNjgzMiAxMi45NDg2IDM3Ljg4MzQgMTIuOTQ4NlY3LjEzMDQ1QzM1LjY5MTggNy4xMzA0NSAzMy43MDg5IDcuNjAwMDggMzEuOTg3IDguNTkxNTJDMjQuNjU1NSAxMi44MTgyIDIzLjAxMTggMjUuOTkzOSAyNi43OTQ5IDQyLjUzNTNDMTAuNTY2NyA0Ny41NDQ3IDAgNTUuNTU0NCAwIDY0LjAwNzhDMCA3Mi40ODcyIDEwLjYxODggODAuNTIzIDI2Ljg5OTMgODUuNTA2M0MyMy4xNDIzIDEwMi4xIDI0LjgxMjEgMTE1LjMwMiAzMi4xNjk2IDExOS41MjhDMzMuODY1NSAxMjAuNTIgMzUuODQ4NCAxMjAuOTg5IDM4LjA0IDEyMC45ODlDNDUuMjE0OCAxMjAuOTg5IDU0LjYwNzQgMTE1Ljg3NiA2NC4xMDQ0IDEwNy4wMDVDNzMuNjAxMyAxMTUuODI0IDgyLjk5MzkgMTIwLjg4NSA5MC4xNjg4IDEyMC44ODVDOTIuMzYwNCAxMjAuODg1IDk0LjM0MzMgMTIwLjQxNSA5Ni4wNjUyIDExOS40MjRDMTAzLjM5NyAxMTUuMTk3IDEwNS4wNCAxMDIuMDIyIDEwMS4yNTcgODUuNDgwMkMxMTcuNDMzIDgwLjQ5NyAxMjggNzIuNDYxMSAxMjggNjQuMDA3OFpNOTQuMDMwMiA0Ni42MDU0QzkzLjA2NDggNDkuOTcxMSA5MS44NjQ2IDUzLjQ0MTEgOTAuNTA3OSA1Ni45MTExQzg5LjQzODIgNTQuODIzOSA4OC4zMTYzIDUyLjczNjcgODcuMDkwMSA1MC42NDk0Qzg1Ljg4OTkgNDguNTYyMiA4NC42MTE1IDQ2LjUyNzEgODMuMzMzMSA0NC41NDQyQzg3LjAzNzkgNDUuMDkyMSA5MC42MTIzIDQ1Ljc3MDUgOTQuMDMwMiA0Ni42MDU0Wk04Mi4wODA3IDc0LjM5MThDODAuMDQ1NyA3Ny45MTQgNzcuOTU4NCA4MS4yNTM2IDc1Ljc5MjkgODQuMzU4NEM3MS45MDU0IDg0LjY5NzUgNjcuOTY1OCA4NC44ODAyIDY0IDg0Ljg4MDJDNjAuMDYwMyA4NC44ODAyIDU2LjEyMDcgODQuNjk3NSA1Mi4yNTkzIDg0LjM4NDVDNTAuMDkzOCA4MS4yNzk3IDQ3Ljk4MDQgNzcuOTY2MiA0NS45NDU0IDc0LjQ3MDFDNDMuOTYyNSA3MS4wNTIyIDQyLjE2MjMgNjcuNTgyMiA0MC41MTg2IDY0LjA4NkM0Mi4xMzYyIDYwLjU4OTkgNDMuOTYyNSA1Ny4wOTM4IDQ1LjkxOTMgNTMuNjc1OUM0Ny45NTQzIDUwLjE1MzcgNTAuMDQxNiA0Ni44MTQxIDUyLjIwNzEgNDMuNzA5M0M1Ni4wOTQ2IDQzLjM3MDIgNjAuMDM0MiA0My4xODc1IDY0IDQzLjE4NzVDNjcuOTM5NyA0My4xODc1IDcxLjg3OTMgNDMuMzcwMiA3NS43NDA3IDQzLjY4MzNDNzcuOTA2MiA0Ni43ODggODAuMDE5NiA1MC4xMDE1IDgyLjA1NDYgNTMuNTk3NkM4NC4wMzc1IDU3LjAxNTUgODUuODM3OCA2MC40ODU1IDg3LjQ4MTUgNjMuOTgxN0M4NS44Mzc4IDY3LjQ3NzggODQuMDM3NSA3MC45NzM5IDgyLjA4MDcgNzQuMzkxOFpNOTAuNTA3OSA3MUM5MS45MTY4IDc0LjQ5NjEgOTMuMTE3IDc3Ljk5MjMgOTQuMTA4NCA4MS4zODRDOTAuNjkwNiA4Mi4yMTg5IDg3LjA5MDEgODIuOTIzNCA4My4zNTkyIDgzLjQ3MTNDODQuNjM3NiA4MS40NjIzIDg1LjkxNiA3OS40MDEyIDg3LjExNjIgNzcuMjg3OEM4OC4zMTY0IDc1LjIwMDYgODkuNDM4MiA3My4wODczIDkwLjUwNzkgNzFaTTY0LjA1MjIgOTguODM4NkM2MS42MjU4IDk2LjMzMzkgNTkuMTk5MyA5My41NDIyIDU2Ljc5OSA5MC40ODk2QzU5LjE0NzIgOTAuNTk0IDYxLjU0NzUgOTAuNjcyMyA2My45NzM5IDkwLjY3MjNDNjYuNDI2NCA5MC42NzIzIDY4Ljg1MjggOTAuNjIwMSA3MS4yMjcxIDkwLjQ4OTZDNjguODc4OSA5My41NDIyIDY2LjQ1MjUgOTYuMzMzOSA2NC4wNTIyIDk4LjgzODZaTTQ0LjY0MDggODMuNDcxM0M0MC45MzYgODIuOTIzNCAzNy4zNjE2IDgyLjI0NSAzMy45NDM3IDgxLjQxMDFDMzQuOTA5MSA3OC4wNDQ1IDM2LjEwOTMgNzQuNTc0NCAzNy40NjYgNzEuMTA0NEMzOC41MzU3IDczLjE5MTYgMzkuNjU3NiA3NS4yNzg5IDQwLjg4MzggNzcuMzY2MUM0Mi4xMTAxIDc5LjQ1MzMgNDMuMzYyNCA4MS40ODg0IDQ0LjY0MDggODMuNDcxM1pNNjMuOTIxNyAyOS4xNzY5QzY2LjM0ODIgMzEuNjgxNiA2OC43NzQ2IDM0LjQ3MzMgNzEuMTc0OSAzNy41MjU5QzY4LjgyNjcgMzcuNDIxNSA2Ni40MjY0IDM3LjM0MzMgNjQgMzcuMzQzM0M2MS41NDc1IDM3LjM0MzMgNTkuMTIxMSAzNy4zOTU0IDU2Ljc0NjggMzcuNTI1OUM1OS4wOTUgMzQuNDczMyA2MS41MjE0IDMxLjY4MTYgNjMuOTIxNyAyOS4xNzY5Wk00NC42MTQ4IDQ0LjU0NDJDNDMuMzM2MyA0Ni41NTMyIDQyLjA1NzkgNDguNjE0NCA0MC44NTc3IDUwLjcyNzdDMzkuNjU3NiA1Mi44MTQ5IDM4LjUzNTcgNTQuOTAyMiAzNy40NjYgNTYuOTg5NEMzNi4wNTcxIDUzLjQ5MzMgMzQuODU2OSA0OS45OTcyIDMzLjg2NTUgNDYuNjA1NEMzNy4yODMzIDQ1Ljc5NjYgNDAuODgzOCA0NS4wOTIxIDQ0LjYxNDggNDQuNTQ0MlpNMjEuMDAyOSA3Ny4yMDk2QzExLjc2NjggNzMuMjY5OSA1Ljc5MjA5IDY4LjEwNCA1Ljc5MjA5IDY0LjAwNzhDNS43OTIwOSA1OS45MTE2IDExLjc2NjggNTQuNzE5NSAyMS4wMDI5IDUwLjgwNkMyMy4yNDY2IDQ5Ljg0MDYgMjUuNjk5MSA0OC45Nzk2IDI4LjIyOTkgNDguMTcwOEMyOS43MTcxIDUzLjI4NDYgMzEuNjczOSA1OC42MDcgMzQuMTAwMyA2NC4wNTk5QzMxLjcgNjkuNDg2OCAyOS43NjkzIDc0Ljc4MzEgMjguMzA4MiA3OS44NzA4QzI1LjcyNTIgNzkuMDYyIDIzLjI3MjcgNzguMTc0OSAyMS4wMDI5IDc3LjIwOTZaTTM1LjAzOTUgMTE0LjQ5M0MzMS40OTEyIDExMi40NTggMjkuOTUxOSAxMDQuNzA5IDMxLjE1MjEgOTQuNzQyNEMzMS40MzkxIDkyLjI4OTkgMzEuOTA4NyA4OS43MDY5IDMyLjQ4MjcgODcuMDcxOEMzNy41OTY0IDg4LjMyNDEgNDMuMTc5OCA4OS4yODk1IDQ5LjA1MDEgODkuOTE1NkM1Mi41NzI0IDk0Ljc0MjQgNTYuMjI1IDk5LjEyNTYgNTkuOTAzOCAxMDIuOTYxQzUxLjM5ODMgMTEwLjg2NiA0My40MTQ2IDExNS4xOTcgMzcuOTg3OCAxMTUuMTk3QzM2LjgxMzcgMTE1LjE3MSAzNS44MjIzIDExNC45MzYgMzUuMDM5NSAxMTQuNDkzWk05Ni45MjYyIDk0LjYxMTlDOTguMTUyNSAxMDQuNTc4IDk2LjYzOTIgMTEyLjMyNyA5My4xMTcgMTE0LjM4OUM5Mi4zMzQzIDExNC44NTggOTEuMzE2NyAxMTUuMDY3IDkwLjExNjYgMTE1LjA2N0M4NC43MTU5IDExNS4wNjcgNzYuNzA2MSAxMTAuNzYyIDY4LjIwMDYgMTAyLjkwOUM3MS44NTMyIDk5LjA3MzQgNzUuNTA1OSA5NC43MTYzIDc4Ljk3NiA4OS44ODk1Qzg0Ljg3MjQgODkuMjYzNCA5MC40NTU4IDg4LjI5OCA5NS41Njk1IDg3LjAxOTZDOTYuMTY5NiA4OS42NTQ3IDk2LjYzOTIgOTIuMTg1NSA5Ni45MjYyIDk0LjYxMTlaTTEwNi45NzEgNzcuMjA5NkMxMDQuNzI3IDc4LjE3NDkgMTAyLjI3NSA3OS4wMzU5IDk5Ljc0NCA3OS44NDQ3Qzk4LjI1NjggNzQuNzMxIDk2LjMgNjkuNDA4NSA5My44NzM2IDYzLjk1NTZDOTYuMjczOSA1OC41Mjg4IDk4LjIwNDcgNTMuMjMyNCA5OS42NjU3IDQ4LjE0NDdDMTAyLjI0OSA0OC45NTM1IDEwNC43MDEgNDkuODQwNiAxMDYuOTk3IDUwLjgwNkMxMTYuMjMzIDU0Ljc0NTYgMTIyLjIwOCA1OS45MTE2IDEyMi4yMDggNjQuMDA3OEMxMjIuMTgyIDY4LjEwNCAxMTYuMjA3IDczLjI5NiAxMDYuOTcxIDc3LjIwOTZaIi8+CjxwYXRoIGZpbGw9IiM2MURBRkIiIGQ9Ik02My45NzQgNzUuOTMxMkM3MC41NTkgNzUuOTMxMiA3NS44OTczIDcwLjU5MjkgNzUuODk3MyA2NC4wMDc4Qzc1Ljg5NzMgNTcuNDIyNyA3MC41NTkgNTIuMDg0NCA2My45NzQgNTIuMDg0NEM1Ny4zODg5IDUyLjA4NDQgNTIuMDUwNiA1Ny40MjI3IDUyLjA1MDYgNjQuMDA3OEM1Mi4wNTA2IDcwLjU5MjkgNTcuMzg4OSA3NS45MzEyIDYzLjk3NCA3NS45MzEyWiIvPgo8L3N2Zz4=;" parent="9" vertex="1">
                    <mxGeometry x="6" y="6" width="50" height="50" as="geometry"/>
                </mxCell>
                <mxCell id="12" value="" style="group" parent="1" vertex="1" connectable="0">
                    <mxGeometry x="580" y="160" width="150" height="100" as="geometry"/>
                </mxCell>
                <mxCell id="11" value="&lt;br&gt;&lt;br&gt;&lt;br&gt;&lt;br&gt;FastAPI container" style="whiteSpace=wrap;html=1;rounded=1;strokeWidth=2;" parent="12" vertex="1">
                    <mxGeometry width="150" height="100" as="geometry"/>
                </mxCell>
                <mxCell id="10" value="" style="shape=image;imageAspect=0;aspect=fixed;verticalLabelPosition=bottom;verticalAlign=top;rounded=1;strokeWidth=2;image=data:image/svg+xml,PHN2ZyB4bWxucz0iaHR0cDovL3d3dy53My5vcmcvMjAwMC9zdmciIHZpZXdCb3g9IjAgMCAxNTQgMTU0IiB3aWR0aD0iMjUwMCIgaGVpZ2h0PSIyNTAwIiBmaWxsPSJub25lIj48Y2lyY2xlIHI9Ijc3IiBmaWxsPSIjMDU5OThiIiBjeT0iNzciIGN4PSI3NyIvPjxwYXRoIGZpbGw9IiNmZmYiIGQ9Ik04MS4zNzUgMTguNjY3bC0zOC43NSA3MEg3Ny41bC0zLjg3NSA0Ni42NjYgMzguNzUtNzBINzcuNXoiLz48L3N2Zz4=;" parent="12" vertex="1">
                    <mxGeometry x="7" y="7" width="50" height="50" as="geometry"/>
                </mxCell>
                <mxCell id="15" value="" style="group" parent="1" vertex="1" connectable="0">
                    <mxGeometry x="580" y="350" width="150" height="99" as="geometry"/>
                </mxCell>
                <mxCell id="13" value="&lt;br&gt;&lt;br&gt;&lt;br&gt;&lt;br&gt;PostgreSQL container" style="whiteSpace=wrap;html=1;rounded=1;strokeWidth=2;" parent="15" vertex="1">
                    <mxGeometry width="150" height="99" as="geometry"/>
                </mxCell>
                <mxCell id="14" value="" style="shape=image;imageAspect=0;aspect=fixed;verticalLabelPosition=bottom;verticalAlign=top;rounded=1;strokeWidth=2;image=data:image/png,iVBORw0KGgoAAAANSUhEUgAABDgAAARaCAYAAACpLMLeAAAABGdBTUEAALGPC/xhBQAAACBjSFJNAAB6JgAAgIQAAPoAAACA6AAAdTAAAOpgAAA6mAAAF3CculE8AAAABmJLR0QA/wD/AP+gvaeTAACAAElEQVR42uzdd3hc1bX38e+Meu/Vkqxiy7Lce8E2xsYGUwOhJYQEAiEESEISwpub3LSbSnpISAgQCKF34w4YcO+9yF2SZatasnqXZt4/RjbNNpItaZ+Z+X2eZx7Zcpl11p4zOrPO3mvbEBERERERdxAARANRXV+jgWAgHAgEgoAwwA+I7Poa2vV3AoCIru+Fd/1/p77fXb5d/78TqOn6Xh3QCTQCbUAr0NT1vbquv1PT9W/qgY6uv3sSqD7LV4eGWkTOh00pEBERERHpd/5AIjAASADi+LBo8dHHR4sZIV6Sm1o+XfT46K8rgQqgGCjr+rWKIiKiAoeIiIiISC8K4MPCxSe/JgApfFjQkN7RgavIUYKr4FEMHAOOAoVAUdf3OpUqEc+mAoeIiIiISPf5A2lAOpDR9TX9I79PUoosqQNXkeNo1yMfOAQc7npUKUUi7k8FDhERERGRj4sGsoEcXEWLU4WMDCAZsCtFHuckHxY7DgP7gX1dX1uUHhH3oAKHiIiIiHgjX1wzMTK7HsOA3I/8XuSUUmAvkPeRr9txNUsVEQtRgUNEREREPJkfMAQYAYzs+vVQXEUMf6VHzlMncBDY0fXYDuzE1QtERAxRgUNEREREPEUyHxYyRnQ9clEhQ/pPCR8WPbYAm3D1/hCRfqACh4iIiIi4GzuumRjjgbG4ChqjgBilRizoOK5Cx4aur1vQ8haRPqECh4iIiIhY/Xp1MDAOV0FjPDAGCFNqxE114urlsQFYA6zGtZ2tiPTCDwwREREREatIAqYAk3AVM8YBEUqLeLhjwCpcBY9VuHZwcSotIj2jAoeIiIhYWdR5/rtOoE7pszxfYDSugsZkYCqu7VhFvF0lsBb4AFiOa8aHiHwGFThERESkt/kDsbj6IcR2PeI+8vtgXHfkA7p+HYZrp4vIrn8bAoR2fa83NADtfLzo0Qi0AQ6gFmgBmoCarr/f1PW1puvXTV1/r77r1ye7Hs0a7h6JBKbjKmRMxTVDI1hpEflMpbgKHe92fS1VSkQ+TQUOERER6S5/IBVI6/qa3vXrJD5eyPCm3gjNfFjsONujCtfWkRW4dlNo8KL8xOIqaFzc9RiJq0GoiFyYvXxY7PgAV+FVxOupwCEiIiKn+AAZQA6QyYeFjDRgIJCoa4de0YTr7msZUI5rW8mKrq+nfn+863vuJgaYBcwAZgLD9JoR6XMtuIoci4DFwFGlRLyVfuCImBeJa4159EceUbimb0fiumMaimsKb8BZvhfe9cHkk+d35Gc8dx2uKdunnJqq/dFft+C6Q1mPa4p3Da5p3Y18OI27puvv1nQ9qj/ya4eGWMRygnFtsZkDDO36mgNkd72niDU0A0Vdj2NdX49+4vethmP0xdU747Kuxzg0Q0PEtD24Ch2LgXWfuNYT8WgqcIj0Ph8gHkj+yCMJGMCH07ijP1LU8PQLwTo+LH5U4Lo7eQJX86zyru+d+n0Zagoo0pvsuLbXPLWt5jBchYyBugbwGGVAAXAIOPyRr4e73nf7QgYwF1dBYxba4UTEyk4CS4E3ur6qb5B4NF3ciPRcIJCFa/r2qa/puIoXyUACn55NId3Xgmt69qkp2qW47lKW4lq7Xtz1Z61KlcinDOLDbTXHA2NxzfAS71TJh8WOQ12Pg7i2n+zJev0Q4BJcBY25uGb6iIj7acRV5Hgd1+yOeqVEPI0KHCJnFoFr2vYnCxlZuIoYYl45UIhrunbhJx4FuAolIp4sDlfzxol8WNSIVFqkGxxd75N7gTxc09nzcBU+Tr135gJX4ypqXIRraaSIeI4W4B1cxY6FuJYXi7g9FTjE2wXiKmQM73qMwDWFO02pcXtluIod+Xx45/LU1O2TSo+4oURcu1Ccat44VD/HpZd14ip8ONAsDRFv0o6r2PEC8BaumR4ibkkXRuJNUoEJuLaoG4armDEILSfxRlV8esr2/q6HZn6IVQzgw601Z+DqnSEiItKXGoD5uIod7wIdSom4ExU4xFNF4Jq2PRFXUWMirh4ZIudyatr2PlzTtffjmsK9HzU/lb4XjKth45XApbgKsCIiIqZUAC/jKnZsUDrEHajAIZ7AHxjNxwsaQ/T6ll52HNgN7PjI4zDaBlcuTAZwBa6ixiW4ls2JiIhYzRHgP12P40qHWJU+AIo78sFV0LgUmIZr6rZ2CRAT2nAVObZ+5LEdrV2Vz37/uhq4CldjUBEREXfhAN4HHsfVr6NNKRErUYFD3OUDwRhcdzcvwbVrQKjSIhbViauvx04+nOmxE9c2t+KdAoF5wE1dXyOUEhER8QDlwH+Bp3At5xUxTgUOsaqhuLamm4WroBGplIgHXATsxDXDYxOwEShWWjyWPzAXuBm4Bs0yExERz7YGeBJXzw41bBdjVOAQq/DDtdTkKlxTt7OUEvECx3EVOtZ3fd0GNCktbssXmI2rqPE5IEopERERL1MJ/Bt4DChUOqS/qcAhJsUAl+MqaFyOpm2LdAC7cHUq39j1OAg4lRpL/xy9GPgCcD0Qq5SIiIjQCSwCHgWW61pG+vPCTKQ/5fBhc72LcPXXEJGzO8mHxY5Tj2qlxbhk4CvAV9F2riIiIudyAFeh4xmgTumQvqQCh/SHgbjubn4RGKF0iFwQZ9eFwmpgZddD27X1D19cW7rehatZqK9SIiJW5ePjQ3i4q/1PSEgI/v7+Z/ye3W4nIsI1iTY4OBi73U5DQ8NZ/9/Gxkba2j69cUZnZyd1dXXU19fT1NREY2MjNTU1OJ26cS+n1ePaZvbPQIHSIX1BBQ7pK1G4ZmrchmtNul5rIn2nFFdzr+XAWmCvUtKrBgO3AncAaUqHiPSHmJgYEhISiIiI+NgjKirqU9+LiIggMjLyY7+3iubmZpqamqitraWhoYGmpiYaGhqora2lqamJpqYmampqqK2t5cSJE1RVVVFZWUlVVdXpR0dHh14QnsUBLAF+hWtZrkiv0YdO6U2hwLW4ZmrMwdU4VET6XxEfzu5YCRxWSnrMF/g88A1cDZD181JELlhcXBzx8fHExcWRnJxMXFwcCQkJJCUlERcXR2JiIomJicTFxeHv76+EdTl58iRlZWWUlpZSUlJCWVkZxcXFlJWVUVJSQklJCceOHTvjzBKxvA+A3wPLUJ8O6QW6YJMLZcfVIPRLuIobwUqJiOWUACuAVV2PfUrJWUUBXwPuB1KVDhHproCAANLS0hg4cCBpaWmkpaWRkZFx+tepqan4+eneT19xOp2UlpZSWFhIUVERRUVFHD16lKKiIgoKCjhy5AgtLdq91ML2AH8AXgRUqZLzpgKHnK8kXM31voarx4aIuI8yXMtZ3u16lColZAPfxtU4NETpEJFPXTTbbKSmpjJ48GCys7PJyMg4XcwYOHAgSUlJSpKFORwOjh07xuHDhzl06BCHDh3i8OHDHDx4kPz8fM3+sI5iXDM6HgealQ7p8Xu1UiA9fL3MBu4GPoeWoIh4inxcBY/lwNt4V4fzacC3cG3xql2dRISoqCgyMzPJzMxk2LBh5ObmkpmZyZAhQwgNDVWCPFBHRwdFRUXk5eWxd+/ej31tbtZnbENOAH8E/gY0KR3Skw+sIp8lDrgdV2FD2yGKeLZWXI1KT83u2I6rGZgn8cO1rO47aGcnEa+VnJzM8OHDGTly5OlCRnZ2NpGRkUqOANDe3s6hQ4fYs2cP27ZtY/v27Wzfvp0TJ04oOf2nAtfSlX8AjUqHfBYVOORcZgD34LqzGaB0iHilSuA9Pix4FLnxsfjjKtb+D5CuoRXxDhEREQwfPvxjxYwRI0YQHR2t5Mh5OXbs2Olix/bt29m6dSvHj2vH9j52AvgT8Ciu7WZFzkgFDvkkH+AG4P8BY5QOEfmEPcDirsc6oNMNYg4A7ux6X9M2ryIeLDk5mXHjxjF27FjGjRvHqFGjSEvTaS99r7i4mA0bNrB+/Xo2btzI1q1btbylb1ThWrryCJrRIWegAoec4g/cAvwQGKJ0iEg3nMQ1u2M5sABX81Krva/dDvwYSNFwiXiWlJQUxo0b97GCRmJiohIjltDe3s6uXbvYsGEDGzZsYOXKlRw7dkyJ6T2VuJau/AXX8loRQAUOgTBcu6E8BCQrHSJynjqBHcAiYCGwDXP72Qfg2g3lJ8AADY2I+wsNDWXixIlMnTqVyZMnM2HCBOLj45UYcSv5+fmsWrWKFStWsGrVKgoKCpSUC3cU+DXwJJ7XM0zOgwoc3isZeAD4OhCudIhILysEluAqdqwAWvrhOX1xLUX5Ka6trEXETQ0ePJgpU6YwefJkpk6dyvDhw/Hx0UZH4lmKiopYuXIlK1asYPny5RQVFSkp528brh5b7ygV3k0FDi+8ZsA1W+M21DhURPpHPbAUeBNX0aMvtqG9FvgNMFTptj5fX1/CwsIICQkhMDCQiIgIgoODCQwMJDIykqCgIAIDA4mKijqv/7+lpYXm5mba2tpobGyko6OD+vp6HA4HtbW1AFRXV9Pe3k5NTQ319epXZ/r1MGbMGGbMmMGMGTOYMmUKcXFxSox4nf379/POO+/wzjvvsGLFChob1WLiPLyPq9CxSanwTipweI8BuO5q3oHrLqeIiAmtXRcfb+Lq21F+gf/fZOB3wHSl1pywsDASEhKIj48nNjaW+Ph4EhISiIuLIy4u7vTvY2NjiYuLw9fXWj+GOjs7qampoaamhurq6o99/eijoqKCsrIyysrKKCkpoampSYN/Hvz9/Zk4ceLpgsZFF11EaGioEiPyEW1tbaxdu/Z0wWP79u04nU4lpnucwCu4bupqWoyXUYHD80V3ndzfAoKUDu8SGRmJzXb207y5uZmWlhYlSkxxANtx9e14ETjQg387EPgF8CX9LOt7oaGhZGRkkJ6eTmZmJunp6WRkZJz+Xni4d650bGhooLi4mIqKCkpKSk4XP0pLSykuLqawsJCioiLa2tq8+vXj4+PD+PHjufTSS5k9ezaTJ08mKEiXJCI9UVxczKJFi1iwYAHvv/++rt+6pxnXbiu/QlvLeg1dFHquEODbwPeBSKXDuoKCgoiOjv7YIyYm5vSvQ0NDCQwMJDw8/KzTuU/9P4GBgRccz6kp3aeKHw0NDaencXd2dlJbW0t7ezt1dXXU1tZSXV19+teffFRXV2vqt/TETlwzO14B9p3l78Thah76dcBPKes9vr6+DBo0iBEjRjBs2DCGDh16uogRGxurBJ2nzs7O08WOgoKCjz0KCwspLi7G4fC8vniZmZlceumlpx/nu9xIRM7wqb25mffee4+FCxeycOFCSktLlZRzO45rq/gXMdcAXVTgkPPkh2sZyk/RrihGxcfHk5SUREpKCsnJyQwYMIABAwac/t6pIkZwcLBH56G1tZUTJ05QWVlJeXk5lZWVpx8VFRVUVFRQXl7OsWPHKC8vp729XS8eAcgDXgVeAvYDdlyzNf4ExCg9FyY9PZ1hw4YxfPjwjxU0AgLUmqm/tbW1UVhYSF5eHvv37ycvL499+/axf/9+Ghoa3OY4goODmT17NldddRWXX345aWlpGlyRftDZ2cmGDRt4/fXXee2117QV7bltxrXJwjqlQgUOsT47cDOuKdtZSkffi4yMJCsri0GDBpGVlXX6MXDgQJKSkvRB4Tw4nU7Ky8spKyujuLj49DTvkpISjh07xtGjRyksLNS6d++zE9cdl9FKRc8NGDCAyZMnM2XKFCZNmsTIkSO9dkmJuzl69Ojposf+/fvZt28fu3fvpqamxhLxxcfHc/nll3PVVVcxb9489dEQsYC8vDxeffVVnn32WY4cOaKEfJoDeBb4IVCidHgeFTg8wzRc68vGKBW9y8/PjyFDhjB8+HByc3M/VsyIidFNZFNOnDhBYWEhR48ePf04Nf37yJEjNDc3K0nite9ZI0eOZNq0aYwbN45x48aRm5urxHiY0tJStm7devqxZcuWfpmibrfbGTNmDJdeeilXX301U6dOPWefJxEx61Sx47///S/5+flKyMfV41ry+negQ+nwHPqp5N6icS1FuR/XDA65AMnJyeTm5jJs2LDTX8eOHatGaG6ourqa/Pz804+8vDz27t3L4cOHT28RKeIJwsLCmDlzJrNnz2bKlCmMGTMGPz+1JvFGJSUlbNu2je3bt7Nt2za2bdtGUdGFbx7g7+/PZZddxvXXX88VV1xBfHy8ki3iZhwOB6tXr+aZZ57h9ddfp66uTkn50E7gHmCDUuEZVOBwT6fWov8RUOe385CWlsakSZOYNGkSEydOZOTIkURERCgxXqCsrIy8vDwOHDhwetr3/v37OX78uJIjlufj48Po0aNPN26cMWMG/v7+Soyc9f1uy5YtrFmzhrVr17J582ZaW1u79TqbNWsWt9xyC9ddd50ahIp4kObmZt58802effZZ3n33XTo7O5UU1zLY54DvAFVKh3tTgcP9TAT+AYxTKronPDyc8ePHM3nyZCZOnMikSZNITExUYuRj6urqThc99uzZw44dO9i5cycnTpxQcsSoj+5GMWfOnNM7J4n0VHt7O7t27WLt2rWsWbOGFStWfOw9burUqdx6663ccMMNmqkh4gVKS0t5/vnn+e9//8vu3buVECgDvotrtxVxUypwuI8o4GfAfYCP0nF28fHxXHLJJVxyySVMmzaNoUOHYrdrBY+c/w//nTt3nn7s2rWLAwcO0NGh5ZrSN3x8fJg+fTrXXXcdn/vc57QbhfQZp9PJgQMHKC0tJT09nYyMDCVFxEtt3bqVf/3rX7z44otutYNTH1kBfAPXLm7iZlTgcI8xugN4GC1HOaPQ0FAmT558+g7nmDFjVNCQPtXe3s6hQ4fYunUre/fuJS8vj40bN1JRUaHkyHkJDAxk2rRpXH311dx0002aZSYiIkbU19fzwgsv8K9//Yvt27d7cypagP8Dfo+akLrdh2exriHAU8BUpeJDAQEBzJgxg9mzZzNr1izGjh2Lj48mtYh5R48eZdeuXezcuZPNmzezceNGysvLlRg5o/DwcK644gquu+46rrjiCm2xKSIilrJ582Yef/xxXnzxRRobG701DVtw3Wzeo1eEe1CBw7rj8jXgT0CI0gHR0dHMnj2bq6++mmuuuUYNQcVtfHQ7xzVr1rBu3TqampqUGC/l5+fHvHnz+PKXv8xVV11FQECAkiIiIpZWV1fHs88+yyOPPMLBgwe9MQXtXZ/LfgK06RVh/Q/SYi1puGZtzPb2RGRmZnL11Vdz1VVXcfHFF2vrQ/EIHR0dHDx48GNFj+3bt+NwOJQcDzZs2DBuu+02br/9dhISEpQQERFxOw6Hg6VLl/LXv/6V5cuX43Q6vS0FW3HN5lBHVgtTgcNabgQeA6K9NQGTJ0/m85//PNdeey2DBw/WK0K8Qm1t7eklLRs3bmTTpk1a2uIBBgwYwJe+9CW+/OUvk5ubq4SIiIjHOHjwIP/4xz944oknvG1mqmZzWJwKHNYQD/wL+Jw3Hnx6ejo333wzX/3qV8nOztarQQTIz88/vZXj2rVr2bt3r5LiBnx9fbnuuuv42te+xuzZs9XwWEREPFplZSWPP/44jz76KCUlJd506NuA29FsDstRgcO863DN2vCqDeeTk5O58cYbufHGG5k6dSo2m16KIudSWlp6utixZs0atm3b5o1TQy0rPj6eO+64g3vvvVfbuoqIiNdpbW3l2Wef5eGHH+bw4cNec9jA/wB/AXRRZhH6VGlOOK5th+72mgMOD+fzn/88X/ziF7nkkku084nIBSgvL2f16tWsWrWKVatWsXv3bvXxMGDcuHHcfffd3HbbbQQFBSkhIiLi1RwOB0uWLOHnP/85W7Zs8ZbDfg/4ClCsV4B5KnCYMR54DRjoDQc7duxY7rnnHr7whS9oG0SRPlJdXc3atWtZuXIl77//Pjt27FDBo48EBARw8803c//99zNhwgQlRETcTlNLGx0OJw6Hg8YWVxuB5tYO2js7z/j3g/z98PM9+5K7QH8//Hx9CAsKQJNyBcDpdLJkyRJ+85vfsHbtWm845BPAXcACjb5Zegvqf3cDjwAevTdgQEAA11xzDXfffTeXXnqpRl2kn1VVVfH++++zfPly3n33XQoKCpSUCxQZGcl9993Ht771LeLj45UQEek3Dc1t1DY2U9/USkNzGw3Np752/brlw+/VNbWc/n5np5PGljYcDgcdnQ6aWtv7/hrQz5dAf19CgwIIDvAjKMCPwABfwoICCPT36/ozf4ID/An09yUiJJDI0CAiQgOJCAkkKjSIsGBtoe1JVq5cya9//WveeecdTz9UJ67WA98DmjXyKnB4ukDgb7gqex4rOzubr371q9x1113ExMRo1EUsIj8/n+XLl7N8+XLee+89Tp48qaR0U1xcHPfddx/f/va3iYyMVEJEpFc0trRxoqaR6oZmqmobqaprorqhmcraRk7WNVFd30xFTSPVDU20tXd6VW587HYiQgOJDgsiPiqUmLBg4iJDiQl3fY0NDyYhOpS4iFDsdn2ccRdr167lf//3f1mxYoWnH+p+4IvAdo16/9M7Qv/IBF4HRnviwdntdq6//nruu+8+Lr74YjUMFbG4zs5Otm7denp2x/r162ltbVViPiE1NZUHH3yQu+66i+DgYCVERLr/PutwUFHTSNnJekqr6rq+1lN20vUoqaqjtb1DibpAPnY7CVGhJEaHkRgdRnJsOIlRrq+p8ZEkRIVi13Wp5bz33nv8+Mc/Zv369Z58mK3AD4E/owak/UpnfN+7CvgvEOVpBxYQEMCXv/xlvv/97zN48GCNtIibamxsZNWqVSxdupQlS5Zw5MgRr85HRkYGDzzwAHfffTeBgYF6gYjIGdU3tXKsooajFTUUlVdTXFlHSVcx40RNI53qg2Scv58PqXGRpMVHkhofSWp8BAPjo8hMjiYyVI2hTVu8eDE//vGP2b7doyc6LMTVgLRaI94/VODoOz7Az3FV7jwqz6Ghodx55508+OCDpKSkaKRFPMyp5SyLFi3inXfe8ZrZHZmZmfzf//0ft9xyi3Z5EhEA2to7KaqooaiimqLymq5f13C0vJrqei2xd2fRYUFkJseQmRRNVnIMGV1fI0JU2O5PTqeTN954g5/+9Kfs3bvXUw+zALgR2KoR73sqcPSNGOAFYK4nHdSpdejf/OY3iY6O1iiLeIGmpibef/99Fi5cyJIlSzh+/LjnvWHHxPD973+fBx54gIAANbYT8UYdnQ6Kyqs5XFLF4eIqjnR9La2qw+HU7HJvkhAVxpDUOHLS4hiS6nokRocpMX2ss7OTp59+mp/85CeUlpZ64iG2Av8P+KtGu2+pwNH7xgLzgVRPOaD09HS+//3vc8cddxAUpOl8It7K6XSybds2lixZwuLFi9m8ebNbb0UbGhrK9773Pb73ve8RFqaLVxFvUXqynkPHK8kvqeJQcSX5JScpLK+mvaNTyZEziggJZEhaHMMGJjA8I5ERGYlEh6s3U19oaGjg97//PX/84x9pbGz0xEN8Hvg60KjR7hsqcPSuOcBrQLgnHExsbCwPPvig7mqKyBlVVlaydOnS07M73OVCxM/PjzvuuIOf//znJCYmaiBFPPl9qraRfUUV7Dtawf6iCvYUlnOyrkmJkQsWFxHC0IHxjMpKZvSgZIamxePvp+WNvaWkpISf//zn/Pvf/6az0+OKj/txLVnZo5HufSpw9J47gH8Bfu5+ICEhIdx///388Ic/JDw8XCMrIp/p1FKWV199lQULFlBTU2PJOG+++WZ+9atfkZWVpUET8dT3o5Y23t9+hKeWbaaovEYJkX4R4OfLiMxExg4ewNjBAxiRmUiAn68Sc4F27tzJgw8+yPLlyz3t0BqAu4EXNcq9SwWO3snhL4AfufuB6K6miPSGzs5ONmzYwKuvvsprr71GcXGx8ZiGDBnCI488wty5czVAIl6iraOT5VsP8d93tnK4uEoJkX7l7+tDbnoC47JdBY/Rg5JV8LgAS5Ys4YEHHuDQoUOedmh/AR4EtEauFz+cywW8dwFPAre580HY7XZuvfVW/u///o/09HSNqoj0GqfTyaZNm3jjjTd49dVXKSgo6NfnDw8P52c/+xnf/OY38fXVhaWId74PwYZ9R3l62Ra2HSxWQsSIAD9fRg9KZnJuGpNz0xg8IFZJ6aHW1lb+8Ic/8Otf/5qmJo9aavYOcAvaSrZXqMBx/sKAV4DL3fkg5syZwx//+EdGjBihERWRPrdlyxZeffXVPi922Gw2br31Vn73u9+RlJSkxLuBhuY22to7aG5rp7G5jdaOTppb2mlsbaOzs/vNbIMD/PH1sRPg74u/nw/+vj4E+vvi62MnKMAfH7uNkEB/JdxL7TpSytPLtrBmTwHaHEVMio0IcRU7hroKHpGhauTfXUePHuWBBx5g/vz5nnRYh4FrgTyN8AVeAyoF5yUZWAyMdtcDSEpK4uGHH+a2227TaIqIEXl5ebz66qu88MILHDx4sNf+35EjR/L3v/+d6dOnK8kGNLe2U93QzMm6Jqobmqmudz1O1jdRXd9MTUMzVXVNNDS3Ud/cSlt7By1tHf0eZ6C/L+HBgYQGBxAW5E9YcABhQQGEBQcSFuzf9esAIkICiQ4LJjYyhNjwEDUR9BAHj1fyn2VbWL7tEA6HKh1ilt1uY2RmEjNGZnLxqAwGJkQpKd2wdOlSvvWtb3H48GFPOaR6XCsD3tLoqsDRn4YDS3DTbWB9fX351re+xc9+9jNtiygilrFlyxZeeeUVXnzxRY4fP35e/0dwcDC//OUvtRylj7V1dFJWVU9xVS0llXUUV9ZRWlVHcVUdJZV11DQ0e/TxhwUHEBseQnR4MPGRIUSFBRMXGUJMeDBJMeEMiAknNjIEu02XWO7g2Ikannl7K4s37Nc2sWIZA2IjmDEyg+kjMhibPQBfH7uSchbt7e3885//5Ec/+hENDQ2ecEhO4P+An3f9WnpIP317ZhbwJm66Dez06dN59NFHtRzFwhwOJzWNLdR1PWqbWqhtaKGhuY3W9o6P3e089b1T07lP3YFqbe+gtf3jF2mNLW04HK4p3qemaX+Sr4+d4ADXJkChQf7Y7XbCggNOT+f265rmHejvR2iQP6FBAR/7Gh4ccPrXPnb9IJbzPQccrFixgueee47XX3+durq6bv27GTNm8NRTT2l3lF7U0NzGkZIqjpRUcbi4ivzSKorKazhR26Cp/Z/Bz9eHpOgwkmPDSY4JZ0BsBEkxYQyIjSA5JpyoME1Ft5qK6gb+8/ZW3lyzR4UOsZTI0CAuGZ3FnHGDGT8kBbtdH9/OpKCggLvvvtuTdlt5HrgLaNHoqsDRVy4FFgBud1USHx/P7373O7785S9j0x0lI+qaWqmsaaC8poHK2ibKT9ZTWddIRXUDVV3TuOsaXYUMTxAc4EdkWBDRYcFEhgYSGRpEVGgQ0eHBRIYGERkaSGxECHERrrugutMpZ9Lc3MzChQt57rnnWLZsGe3t7Z/6O6GhofzmN7/h3nvvxa7C2nlxOJwcLqnicHElh4urOFxSSX7JScpO1is5fSQ8OID0pGgyk6JJT4giMymG9MQokmLC0duhWWUn63lyySYWrd9HRw96v4j0h6iwrmLH+GzGDR6gYscnOJ1O/vOf//C9732P6mqP6Ne5CbgOKNHoqsDR2+YC892tuGGz2fj617/Or3/9a6KitJavL7V1dFJcWcvxE7Ucq3B9PV5ZQ/GJOspO1tPa3qEknYWP3U50WBDxUaHEhIeQEBVKTHgwCdFhJEaHkRQdRkJUKH6+WvfuzSorK3n55Zd5/vnnWb9+PQCzZs3iySefJCMjQwnqgZN1TewpLGN3fhm78svYd7ScptZ2JcYCAv19SU+MJj0xisykaLJT4shJiyM2IkTJ6WfHT9Ty+KKNLNt8QD06xJKiw4KYPXYw8yYOYWSWmml/VGlpKffffz9vvPGGJxxOCXAlsEMjqwKHVxc3UlNTefrpp5k9e7ZGsBfVN7WenrJ9qLiSwrJqjp+opaK6AYfmbPcZu81GbEQISTFhJMeEkxQTTmJ0GCmxEaTERZAYHaa7GF6koKCAkydPMnbsWM1K+wwOp5NDxyvZfqiEPYVl7MovpaSyTolxMzHhweSkxTMkNY6ctHhy0uJIjglXYvrj/absJI8v3Mh72w7r57xYVlp8JPMm5XDlpBySY/XecMrrr7/O/fffT1lZmdt/BAFuBN7WqH42XRme22VdxY1Adwr6tttu45FHHiEyMlIjeL4fChxO8ktPcqi48vS07SMlVZqybVF+vj4kx4STGh9BalwkqfERpMRGkpoQwYCYCBU/xKuUVNWxad8xNu0/xuYDx6iub1ZSPFB4cAA5afEMHRjPqKwkRmQkqbdHHzp4vJLHFqxn1a4CJUOs+8HOBmMGDeDKyTlcOm6wtsQGqqur+e53v8szzzyD072LlG3AncBzeqV/xnmgFJzV5bgairpNcSMuLo7HHnuM66+/XqPXQxXVDewpLGdPQSl7CsvZf7RCU7Y9hL+vD2kJkaQnRpORGEVG15r3gYlRBPhppw1xf3VNrWw5cIyN+46xad8xjp2oUVK81MCEKEZmJjIyK4lRmUmkJ0Wrx1Ev23aomL+8voa8wnIlQywtwM+X2WMHcf304YwelOz1+Vi2bBl33nknJSVu3c7i1A4rP9Mr/Oz0U+/M3K64cfXVV/PEE0+QkJCg0fsMnQ4HewvK2X64hD0FZewpKONEbaMS42XsNhtJMeEMToll8IAYBqfEkZ0Sy4DYCDX5E8urqG5gxc4jfLD9CNsOldDpUDNE+bSw4ABGZiYxKiuJ8dkpDMtI0C5XvfEJwwnvbDnIo/PXUVKlJV9ifZlJ0Vw3fThXTh5KeHCA1+ahqqqKe+65h9dee83dD+Up4B5Ad2PPQJfxnzYPeAM3KW6EhYXx5z//mTvvvFMjdxYOp5ODx06w5cBxNh84zvZDxZqdIWcVHOjfVfCIJTsljsEpsQxKjiGoawtdEVNKKutYtauA5dsOsfNIibZqlR4LCvBjRGYik3LSmDg0lZzUeBV0L0BHp4MF6/L454L1WgombsHf14cZozK5ftpwJuSkeu35/+qrr/L1r3/d3XdaeQe4AVd/DvkI/Vj7uKuB1wC3WLA2ZcoUXnjhBdLT0zVyn1BUUcOGvKNsOXCcLQeLqWvUFtJy/uw2GynxEWR3zfIYNCCW7JRYEqPDlBzpU4Vl1SzbfID3tx8hv6RKCZFeFR0ezMScVCbmpDIhJ5Ukvaedl7rGFp5csplXV+6ivaNTCRG3MHhALLfMGsW8iTn4+3nfTnVHjx7lK1/5CitXrnTnw9gCXAVozdxHqMDxoXm4Goq6RXHj/vvv549//CP+/moeBK6moDvzS1m9K59VuwooLKtWUqTPhQcHMCw9kWEZCQxPT2RYeoKa/MkFq21s4e3NB1mycT97CsqUEOk3mUnRTBuRwbQR6YzOSlaD5h4qrqzlz6+tYcWOI0qGuI2osCCumZrLzTNHER8V6lXH7nQ6+dvf/sZDDz1Ea2urux7GQWAOUKRXs4t+crlMApYDlj+rg4ODefzxx7n11lu9ftCaWtrYsK+IlTsLWLunkJoGTQ8V8wbERjA8I4Fh6YkMz0ggJzXeK++MSM84HE62HDjOG2v2sHJnvu4Ci3HhwQFMHJrGxJxUZo7KJDo8WEnpps0HjvP7l1dq1pW4FT9fH+aOz+YLs0aRkxbvVce+a9cuvvjFL7J37153PYQiXEWOg3olq8ABMAxYBURbPdDBgwfz+uuvM2LECK8drObWdlbuzOftzQfZuK+INn0IEIvz9bGTnRLL8AzXDI/hGYmkxUdp3bsAriUor67cxbJNB6jVUjqxKLvdxuisZKaNSGfWmEGkxEUoKZ+hvaOTF9/fyZNLNtHU0qaEiFsZmz2A2y8bz9RhA73mmJuamrj//vt5+umn3fUQynFtlLHD21+/3n6JnQqs7fpqaddeey3PPPMMERHed1HR6XCwIa+IZZsOsHJnvhqEitsLCw5geLprK8dxgwcwPCNRszy8iMPpZMv+47z0wQ5W7y5Qs1BxO5nJMVw6dhBzx2eTnhilhJxDZW0jjy/ayPw1e3HoZBc3M3hALLfNHcvlE4Z4zZK1Z599lnvvvZeGhgZ3DL8GuBJY582vW28ucMQDa4DBVg7Sx8eHX/ziF/zgBz/A5kW3fJ1O2F1QyrJNB3l360F1JxeP5u/rQ256AmMHD2DM4GRGZSYRHKj+Op6mobmNRev38cL72ymp1NaS4hlU7OievMJyfvfySvXVEbc0IDaCL8wazfXTh3vFDZkDBw5w0003sWvXLncMvxH4HK72C17JWwscQcD7wGQrBxkbG8tLL73E7NmzvWZg6hpbWLRhH6+v2sPRcjUKFe/kY7czJC2OsYMHMHZwMqOzkgkPCVRi3NSRkiqeX76dtzcfpLW9QwkRj5WdEsul4wYzb1KOdmQ5A4fDycsrdvLPt9ZrNqq4pYSoML40ZwzXTx9OgJ+vRx9rU1MT3/zmN3nqqafcMfw24IvA6974OvXGAocdeBW43spBZmVlsXTpUgYPHuwVg7Irv5TXV+3h3a0HaWtXXw2Rj71p2WxkJkczdnAKYwcnMzY7hWjt1mJ5eYXl/HvpZlbtytcyFPG696wxgwdw5eQcZo8dRIhmpH1MeXU9D7+4glW7CpQMcUvRYUHceulYvjBrtMfP6HDjJSudwNeAp73t9emNBY4/AN+zcoATJkxg0aJFxMd7dgfjppY2lm0+yGurdnPw2An9tBDpgQGxEUwamsrEnFSmDBuoDxAWsvNIKc+8vUUfXkQAfz8fZozM5MrJOUzJHYivj11J6bJ6dwG/fWEF5dX1Soa4peSYcO66ciJXTs7Bx+655/a+ffu4/vrr2b9/v7uF7gDuBv7tTa9Lbytw3AU8YeUAr776al566SWCgz13O7aK6gaeW76d+Wv3qrO4SG98gPD1YWRWEpOGpjEpJ5WctHivaQZmFU4nrN1TyFPLNrPrSKkSInIGsREhXD5xCNdelEtGYrQSgqs3z6Pz1/H6qt1qQipuKzkmnNsvH8/nLhrmsdcf9fX1fOUrX+HNN990u0sU4F7gMW95PXrTFfA8YAFg2QVj99xzD3//+9/x8fHMqV6FZdX8952tLN10gHZt7yrSZ8JDApkwJIVJQ9OYmJOqLR372OYDx/nbm2vJKyxXMkS6aezgAVw/fTizxg7C31e7SO3KL+XXz7/P4eIqvTjEbWUmx/DN66YyfUSGRx6fw+Hgpz/9Kb/61a9wuldB0oHrRr9XLFfxlgJHDrABsORVvs1m41e/+hX/8z//45HJ31tYzjNvb2HFjnzdnRAxIDk2nMlD05g2IoMJQ1IICvBTUnpBfkkVjy/exPKth5QMkfMUFhzAnHGDufmSUWQlx3h1LjodDp57dzuPLdygG0Hi1iYMSeHbn59GTppnLrdftGgRX/rSl6itrXWnsB3AncB/PP315w0FjghgIzDEisH5+/vz1FNPceutt3pc4jcfOM5TSzax+cBxvdOLWOU9x8+HcYNTmDYinWkj0hkQq9kdPVVcWcs/F2zgnc0HVbQV6a0LUhuMz07h+hkjmDkqEz8vntWxv6iCnz3zrmZziNuf07PHDuZb119Ecky4xx3fgQMH+NznPudufTkcwB3Afz36tefh55Yd17KUK60YXFhYGPPnz2fWrFkelfS8oxX8ff5aNu07pnd3EYtLT4xi2ogMLhqezphByWoAeA7V9c08uWQTb6zeo7urIn0oNiKEGy8eyfXThxPlpTtGtXd08sTiTTzz9lY6HQ69KMRtBfj5csusUXx13gSPa4heV1fHl770JRYuXOhOYXfiKnI866mvOU8vcPwasOS6j7CwMJYuXcpFF13kMckuKq/hHwvW8962Q9oSUcQNhQT6M2lommt2x/B0osODlRTA4XSybNMB/vTqamoampUQkX7i7+vDnPHZ3DZnLIMGeOfylUPFlfzsP+9yQLvNiZuLDg/m/s9N5eopudg86BNoZ2cnDz30EH/605/cKmzgduA5T3yteXKB40bgZSseY0hICIsXL+biiy/2iERX1zfz3PJtvPDeDt3VFPEQdpuNIalxTB+ZwZzxg712x4NdR0p5+KUV+nAhYvJi1QYTc9L44uzRTBk2ELvNu3aJauvo5EnN5hAPkTswnv/3hUsYlp7gUcf173//m2984xu0t7e7S8idwJeBFzzuZ4aHnjtDgM1AmNUCCw8PZ+nSpUydOtXtk9zU2s7TSzfz4vs7aGnr0Du2iAfLTI5h5qhMZo7OYmhaPJ7++eJkXROPvLmWxRv2aUaaiIUMTIji1kvHcNWUoV63+8rugjJ+/NTbHD9RqxeCuDW7zca8STl898bpRIQEesxxvfvuu9xwww3U1dW5S8gdwA3AW570+vLES9RgXDumjLBaYJ5U3Hhv22H++OoqKqob9C4t4mUSosK4eFQGM0dlMTZ7gEf17XA4nLyyYhePLVxPQ3ObBlvEomIjQvjSpWO4fsYIgr1oZ6imljZ+//JKFq7fpxeBuL3wkEDuvnISN10y0mNmZu3evZurrrqKoqIidwm5BbgC+MBTXleeWOB4ClfjFGudwOHhLFu2jClTprh1cosqavj9SytZn3dU78oiQnhwALPGDuKeqycTGxHi1sdSUHaS/3tmObsLyjSwIm70AemWS0ZxyyWjCPegO8GfZfnWQ/z6+fepa2rVi0Dc3qisJP7ni7M8ptfO8ePHueqqq9i5c6e7hFwPzAK2eEL+Pa3AcTvwtOV++IaH8/bbbzN58mS3TWxrewf/WbaFZ97ZSlu7+myIiIvdbuOXX72MueOz3fYYOh0Onnt3O/9atEHvbyJuKjjAj2svGsZtc8cSHxnqFcdcVdfEz595l3V7ddNJ3J+vj51bLx3D16+e7BHLzxoaGvjCF77AokWL3CXkE8AMYL+7596TFi8OB94ELDVPMSIiwu2LG2v3FPKdfyxkxY58Oh1ajC4iLp5Q3MgvqeI7/1jE4g379P4m4sbaOx3sKSjj1ZW7qKprJjslzuO2pPyk4AA/Lps4hKAAP7YdKsGh9zBxYw6nk51HSvlgRz45afEkRLl3odLf35+bb76ZqqoqNm/e7A4hhwDXAq8Dbt3ox1MKHAHAMiDFSkEFBQWxZMkSt90KtrGljT+8vJI/v7ZaUyBF5GPsNhs/u30Ol08c4pbxdzoc/GfZFv73qbcpO1mvARXxEJ0OJ3sLy3lt5W7qmloYkhpPkAf36LDZbIzKSuai4els3n9M12vi9qrrm1m4Lo8TtY2MG5KCnxvP5rDb7VxxxRUEBQWxfPlydwg5ArgaeBVw20aLnlLg+BNwjZUC8vX15fXXX2fOnDlumdDNB45z/yPz2XzguN5pReQTF9TwP1+cxTVTc90y/tKT9Xzn0YUsWq9ZGyKeqtPhYHd+Ga+t2k11fTM5aZ5d6IiLCOGaqbkUV9ZxpKRKLwBxa05gX1EFb285SGZSNClxEW59PNOmTSM+Pp5ly5bhtP7WbNG4+nG8BLhlxdQTChzzgL9ioX4iNpuNp59+mhtvvNHtktna3sFfX1/Dwy99oB0EROQM72/w0C0zuWHGCLeM//3th3ng7wsoqqjRYIp4gY6upSuvr9pNQ0sbuQMTCPDz9chj9fP1YfbYQaTERbBu71E6HQ69AMSt1Te1snTTfqrqmhif7d6zOSZMmEBWVhYLFy7EYf1zMwm4CHgZ11aybsXdCxzxwNuApRZp/fGPf+See+5xu2TmFZbzzb+9xZrdhXpHFZFPsdngwZsu5qaZo9wu9pa2Dn79/Pv8ff46WtVIVMTrtHc62HmklDfX7MXXx87QtHh87HaPPNbBKbFcNHwgm/cfp66pRYMvbm/fUddsjtyBCSRGh7ntcYwcOZKxY8cyf/58OjosXzcYCAwFXsM1qcZtuHOBw4arqjTGSkE98MAD/PznP3erRDocTp5YvImf/uddquub9S4qImd077VTuG3OWLeL++CxE9z71/ls2n9Mgyji5VrbO9iQV8SyTQeJCQ8mMykGm83zjjM2IoSrpw7l+Ila8ktPauDF7dU3tbJ4w35a2toZl52C3e6eJ252djbTp0/nzTffpLXV8itAhgJhwDvulGN3LnB8HfiulQK69tpr+fe//43dje4I1DQ08+Bji1mwLs8d1oSJiCE3XzKK+z831e3ifmXFTn7wxFJO1jdpEEXkYx+W3tt2mPV5RxmYGEWSG98VPht/Xx8uHTeYyNAgNu0/pl1WxO05u3ZaWZ93lHGDU4gIDXTL4xg4cCBz585l/vz5NDY2Wj3cKUAlsNld8uuuNeuBwG5cFSVLGDduHCtXriQkJMRtkphXWM5Djy/RDgIick5zx2fzyzsvw+5GtznbOjr57QsfsGBdngZQRD7TxKGpfO/GGWQlx3jk8e0rquD7jy3WNZ94jKAAP75zw3Sunz7cbY/hwIEDzJkzh2PHLD/DtBP4HLDIHfLqjgUOG66+G5bZniQ1NZWNGzeSlJTkNkl8Y/Ue/vDySto6tBZdRM5uwpAU/vrNa/F3o8ZeZSfreehfi8k7WqEBFJFu8/Wxc8PFI7j7qsmEBwd43PFV1TXx/x5fwo7DJRps8RgXj8rkp1+Z47bnbFFRETNnzqSgoMDqoTYCFwNb3aFY4G6+BjxulWCCgoJYvXo148aNc4vktbV38ruXVzB/zV69I4rIOQ0aEMMT37uBMDe6aNh+uIT/9/gSTtZpSYqInJ/wkEDuvnISN80c6bbr/M+m0+HgH2+t55m3t2qgxWMkRofxm6/NY0RGolvGX1RUxCWXXEJ+fr7VQy0FJgNFVg7S3d61U4E9QLglkmez8cILL3DLLbe4RfJKqur4/mOLOXDshN4JReSckmPDefqhm4gJD3abmN9YvYffvbSCjk5tjSgiFy4nLZ6Hbr6YkVlJHndsyzYd4JfPvUdLW4cGWjyCj93OvddO4ctzx7ll42A3KnLsAaYBtZZ9LbjZ2L8MDLNKMD/4wQ944IEH3CJxh4oruffPb1JUUaN3QBE5p8jQIP713c+7TdO9jk4Hv3zuPZ5csgmHmiWLSC+prG1kwfo8SqvqGJmZRFCAn8cc26ABsVw0PJ0NeUXUN7dqsMXtOZ1ONu0/xsHjJ5gybCABfr5uFX9ERATXXXcdCxYsoLq62sqhxgPjgZcAS95Rcqf61i3Ai1YJZu7cuSxZsgQfH+vXiDbkFfHQ40toamnTu5+InJOfrw+PfvtzjB08wC3ibWhu46HHF7Npn7aAFZG+Exrkz91XTebmS0bi40a75X2WmoZmHvrXErYdKtYgi8dIjA7j13ddzshM95t9VVRUxKxZszhy5IjVQ/03cJcVA3OXGRzhwAIssmtKZmYm7777LsHB1p+6/eaaPfzvv9+mrV1TEEXks/3gC5cwa8wgt4i1oqaB+x6Zz64jpRo4EelTbR2drM87yqqd+eSkxRMfGeoRxxXo78cVk3OobWgh72i5Blo8QkNzG0s2HiAmPJihafFuFbsbzeQYC1QDG60WmLsUOP4CXGKFQAICAli2bBmZmZmWTpjTCU8s3shfXluDU1O2RaQbbpszljsuH+8WsR4qruSeP79BUXmNBk5E+k1VXRML1uZxoraRcdkD8PP1cftjsttsTBuRTnhwIBv2FaHLRvEEDoeT1bsKqKxtZHJumlvNvHKjIsccYA1QaKWg3GGJykRgPWCJV+Wjjz7Kvffea+mEdToc/PaFFby5Zo/e3USkW6YOH8hf7r3GLXYMWJ93lB88vpRGLbsTEYPiIkL4/i0Xu82st+5Yt/coP3xyKQ3Nen8VzzFmUDIP330F0W7UOB3g6NGjTJs2jePHj1s5zJNdn9cts6bG6leyvsBmYLQVgrnpppt4+eWXLZ2w1vYOvvfPRWzIK0JEpDsGDYjhqe/fSHCgv+VjXbh+H794djkOh24xiog1XDpuMA/eNIPYiBCPOJ4jJVV85x8LKams0+CKx4iPDOX391zJsPQEt4r70KFDTJ8+nfJySy8h2wVMBRqtEIzV59U9AHzFEh8ABg1i0aJFBAQEWDZZre0dfOcfC9moZnsi0k3RYUE89t3PEx1m/bsaL3+wk9+88L6mT4uIpeSXnuStdXnEhIcwJDXOA34uBHP5hCHsyi+lvLpBAyweobGljSUb9hMXGepW52lMTAxz5szhpZdeoqWlxaphJgCDgdesEIyVCxzxXUkKNB2Ir68vCxcuJCsry7LJamnr4Lv/XKidBESk+z8A7Hb++s1rGTwg1vKxPrV0M399fY0GTUQsqa29k5U788k7Ws647BRC3GBG3LkEBfgxb2IORytqyC89qQEWj9DpcLJyZz6NLW1MGpqGzeYeG4omJiYyZcoUXn75ZTo6LLtxxDCgHVht/PrWwmP5F1xTXYz7v//7P774xS9aNlEtbR189x8L2bRfxQ0R6b7v3DCNueOzLR/nvxZu4F8LN2rARMTyiipqeGvtXsJDAhk6MN6tj8XHx87ssYOx2WDrQW0jK55jd34Zh4qrmDEyE18f92g+mp6ezoQJE3jllVfo7Oy0apgzge3AQaPvXRZNzljgn1igR8i0adN48sknsVu0866KGyJyXj+BRmfx3RtnYOWbF04n/OnVVTzzzlYNmIi4jbaOTlbvLmBPYRnjBqcQEuS+szlsNhiXnUJcZAjr9hzVznziMQrLqlmzu4DpIzPcZsZVVlYWubm5vP7661Y9F23AlcB8oNJUED4WTczLQLrpQCIiInj33XeJioqy5ItcxQ0ROR/piVE8cv81+PtZdxKfw+nkl8++x+urdmvARMQtHauoZeH6POKjwtxiKeC5DE2LZ9CAGFbtLKDT4dDgikeoqmvi3S2HmJCTSoyb7LCSm5tLfHw8ixcvtmqIAbi2j30a15KVfmfFq9tbgO9aIZAnnniCGTNmWPKV09beyQOPLmDzgeOIiHRXcIAfj377c8RHhVk2RqcTfvfSCt5cs1cDJiJurbW9kw+2H+FISRWTclIJ8Pd122PJSIxmcm4aq3bm09zWocEVj9DY0sY7Ww4yLD2RAbHhbhHz+PHj8ff35/3337dqiLFAIrDAxJNbrcARgGtKS6TpQK688koefvhhS75iHA4nP3pqGWv2FOpdSUR65Od3zGX8kFTLxud0wu9fXsGrKzVzQ0Q8R0HpSd7ecpCctHiSYsLd9jjiI0OZOSaL1bsLqG9q1cCKR2hr72TZpgPEhAe7Te+c6dOnU1lZyebNm60a4hhgH9Dvd6usVuD4FnCz6SAiIiJYsmQJ4eHW+wHkdMKvX3ifpRsP6N1IRHrkllmjuG3OOEvH+OfXVvPSBzs1WCLicRqa21i8cT9t7Z2MHTwAu93mlscRERLInHGD2bCviJP1zRpY8QhOp5M1ewrw9bEzZvAAt4h57ty5bN26lUOHDlk1xDnAS0Btfz6plQockbi2hTW+AOqxxx6z7NKUv89fy8u6+BeRHspJi+c3d83Dx27dbuH/eGs9/1VDURHx6A9RsONwCev2FjIuO4WI0EC3PI7gQH8umzCEnUdKKTtZr4EVj7H5wHFqGlqYMmyg5beRtdvtXHfddSxfvpziYkvudBQITAD+C/Rb8x4rFTh+hqvKY9S8efP4/e9/b8kX8Rur9/D3N9fpnUdEenYhGuDHo9++jmgLN9B6fNFGnlyySYMlIl7hRG0jC9bnERsRwpDUOLc8hgA/X+aOz+bAsRMcq6jRoIrH2FtYTnFlHTNGZWC3eJHDz8+Pq666itdee43a2lorhpgGOIEV/fWEVilwpADPAX5GPwQEB7N48WJL7pqyPu8oP37qHW3PJSI99j+3zmLiUOv23Xhj9R7+8voaDZSIeJWOTgcrd+Zz/EQtk3LT8PP1cbtj8PWxM3f8YCqqGzhw7IQGVTzGoeJKDh47wSWjB+HjY7d0rGFhYcydO5cXXniBlpYWK4Y4HVgG9Ms0E6u8k/4ZmGg6iF/96ldceeWVlntFHC6u4lt/e4vWdnWsFpGemT12EPd/bqpl41u1K5+f/OcdVLsVEW/+IPX+9iOMzR7gNltVfpTdZmPGyEya29rZlV+qARWPcbS8hh1HSpk1Jgt/ixcg4+LimDx5Mi+99BKdnZ2We5sAxgH/xjWbo09ZYaSygSe6DtyY4cOH8/TTT+PjY60Xb11jC/f8+U2q6pr0LiMiPZIcE84j37wWfz9r/lDedqiY7/5zER2dDg2WiHi12sYWFm/Y57ZLVmw2mJybhsPpZNuhYg2oeIzSqjo27SvikjFZBPr7WTrW9PR0srKyeOONN6wYXhJQBWzs6yeywlXvX4DRJgOw2+288cYbpKenW+pV0Olw8J1/LNSUPxHp+Zu73c5f7rua1PhIS8Z3pKSKbz4yn6bWdg2WiAiesWRl/JAUAv192bjvmAZUPMaJ2kbW7DnK7DGDCAqwdpFjxIgROJ1OVq5cacXwLsLVcLRPOxObfuccAvwTw7M3vva1r3Hvvfda7hXwp1dX8c6WQ4iI9NTdV03iikk5loyt9GQ99/zpDW0vKCJyBoeKK1m5M5+JQ1OJDA1yu/hHZSUTGuTPhn1FGkzxGNX1zazaVcCsMYMICfS3dKwXX3wx+/btY+/evVYLLQBIxbVzap8xXeB4BBhlMoCoqCjmz59PcLC11jwu3rBPO6aIyHnJSYvn57fPwW63XufvppY27v3Lmxw7UauBEhE524ephmYWbdjPwIRIMpKi3S7+EZlJxEaEsHZPIWqxJJ6itrGFNbsLLV/ksNlszJs3j0WLFlFRUWG18IbhWqZyuK+ewGSBYyjwKIZnb/z2t79l1qxZlhr1/JIqvqd16SJyHvx9fXjkm9cSGxFiudgcTic/eGIp2w+XaKBERD5De0cny7cdorW9gwk5qdgsvl3lpy70B8aTGh/Jyp0F2gVQPIa7FDn8/f2ZN28ezz//PE1NluvlOAl4DOiTD7smCxyPACONvvEOHcpTTz1lqcaiza3t3P/IfE7UNuodRER67N5rp3LJmCxLxvbn11azaMN+DZKISA/sPFJK3tEKLhqeToCfr1vFPmhALGnxkazcma8ih3iM2sYWVu+2/nKVyMhIxo0bxwsvvIDDYakb5zG4tozd2hf/ualP9lm4qjZGZ288++yzDBkyxFIvxF8+9z6b9qsxk4j03IiMRH5826WWvMu3YF0ef5+vZXciIufjWEUN7207zLghKW63leygATFkJkXzwfYjKnKIx3CXIkdmZiZhYWG8/fbbVgttHK5enL3ebd5UgeNhYLzJjF555ZX85Cc/sdQoL1q/jycWb9Q7hoj0WICfL49881qiwqzXkG7zgeP88MmlOHRhKyJy3uqaWlmycT/piVFu15cjMymatPhIVuw8gn4UiKc4tVxl9thBBFu4yDFlyhQKCgrYuXOnlcIKA+qAtb39H5socCQBTwPG5tj5+Pjw2muvER8fb5kRLq6s5Xv/XER7R6feLUSkx751/UXMGJlhubiOnajhvr/Op1nbwYqIXLCOTgfLtx3Cx25nzKABuFNbjkEDYhgQG8HKXfkqcojHqG1sYX1eEXPHZxPob90lZPPmzWP58uUUFxdbKaxxwL+A1t78T00sEfkOri1ijPnKV77C8OHDLTOynQ4HP37qHRpb2vQuISI9NjIriS/MHm25uFraOnjosSXUNbZokEREeonTCf9csJ7/fWoZbe3udWPsikk5/OS2S7G7WcNUkXM5UlLFA39fQJOFb+YEBgby+uuvk5iYaKWwooHv9/Z/2t8zOCKB5zBY4AgKCuKNN94gPDzcMiP7xKKNLN10QO8OItJjfr4+/PW+q4m24JrsXz73HhvyijRIIiJ99KFqzZ5Cpo1IJzQowG3izk6NIzEmnNW7CrSFrHiMipoG9hSUMXd8Nj4+dkvGGB4ezoQJE3j22Wet1A9nLPAE0GtbvfR3geO7wBUmM/jggw9y/fXXW+aFdvDYCX76n3e1Nl1Ezsvtl41n7oRsy8X12srdPLV0swZIRKQPVdU1sXzbYcYPSbHk9uBnMyQ1jrjIUFbvLtAgiscoqarjUHEVl44bZNlZSunp6TQ3N7NmzRqrhOQPNAIre+s/7M8CRwDwIhBqKnvR0dG88sorBAYGWmI02zs6+fbfF1CpLWFF5DykxUfy67vmWe5OwZ6CMn745DI6HSrcioj0tcaWNpZuOkBWcgzpiVFuE3dOWjwRIYGs23tUgyge42h5NSWVdVw8OtOSu9oBzJw5k+XLl3P8+HGrhDQM+DvQ0Rv/WX8WOG4FbjOZuR/96EfMnTvXMi+uJxZvYvnWQ3onEJHz8pu75pGWEGmpmOoaW7jvr/OpUd8NEZF+c6r5aERIIMPSE90m7uEZifj62Nl84LgGUTzGoeJKGprbmDpsoCXjs9vtXHLJJfznP/+htbXVCiGFAMeArb3xn/VngeMJYICprMXExPDCCy8QEGCNNYoHj1fy0/+8o6UpInJerpw8lC/NGWOpmBxOJw8+tph9RRUaIBGRfuZ0wto9R2lubWfS0DS32WFlzOABtLZ3sPNIqQZRPMaegjJsNhvjsgdYMr6oqCjCw8NZsmSJVUIaAvwDLrw1T38VOKYB/2syYz/+8Y+59NJLLfMh4KF/LaH0ZL3OfhHpsYiQQP5479UEBfhZKq5n393G66v2aIBERAzalV/KkZJKZozKxNeizQ4/adLQNBqa29hdUKYBFI+x7dBxkmLCGZIaZ8n4xo8fz9tvv22VrWNjgG3ABe+80V8Fjt/jWltjJlsWm73x6srdvLFaHwJE5Pz84IuXMDoryVIx5RWW879Pva1ZaSIiFlBQVs32Q8XMHJVJgL+vW8Q8KTeN4so6DhVXagDFY6zdU8iIzERS4iIsF5vNZmPMmDH8+9//tsquKsnAfy70P+mPAscA4DH6f8eW0376058ya9YsS7yQKmsb+f6/FtPW0akzXkR6bERGIt+/eaalph43tbRx31/foqahWQMkImIRZSfrWbkrn+kjMwlzg21kbTYbM0ZlcKS4isKyag2geASH08nKnflcNDydmPBgy8WXnJzMiRMn2LRpkxXCSQdeAS6oytkf89buA4zNo46MjOTee++1zIvoT6+upqG5TWe7iPT8Ddtm48GbL7bcuuqHX1rJsRM1GiAREYspLKvmjodf4XBxlVvE62O38+u7LmfS0DQNnniMxpY2vvPoQk7UWHPnzF/84hdER0dbJZw7Lvh6uY8D9AO+ajJD999/P2FhYZYYrZ1HSnl360Gd5SJyXq65KJdh6QmWimn51kMs3rBPgyMiYlGVtY3c/cfX2OUmTTz9fH343devsGzfApHzUV5dzwOPLqCpxXo3uiMjI3nooYesEs6XucDJEX1d4LgWMHY1HhgYyH333WeJkXI4nfzh5ZVoebqInI/QIH/uvXaqpWIqPVnPL559T4MjImJxdU2t3P/IfDbuK3KLeEMC/fnr/deQHBuuwROPceDYCX7wxFI6HQ7Lxfatb32LlJQUK4SSAFx5If9BXxc47jaZnTvvvJPERGvsBT5/zV5tnSgi5/9metVkosOCLBOP0wm/eu49Glu05E5ExB00tbbzwKMLeWeLe8wmjo0I4R/fvo5oC/YtEDlf6/Ye5eEXV1gurqCgIH74wx9aJZwLWgHSl40/M4E/A0ZWi/v6+vLCCy8QFRVlfITqm1r5/r8W09LWobNaRHosIzGan37lUux26zTfeG3VLl7+YKcGR0TEjTgcTj7YfoSYiBCGDoy3fLzhIYGMy07h7S0HaVeDfvEQ+4oqiAwNstyy49GjR/Pcc89RU1NjOpQs4N9A/fn8476cwXE3/dPE9Iw+//nPk5mZaYkXyzPvbKW6XrsLiMj5+d5NM/D1sVsmnuLKWv72xloNjIiIG3I4nfzmhfd5fvl2t4g3d2A8v//6Ffj5+mjwxGP88ZVVbDlw3FIx+fn58Z3vfMcKofgCXzjff9xXV8z+wO0ms/LAAw9Y4oVSUdPAS+/v0FksIuflouHpTM61Tjd5h9PJz/+7nKbWdg2OiIibcjrhz6+t5m9vukexetLQNH72lTmW20VM5Hx1Ohz8v8eXUFxZa6m47rzzTmJiYqwQyo3n+w/7qsBxJQabi44bN47Jkydb4kXy2IINWpoiIuf3Bm2zcd+1UywV08sf7GTbwWINjoiIB3jm7a1uU+S4bEI2X7tykgZNPEZtYwvff2wxzRa6aRQcHMzXv/51K4QyETivO3x9VeD4sslsWGRqDYVl1SzesF9nr4iclysn55BtoW3yjp+o5dH56zQwIiIe5Jm3t/KX19e4xU5/X7tyEldOHqpBE49x8HglP/3PO5Y6/771rW8RGBhoOgwb8Pnz+Yd9sZgtFniMvm1gelZJSUk88cQT+PiYX6f36+ffJ7/0pM5cEemxAD9ffn/PlYQGBVgmpv95chlHy6s1OCIiHmZXfilVdY1cNCIdm4XXgdhsMH1EBrsKSimurNPAiUcoKKvG38+HMYOSLRFPaGgo+/fvZ/fu3aZDCQOe6uk/6osZHLfg6sFhxD333IO/v7/xF8bBYyf4YMcRnbEicl6+MHs0CVFhlolnycb9bNxXpIEREfFQb6zew29f+MDyMzl8few8/LUryEyK1qCJx/jnW+tZvbvAMvHceeedVghjCuexTKUvChy3GXvD8/XlrrvussSL4l+LNrrFVD8RsZ7I0CBuv2y8ZeKpbWzhz6+t1sCIiHi4N1bv4eGXrF/kCAsO4C/3X0N0eLAGTTyCw+nkJ0+/Q0mVNWYmzZw5k6ysLNNh2IBre/qPervAMRRXQxAjrr76apKTzU/tOXDsBKt25etMFZHzctcVEwkN8rdMPH95bbW2uhYR8RKvrdzNr59/3/JFjuSYcP5y3zUE+vtq0MQj1De18uOn3qbT4TAei81m44477rBCWq7o6T/o7QLHbSaP/u6777bEi/OJxZs0e0NEzktidBjXzxhumXi2HSxm0YZ9GhgRES/y5po9/PHVlZa/ns0dGK/tY8Wj7DxSyrPvbLNELLfffrsV+lpeDPSo42lvFzhuMnXkGRkZzJ071/gLoaDsJKt2avaGiJyfO6+YgL+vjyViaevo5FducBdPRER630vv73SL5YmXjhtsqWWdIhfqicWbKK6sNR7HgAEDmDlzpukwgoAZPfkHvVngmAgYW6hz1113Ybfbjb8Q/rNsKw59GhCR8/lBEhvB1VNyLRPP88u3a9cUEREv9sJ723nkjTWWj/Mb107hktFZGjDxCK3tHfzxFWsUF2+44QYrhHF5T/5yb1YEbjZ1xL6+vnz1q181nvmyk/W8vfmAzkoROS93XTkRXx+7JWKpqGng6aWbNSgiIl7uv+9s48nFmywdo91m45d3XkbuwHgNmHiEVbvy2Xaw2Hgcn//85/H1Nd7npkfLNHrrStoGfN7UEV9++eUkJiYafwE8t3wbHZ0OnZEi0mNp8ZFcMWmIZeL52xtraWpt18CIiAiPLdzAC+/tsHSMAX6+/O7rV2pnFfEY/1iw3ngMcXFxTJ8+3XQYw+jBdrG9VeCYAgw0dcS33Xab8cGvb2rlrbV5OhNF5Lx87apJ+NitMXtj15FSlmk2moiIfMSfX1vFG6v3WDrGxOgw/nDPlfhZpJeVyIXYcbiEzQeOG4/DIstUZnX3L/bW1bSx5qIRERFcffXVxjM+f+1emnW3U0TOQ1pCJJeNz7ZELA6nkz+8slKNRUVE5GOcTvjtCx/wzpaDlo5zZGYS37lhugZMPMKz72w1HsM111xjhVRM6+5f7I0Chx0wVta5+eabCQoKMvuBwOHk1ZW7dAaKyHn5+lWTsdutscfd/DV7yTtaoUEREZFPX/M6nfzk6XdYvbvA0nHeNHMk10zN1YCJ21u39ygHj1cajSElJYVhw4aZTkW/FjgmAANMHakVlqes3JVPSWWdzkAR6bG0+EjmjBtsiVgaW9r4pwXWe4qIiHV1dDr4weNL2XG4xNJx/uALl5CbnqABE7f3mgVupF922WWmQ8gGutVFuDcKHNeaOsrMzEwuuugi4wP+8gc7deaJyHn5ymXjLDN745m3t1Jd36xBERGRc2pt7+CBRxcYv7N8Lv5+PvzpG1cRFxGiARO39vbmg7S0dRiNwQIFDhvQrQ/+vVHgMLYo5+abb8ZmM/vBoLCsmq0Hj+vME5Eei48K5YpJOZaI5URNIy+8t12DIiIi3dLQ3Ma3//YWJVXWncUcGxHCw3dfoaaj4tYaW9p4b9shozHMmDGD4GDjOxR1a5nKhRY4snBt22LETTfdZPwF98bq3WrGJyLn5bY5Yy1z0fXPBeuN3x0QERH3cqK2kfv+Mp+TFp79NzIriXuvnaLBEre2YN0+o88fGBjItGnTTKehW92DL7TAYWz2RnZ2NqNHjzaa4baOTpZs1FaKItJzESGBXHvRMEvEUlB2ksUb9mtQRESkx46dqOGBRxfQZOHdBL906Vhmjs7SYInb2n6omMraRqMxWKA1xEjA77P+0oUWOIz137j55puNv9CWbz1ETYPWq4tIz9166RiCA/wsEctfX19Dp8OhQRERkfOSV1jO/zyx1LI/S2w2+Mlts0mKDtNgiVtyOJ18sOOI0RimTze+/XIA3Vg9ciEFjii62eijL9x4443GX2hvrt6js01Eeiw0yJ+bZo6yRCzbDhazZnehBkVERC7I2j2FPPziCsvGFx4SyK+/Ng9fH7sGS9zS8q2HjT7/5MmT8ff3N52GMZ/1Fy7kDJ8D+Jo4qpycHEaMGGE0s8dO1LDjSInONBHpseumDSc0yN8SsTy2cIMGREREesUbq/fw33e2Wja+ERmJfPO6izRQ4pa2Hy6mrrHF2PMHBQUxduxY02n4zAAupMBxubEPB9ddZ/wFtmTDfjUXFZEe87HbufkSa8ze2JBXxLZDxRoUERHpNX97cy1LN1m3R90XZ4/hEvXjEDfkcDjZuP+Y0Rgs0Iejz2Zw2ABjm+Fec801RrPqdKLmoiJyXmaPHUSiRdYA/0uzN0REpA+uk3/x7HJ2Him1ZHw2G/zky5eSHBuuwRK3syGvyOjzjx8/3nQKRgPn3ILwfAscI4BkE0cUHx/PxIkTjWZ1++FiiitrdYaJSI99cfZoS8SxZnchuwvKNCAiItLr2to7+e4/FlJUXmPJ+MKCA/jtXfMss1W7SHet33vU6CoCCyxRCQEGnesvnG+Bw9jsjauvvhq73WxzoCUbtZ2iiPTcmEHJDM9ItEQsjy/eqAEREZE+U9vYwgP/WEBdU6sl48tNT1A/DnE7FTUNHKuoMfb8gwcPJjzc+Oynoef6w/OtFBjrv3HttdcazWZHp4P3tx/R2SUiPfbFS8dYIo4VO46QV1iuARERkT5VVF7DD55YYtntY78wazSzxqgfh7iX7YfN9U+z2WyMGmW8l1yvFzhCgWkmjiQ4OJhLL73UaDY35BUZ7V4rIu4pJS6Ci0dmGo/D6YQnFm/SgIiISL/YtO8Yf3xllSVjs9ngx7epH4e4lx2Hze7kOWaM8Rt2Oef6w/MpcEwDjOxvOHPmTIKCgoxm850tB3VWiUiP3TRzFHa7zXgc6/YWcuDYCQ2IiIj0m1dW7OLVlbssGVtYcAC//doV+Ksfh7iJ7YYLHBaYwdHrBY6Zpo7ksssuM5rJto5OVu3K11klIj0S6O/LVVOGWiKWp5dt0YCIiEi/+8PLq9hkeIvLs8kdGM83rp2iQRK3cPxELdX1zcaePycnx3QKhuLa1fWMzqfAcYmpI7n88suNZnLdnkIamtt0VolIz967Jg4hPDjAeBzbDhUbn9YoIiLeqdPh4AePL6HIYIPEc7n10jGMy07RQIlb2H+swthz5+bmmj78MM6xo2tPCxzhgJG9YTIyMsjOzjaaSTUXFZHzccOMEZaI4+mlmr0hIiLm1DW18t1/LKSxxXo3DO02G7+4Y64lbkiIfJYDReaWG0dGRpKQkGA6BWctDPS0wDEd8DVxBPPmzTOaQYfDydo9hTqbRKRHRmUlkZMWbzyOg8dOsGHfUQ2IiIgYVVhWzU+efgen03qxxUeF8r2bZmiQxPJM91MbOtT40uv0s/1BTwscxpanmO6/se1QMbXaPUVEeujGi0daIo4nl2y25MWkiIh4n5U783l62WZLxnbl5KHMGjNIgySWpgJH7xU4ZpqI3tfXl5kzZxrN4KpdBTqTRKRHosKCmDXW/EVSSWUdK3ZqiZ2IiFjHYws2sGZ3oSVj+9/bZhMfFapBEss6XllLW3unsefPysoynYL0s/1BTwocYcBoE9GPGzeO8HCz+1OvVoFDRHrocxcNs8S2c8+/tx2HQ9M3RETEOhxOJz95+m2OnaixXGzhwQH8762zsdk0TmLR88fhNNqwNz093XQKBp7tD3pS4JgMGLlSv+SSS4xmL7/0pCXffEXEumw2uPaiYcbjqGtqZeG6PA2IiIhYTl1TKw89toTW9g7LxTZ1+EA+b5Em4SJnUlB20thzW6DAkXG2P+hJgcPY5tCmCxxqLioiPTU+O4WUuAjjcbyxajdNre0aEBERsaRDxZX84eVVloztgc9PZ2BClAZJLKmg1KsLHAMAvzP9QU8KHFNNRO7n58dFF11kNHvr87TzgIj0jBVmb3R0Onh15W4NhoiIWNqba/aweMM+y8UV6O/LL++8DF8fuwZJLOdoebWx546JiSEsLMzk4fsAyWf6g+6erXZcS1T63cSJEwkJCTGWuZa2DnYcLtEZJCLdFhYcwCVjjDdf4p0tBymvrteAiIiI5f32xRVGp9yfzdC0eL46b4IGSCyntMrsNZ4FZnEknemb3S1wDAOMzLU2vXvK1oPHjXaoFRH3M29iDgF+vsbjePG9HRoMERFxC82t7fzPE0tpabNeP447r5hAbnqCBkkspaSqzujzp6SkmE7BBRU4jK0RmTZtmtGsrdur5Ski0jOfuyjXeAx7CsrYV1ShwRAREbdxuLiK3720wnJx+djt/Pz2OZbYGU3klKq6RqM34hMTE02n4IwBdLfAYWR5it1uZ9KkSUaztnFfkc4eEem2oWnxZKfGGY/jlRW7NBgiIuJ2FqzLY8nG/ZaLKyMxmju0VEUsxOmE0pPmZnEkJSWZTsEFzeAwcjbn5uYSFWWuc3FlbSOFZdU6e0Sk266aMtR4DDUNzSzfdkiDISIibuk3L3xAfqn1+nF8dd54S9zEEDml7KS5PhzuXOAIAYaYiHjq1KlGM7blwHGdNSLSbb4+duaOzzYex5tr9qp3kIiIuK3m1nZ+YMF+HD52Oz+6dRZ2u02DJJZQWdto7LktUOA47yUqY3Btw9LvpkyZYjRjWw8W66wRkW6bOiydqLAgozE4HE7eXL1HgyEiIm4tv8Sa/TiGpSdw88xRGiCxhMraJmPPbYECR/yZvtmdAsc4UxFfdNFFRjOmGRwi0hNXTs4xHsPq3QXGu2qLiIj0hgXr8li0fp/l4rrvc1MZEBuhARLjqurMzeCIizO+XCvyTN/sToFjvIloY2JiGDRokLFsVVQ3cOxEjc4aEemW8OAApo/MMB7HG5q9ISIiHuThl1ZwtNxaPfEC/X35wRdnanDEOJMzOEz2yuwSfaZvWnYGx/jx47HZzK1v23ZIy1NEpPsuHTfY+PZxFdUNrM/T1tYiIuI5mlvb+dG/36aj02GpuKbkDuSKSTkaIDGq0uAMjsjISKOf13HN4PhUAJ9V4AjFUIPRcePGGX2x7Mov1RkjIt125WTzu6csWJeHw+HUYIiIiEfZX1TBU0s3Wy6u7900g+jwYA2QGFPX2GLsuX19fQkLCzN5+L7ApwL4rALHKLq/lWyvMl3g2HlEBQ4R6Z7k2HBGZppttORwOlmwPk+DISIiHunfSzazp6DMUjFFhATy4E0zNDhiTF1jq9Hnt8AylchPfuOzihfDTUU6fvx4Y1lqbm3ncHGVzhgR6Za547OxGd4xbvP+Y5RUqrmoiIh4pk6Hg/996m2aWtstdw1w8ahMDZAYUdfUYvT5rdiH47MKHCNMRBkXF0daWpqxLO0uKKPT4dAZIyLdMmfcYOMxvLVWszdERMSzHT9RyyNvrLFcXA/dcjEhgf4aIOl3LW0dtHV0Gnv+yMhI0yn41HZG3Vmi0u9ML0/ZnV+ms0VEuiUtIZIhqWa3yaptbGHFjiMaDBER8Xivr9rNuj3WaqidEBXG16+epMERIxqazC1TCQkJMX34nwrgXAUOG4aWqIwZM8ZolvYWqsAhIt1z+YQhxmN4e/NBo9V7ERGR/uJ0ws+eeYeT9c2WiuvmS0YxeECsBkj6XUNzm7HndrcCRxpnaNrRH0aNGmU0S3lHK3SmiEi3XGqB5SlLNu7XQIiIiNc4Wd/Mr59/31Ix+djtPPSFmcZ7con3aWkz15cmONj4LkKfCuBcBY4RpqIcMcLYU3OippHK2kadKSLymQYPiCUzKdpoDEUVNZp1JiIiXmfFjiMs3rDPUjGNGZTMnHHZGhzpV81tHcae2wIzOEI/+Y1zFTiMLE8JCAggO9vcG8O+onKdJSLSLVaYvbFo/T6cTo2FiIh4n9+/vJLSk/WWiumBG6YRHOCnwZF+Y3IGhwUKHD2awZFrIsLc3Fx8fX2NZWiflqeISDfNHG12WzinE5ZtOqCBEBERr9TQ3MbPn3nXUoX++MhQ7rpyogZH+o3JrZPdrQeHkWkUJpenAOwvOqGzREQ+U0pcBFnJMUZj2HboOCVVdRoMERHxWlsOHGf+2j2WiukLs0aTnhilwZF+0WJwiYqfn/HZSj2awWFka4CRI0cazdD+Is3gEJHPNmNkhvEYlmzU7A0REZFH3ljLiRrr9NDz8/Xh+zdfrIGRftHR6fDmw/9UW9+zFTgSMbSDSm5urrHs1DW2cEINRkWkG2aOyjL+w+yDHUc0ECIi4vXqm1ott6vKpKFpzBozSIMjfc5pcI2W3W43ffg+n4rpLH9xiKkIc3JyjGXn4PFKnSEi8pnCQwIZNSjJaAzr845S19iiwRAREQFW7y7g/e2HLRXT926aTpAajkof8/ICh/0zv9HFSJUhMDCQtLQ0Y9k5VKwCh4h8tukjMvAx/Ib+7pZDGggREZGPePjFFdQ1tVomnoSoMO64fLwGRvqUw7sLHN1eomJkBsfgwYPx8fExlp3DxVU6Q0TkM5nuv9HW3snKnfkaCBERkY+oqmvir6+vsVRMX5ozlpS4CA2O9BmTuwjZbDbTh9/tAoeRHVRMLk8BzeAQkc/m7+vDlNw0ozGs2VNIY0ubBkNEROQTFqzby6Z9xyx13XDf56ZqYKTPqAfHJ2I6y1800j0vOzvb4AsDCktP6gwRkXOakJNKcKC/0Rje3XJQAyEiInKWa/pfPv8eza3tlolpzrjBjMpK0uBIn9ASlU/EdKY4gXQT0ZmcwVFRU0+Thd4IRcSaLh6VafT5W9s7WLOnUAMhIiJyFiWVdTyxeKOlYvrW9dM0MNInTM7gsMASlW41GU0CAk1EZ3IGx9GyGp0dIvIZb+IwbUS60Rg27iuy1F0pERERK3p++Q72FVVYJp5RWUnMGpOlgZFe53CYe253mcFh7PZkZqa5O6OF5VqeIiLnljswgfjIUKMxrNpVoIEQERH5DJ0OB7967n0cDqdlYrr/uovw9bFrcKRXOdE2sef8BoYKHGFhYcTGxhrLTKFmcIjIZ5g52uydF4fTyWoVOERERLplf1EFb6zeY5l40uIj+fyMERoY6VVe3mS0WwUOI/sfmpy9AXC0vFpnh4ic08WGt4fdk19GVV2TBkJERKSb/vHWOqrrmy0Tz9evmkR4SKAGRnqNyVlKmsFxDhkZZj84FKnAISLnkBQdRmZyjNEYVu7K10CIiIj0QF1TK4++tc4y8YSHBPKVueM0MNJrfH18jD23ydkjXbpV4Eg3EZnJGRztHZ2UVzfo7BCRs5qUm2Y8hhU7VOAQERHpqQVr89hTUGaZeL4wazRJ0WEaGOkVgf6+xp67udn47KhuFThSTURmcgZHaVW90f2DRcT6JuakGn3+oooaLaUTERE5Dw6nk4dfXGGZ631/Px++ce0UDYz0Ci8vcHyK/Qy/TzYRiMkCR3FVrc4METn7G6XNxoQhZgscmr0hIiJy/vYVVfDW2r2WiefyiUMYkhqngZELFuDdBY5PBfDJAkcC4G8isrQ0c9O/j59QgUNEzm5wSixRYUFGY1i584gGQkRE5AL87c111DRY446z3WbjG9doFodcuAA/ry5wfKr7/icLHANMRZaSkmIsKyWVdTozROSsJg0123/jZH0zuy20dlhERMQd1TW28NjCDZaJZ9qIdEZkJGpg5IKYXKLS1GR8d7/PnMFhpMAREhJCVFSUsawUq8AhIucwaajZ5SlrdhcY3QJMRETEU7yxag97C8stE88910zWoMgFCfTTEpWP+mSBw8hV/IABA4xmpaRKBQ4ROTN/Px9GD0o2GsPKneq/ISIi0hscTid/fGUVVtlfYNLQNMYYvs4Q96YeHB9niRkcqalm746WV9frzBCRMxqdlWx0bWNrewcb9xVpIERERHrJrvxSlm0+YJl41ItDLoSX76JizR4cJvtvtHV0WqbZkIhYj+n+G9sPldDS1qGBEBER6UV/e3Mtre3W+Pk6NnsAE4akaFDkvJi8EWeBHhwtn/zGmXZR6XcmCxwnahosM0VNRKzHdP8Nzd4QERHpfRXVDbz8wU7LxKNZHHK+tIvKx32ywBFrIqrERHPdgytqGnVWiMgZRYQEkm14j/qN+49pIERERPrA08u2WGYm98isJKYOG6hBkR4LVA+Oj/lkgSPGRFRJSUnGMlJ+Uv03ROTMJuakYrfZjD1/TUMzh49XaiBERET6QH1TK/9estky8Xzj2ikYvOwQN2S32/Dz9TH2/O5Q4DByqzIhIcFYRipqGnRmiMgZme6/sXHfMRxaQyciItJnXl25i6KKGkvEMjQtnukjMjUo0m1hQQFGn98CPTjOuUQlCAg2EVVcnLkp4JW1WqIiImc2Icdswy/13xAREelbHZ0OHp2/zjLxfP3qSZrFId0WERJo9PmtPoPDWJXB5BKVytomnRki8ilxESEMiI0wGsOWA8c1ECIiIn3svW2H2Xmk1BKxDEmNY0quenFI90SGBhl9/pMnT5pOwTkLHEYajAYGBhIeHm5uUOpV4BCRTxs9KNno8x8tr6akqk4DISIi0g/+/Npqy+ysePvl4zUg0i3hIeaWqNTX19PW1mY6BedcomKkwajJ/hsAJ+tU4BCRTxuVZbbAsXGfdk8RERHpL3sKynh/+2FLxDJ28ABGZSVpUOQzRYSYm8FRVVVlhRS0fPIbxmdwxMfHG81ItUW2hhIRaxlp+MJik7aHFRER6VePzl9Hp8NhiVg0i0O6w2QPDosUOGo++Y2PFjiMVBpiY2ONZaPT4aC2oUVnhoh8TFCAH0NSzb03ORxOth5U/w0REZH+VFRRw+IN+y0Ry7ThGQxJjdOgyDlFhnp1gaOJz+jBYWSJSnR0tLGMnKxr1haMIvIpIzIS8bHbjT3/nsIy6ptaNRAiIiL97IlFG2nv6DQeh80Gt80ZqwGRcwoP9uoCxxkDML5EJTIy0lhGahq1PEVEPs10g1H13xARETGj9GQ9C9fvs0Qsc8dnkxoXqUGRs4oIVYHjk4wXOEzO4NDyFBE5E9ONvbQ8RURExJwnFm2ktb3DeBx2u40vzRmjAZGzMtmDwwJbxFqzwBEVFWUsI3VNKnCIyKcvJoalJxp7/k6Hg7zCcg2EiIiIISdqG3lr7V5LxHL11FziIkI0KHJGkd7dZPSMFRavnsFR16g17iLycYMGxBIa5G/s+Q8cq6SptV0DISIiYtBTS7dYYhaHv68Pt8warQGRMwoP0RKVTzLeZFQzOETESkZnme2/seNwiQZBRETEsMraRl5budsSsVw3fThBAX4aFPmUCM3g+BTjBQ6TTUa1S4GIfNLoQWb7b+w8ogKHiIiIFTy9bAtNLW3G4wgPDuCKSTkaEPkYfz8fo4Wv6upq0yk4Z4EjoOvR7yIiIoxlpLZRMzhE5ONMNxjddaRUgyAiImIBNQ3NvLJilyViuXX2GOw2mwZFTouPDDX6/JWVlaZTcMYAThU4jGUnJMRc05yG5jadGSLysR8UCVFhxp6/pLKOE7WNGggRERGLeG75dpot0BsrLSGSSUPTNCDy4XVrlNkCh9V7cBi7og8LM/dhoqFFS1RE5EO56QlGn3/74WINgoiIiIXUNDQz3yI7qnxBzUblI0zO4Ghvb6eurs50Cs5Z4DCWHZMFjuYW7VQgIh8amhZv9Pl3anmKiIiI5Tz77jbaOzqNxzFl2EAyEqM1IAKYLXAUFxfjcDhMp+CcPTiMZMdutxMUFGQsI43ailFEPmLoQLMFjh0qcIiIiFhORXUDSzcdMB6HzQY3XzJKAyKA+QKHBZyzwGFkGkVoaCg2g81yNINDRD4qx+AMjrqmVgpLT2oQRERELOiZt7ficDqNx3HVlKFGtwYV6zDZg+P48eOmD98JnHEbF6MzOEwuTwFoalWTURFxSYgKIzrM3IyyXUdKLXHhJCIiIp92tLyaFTuOGI8j0N+Xay/K1YAICVFePYOjBug40x8Yn8FhUrOWqIhIl9yBpvtvlGgQRERELOzJJZuxwr2IG2aM1JaxQlykud1ILVDgOOuF86kCh5Hblib7bzicTprbVOAQERfT/Tf2FJRpEERERCzs4LETbNpfZDyO5NhwJuSkakC8mN1uIzbcXIHDAktUzlphMVrgCAgIMJaRtvZONBtcRE4x2X/D6YQDxys1CCIiIhb39LItlojjumnDNBheLDYiBLvd3CweCxQ4zhrAqQKHkUpDYKC5Bjlt7R06M0TkNJMFjuLKWuoaWzQIIiIiFrflwHH2FpYbj2Pm6Cyiw4M1IF4qIdJsqwcLLFGxZoHD6AwOC+xlLSLWkBhttsFo3tFyDYKIiIibePH9HcZj8PWxc/WUoRoML2VyBxWHw0FpaanpFHxmDw4jUylML1EREQEYmma2/8b+ogoNgoiIiJtYvvUQFdUNxuO4fvpw1GvUO8UbnMFRUVFBW5vx3Ui1ROWTNINDRE4x3WB031EVOERERNxFR6eD11btNh7HgNgIxmenaEC8UFykV28RC90ocHjhDA714BARl5xUww1Gj53QIIiIiLiRN1bvodUCnyeumz5cg+GFBsSGG3tuCzQYhW7soqIZHCLitQanxJp7d66spa6pVYMgIiLiRmoamlm68YDxOC4ZnUWUwT5iYkZKXISx57ZAgaMFqDrbHxotcPj4+BjLSnunQ2eGiBAeHEBcpLl9xNVgVERExD298P4OnE6zMfj5+nDZhGwNhpcxWeCwwBKVEuCsZ96pAoevichsBrviOBwqcIgIZCXHGH1+NRgVERFxT/klVWzef8x4HPMm5mgwvEhUWBAhgf7Gnt8CBY5znnR2vURExJtlDTBb4FCDUREREfdlhS1jh6UnMDAhSoPhJVLjIo0+f35+vukUlJzrD08VOIxMpTA5g8P0dDIRsYbMJHMFDqcTDhyv1CCIiIi4qbV7CimpqjMeh5apeA+Ty1MAjhw5YjoFmsEhInI2WcnRxp67pKqWusYWDYKIiIibcjidvLV2r/E4rpiUg8F7x9KPTBY4GhsbKSsrM52Cc66R8doZHCIiYHYGx+HiKg2AiIiIm3trbR4dhjcwSImLYERGkgbDC5gscBw5cgSn+aUQ3SpweB2tUBGR6PBgo1urHSlRgUNERMTdVdY2snZPofE4Lp84RIPhBVLjI4099+HDh62QgnPuU6slKiLitbKSoo0+vwocIiIinuHNNXuMxzB3/GB8ffTxztOlxJqdwWEB3erB4YVNRjWHQ8Tbmd5BRQUOERERz7Buz1FKT9YbjSEyNIgJQ1I1GB4sJNDf7Oxj8wWOJqD0XH9BJT4R8Vom+290OhwUlddoEERERDyAw+lk4bo843FcMiZLg+HBTC5PAUssUTnCZ3Sb8N4mo5rAIeL1BiWbK3AUVdTQ1tGpQRAREfEQb63Nw+Ew+yHj4lGZ2LWRg8dKNbxFrAUKHJ8ZgGZwiIjXyjRY4MgvOakBEBER8SDl1fVs2n/MaAwx4cGMzNJuKp7K5A4qra2tHD9+3HQKul3g8Loyn1NTOES8Wkx4MKFB/saeX/03REREPM+yzQeMxzBzVKYGwkOZLHAUFBTQ2Wl89vFnNgExOoPDpulTImJImuk1jMUqcIiIiHia97Ydprm13WgMs8YO0kB4qPREczsAWmQHFc3gEBE5E9NNmvJLVeAQERHxNM2t7azaVWA0huSYcLJT4zQYHigjMcrYc1ug/wZoBsfZaZdYEe9mssDR1tHJsYpaDYKIiIgHWrJxv/EYLh6ZoYHwMHERIYSHBBp7fgvM4GgDPrPJjW/XV6+bwaHuwiLezWQX6qPl1XQ6HBoEERGRXhIa5E+Qvx/+fr5n/HObDcKCAk7/vr2zk+bWDlra2mnv6KShpa3XdkDZkFfEyfpmosOCjOVj0tA0nli8SS8MD5I1IMbo81tgBkcB8JlNQE69AxiZz9DR0WEsO35+PjpLRLyYyR4cReU1GgAREZEzXaP7+hATHkx8VCix4SHER4V0fQ11FTEC/AkN8ickwJ+gAD+CA/0ICeydpuFOJ9Q3t9LR0UlzWzstbR20dXRS19hCTUMLtY3N1DR8/NfVDc3Udv2+pc312abT4eDdLQe5+ZJRxvI4PCORkEB/Glva9KLyEJlJ0Uaf3wIzOLoVgNEZHM3NzcayE3CW6q6IeD6bDVJMFjgqajQIIiLitUKD/ElPjCYzKZr0xCjSE6NIigknJiyY6PBgo9cH4cEB5/3vW9o6OFnXRHlNAz6GZ4v7+tgZl53Cql35esF5iKxkczM4Wltbyc83/lrq1hSSU5/yjez3YrbAoRkcIt4qJjyE4AA/Y89/TAUOERHxAn6+PuSkxjEkLY7MpBjSE6PISIwmLjLEI4830N+X5NhwkmPDLRHP5NxUFTg8SKbBAseBAweMrr7o0qMZHEYqDS0tLcayoxkcIt7L9BaxmsEhIiKeKCY8mGHpCeSkxTM6K5lRg5J0zW3QpKFpSoKHsNkgw+AWsXv37rVCGno0g8NIpUFLVETEhBSDDUZBMzhERMQzRIcHM214OhNzUhmZmWSZmQviMjAhisToMMpO1isZbi4hKozQIH9jz++OBQ4jlQYtURERE0zO4GhqbedkfZMG4Tz5dzWfi4sKJSYsmLjIUKLDgoiPCiU4wI/gAH98fewEBfrh62MnOMD1Najr+6c4HI7TjdfqmlppbG6jscX1qGlopqKmkZN1TVTWNlJR00BJZR1tHZ0aABHxepnJMUwfkc6MkZmMyEzUzoQWNzIzSQUOjzjvzDYYtUCBoxMo7M5f9N4lKv6awSHirVINFjiOVdTgdGoMziU6PNjVdC4hirT4SDKSokmKDiMmIoSIXtz/PTLUtX3fgG78XYfDSVl1PccraimqqOFISRUHjp/g8PFKmlrbNWgi4rF87HamDEtjxshMpo1IJz4yVElxI8PSE3hny0Elws1lJZndItYCBY5jQLe2BPLaJSr+vr7YbOiDhogXGmBwCq36b3woOjyY3IHxDB4Qy8AEVxf9gQlRhF1AB/u+YrfbSI4JJzkmnIlDU09/3+F0cryiln1FFew4XMK2Q8UUlJ7EoR8uIuLmMpNjuGbKUK6YlGN0ZxO5MMPSE5QEDzkfTWlpabHCDioHuvsXjRY4TM7gsNlcnZ3b2jXlWMTbJMWYK3B4a/+NkEB/cgfGk5uewLD0BHIHJpAYHeb2x2W32UhLiCQtIZLLJmQDUNfYwo4jJazbe5S1uwsp1dRgEXEToUH+zB2fzZWThzIqK0kJ8QA5afH42O10OhxKhhvLSjK3RGXfvn10dhr/zNztKSRe24MDINDPVwUOES8TFODXq8scespbChxp8ZGMy05hzOBkcgcmkJYQ6TXrtMNDApkxMpMZIzPhC3C4uIo1uwt4f8cR8grLdRKKiOUMTYvnS3PGcsnoLPzVp86jBPr7kpUczcHjlUqGm7LZID3J63dQUYGjO/z9fIFWnTUiXiQxyuysgWMnaj0yr3ERIYwalMzEnFQm56aRHKNO+qcMGhDDoAEx3H75eEpP1vPO5oO8tW4vReU1So6IGDV+SAq3XzaeybnaTtSTDUmNU4HDjSXFhBMc4GeusmCNAsee7v5Fr12iAtoqVsQbmV4WUewhBY6osCCmDktnYk4K47JTPGK5Sb9cpESH8ZXLxvGVy8ax80gpr67cxXvbDtOuHVpEpJ/YbDB9RCZ3zBvPiIxEJcRLPiCL+zLdYDQvL890CpzAvu7+Za+ewaGdVES88Ye8uQ/ibR2dVNW57xaxgwfEMn1kBtNGpDM8Q1sDXqhRWUmMykriuzdMZ/7avby2ajcV1Q1KjIj0CZsNLh07mLuunEhWcowS4kV0E8K95aTFGX3+PXv2mE5BEdDthmZGCxwOh4O2tjb8/f2NZCrAV2sMRfRDvv+UV9e71e4a/n4+jB6UzIwRmcwcnakLpD4SHR7MV+dN4Mtzx/HOloM8uXiTdtsRkV41JDWOB2++mDGDkpUMXfuIG56/pjQ1NVFYWGg6BT1aI2N0iQq4ZnEYK3BoBoeIfsj3o7KT1r87H+Dny0XD05kzfjDThqcTZHDNp7fx9bFzxaQcLpuQzZKNB3h66WYVOkTkgoSHBHL3lZO4aeZI7HbNutO1j7ijnLR4Y8+9b98+HOZ34DmvAoextSItLS1EREQYu5AXEf2Q7y9lFt0u1N/Xh8m5aVw6bjAXj8okJNBfLxSDfOx2rp4ylCsmDeGttXk8tmA9J+ublRgR6f4Fvo+dm2aO4mtXTiQsOEAJ8XIJUaFKgpuKCAk0eu3qbjuogAUKHE1N5tajhwTqzqSIt1GB48OL30lD05gzbjAzR2cRGqSihtX42O1cP304l44dxBOLN/Hqyl10dDqUGBE5pyGpcfzijrlkqs+GdGlp61AS3NTQgfFGn9+dCxxGl6iYEhkapLNGxIvY7TbiI83dxbBCgSMrOYZrL8rl8ok5RIfpPdAdhIcE8r2bZvD5GSP4xbPL2XmkVEkRkU//jLPZ+NKcMXzjmin4qc+cfERDc6uS4KayU8w2GN29e7fpFDjowQ4qYIEZHNXV1caypQKHiHeJjQjB18du7PlNFThCg/yZOz6bKycPZVRWkl4Ibio9MYonH7yRN9fs4S+vraaptV1JEREA4qNC+fntc5kwJEXJkE9pbtHPC3dlegbH9u3bTaegEGjsyT8wPoOjsrLSWLYiQgJ11oh4kdiIEKPPX3qyrt+ey26zMSEnlWum5nLJ6Cz8/XQ3zxPYbHD99OFMyEnhF/99j22HipUUES83e+wgfnTrLMJ1XStn0dymAoe7MrmDSnFxMWVlZaZT0OM1MqcKHMYaYVRVVRnLlgocIt4lNtxcgcPphPJ+2EXl1GyNL8weTUZitAbdQ6XGRfKv736e/76zlUffWofD4VRSRLyMj93O92++mBsuHqFkyDk1qweHWwoJ9CclLsLY82/bts0KaTjvAkc90An0+y0+kzM4tERFxLvERgQbe+7qhmZa2/vuAmNoWjzXTR/OFZNyCNQW2F7BZoOvXDaOYekJ/Ojfy6iqa1JSRLzog8/Dd1/B5Nw0JUM+U4tmcLilIWlx2G3mtnd29wKHA6gGYvs7YpMzOCJDNYNDxJuYXKJyoqb3Z2/4+/kwd3w2N148kmHpCRpgLzV+SArP/vAWfvDEUnapAamIx0uMDuOv919DlnZJkW6q1lbjbikn1ev7b8AFFDgAKjFQ4NAMDhHpL3GRJgscjb32f0WHBXHTzFHccPEIvY8JAPGRoTz2nev52X/e5Z0tB5UQEQ+VnRLLX+67hvioUCVDuq2grFpJcEM5aWZ3ULHADI5OYH9P/9FHCxxGplKYLHBEhwfrzBHxIjEGe3BU1V14gSMlLoJbLhnN56YN0zIU+RR/Xx9+deflpCdG8fiijUqIiIe5eFQmv7rzcr3/S485nerT5I5yDDYYrays5NixY6ZTcITz2O31kzM4+v+i3+ASleAAP8JDAqlrbNEZJOIF3HUGx8isJG6bM5aLR2UaXYsp1mezwd1XTSI2IoTfvviBmo+KeIipwwbym6/Nw99XO2JJzwX4qSjmbgL9fRmYGGXs+bdu3WqFNJzXFBLjBQ6TMzjAtY5RBQ4R7xATZm7WVk8bQNpsMG14BndcPp6RWUkaPOmR66cPJzTInx8/9Q6dDocSIuLGJuem8YdvXKXihpw3FTjcT3ZKHD52u7nKgjUajJ5XExDjBY7y8nKjWUuMCuXgsRM6i0Q8nN1mM7osrbK2+zM4Jg5N5f5rp5KrxqFyAeaOz8bHbueHTy5TkUPETY0dPIA/3KPihlwYTf50P0NSzfbf2LFjhxXScMEzOIysFampqaGuro7w8HAjWUuMDtMZJOIFIkMD8fUxVwn/rAKHzQbTR2Rw15WTyB0YrwGTXjF77CB+fdflKnKIuKHhGYn85b6r1XNDxAuZ3h3PIktUzmsGx0ev9o01wzDZwCQhSgUOEW8QFWa2qfDZlqjYbDBrzCCe/9EX+dO9V6u4Ib1u9thB/Oz2ObqDJ+JGBg2I4ZFvXktwoL+SIeKFRmaaW55cV1dHfn6+6RQUcp71CeNLVMBV4Bg2bJiR59YMDhHvEBEaaOy5nc4zz+CYODSVb153EUPTVNSQvjVv4hDKT9bz9/nrlAwRq/+8CgnkT9+4mvDgACVDeu06RNxHeEggqfGRxp5/27ZtVth557ybgFiiwFFUVGQscwnaR1zEK0SGBBl77vqmFto6Ok//PndgPPdfdxETc1I1MNJvbr98PBU1jbyyYqeSIWJRdruNX915Ocmx4UoG0NHp4GRdE2XV9VTVNVFR3UBlbSO1jS3UNbXS3NpOc2s7Ta3t1De10tzaRlNrOy1tHd36/4MD/fG12wgLDsTHx0ZIgD/+fj4E+PsSEuBPUIAfkaGBRIQEERkaSFRYEJEhQUSEBhIR4nr4qT+K9LIRGYlGZ11apMHojvP9hx8tcJSYit7kEhXN4BDxDpEGZ3DUNLh2akqKDuOOeRP43LRh2u5VjHjwphmUV9ezcme+kiFiQfddO5XJuWledcydDgfFJ+o4UlpFYVk1BaUnKSw7SXl1Ayfrm/p09kFTSxsAdU2t5/1/hAT6ExsRQnxkCPFRYSRGh5IQFUZ8ZCiJ0WHER4Uan43j1BQOt2JyeQrA9u3brZCGXpnBUQx0Av1ehjQ5gyM+MhQfu13N10Q8XESIuQJHfXMrD90yk+unDzfa6FTEbrfxizvm8uXfvkxhWbUSImIhs8cO4stzx3n0MXY6HBwurmJXfim788vYf+wExypqaP/ILEd309jSRmNLG0fLz/6eGhTgx2/umse0EelGYrTppopbGZGRaLayYI0ZHOfd5fSjBY52oAwY0N/Rm5zBYbfbiI0Ioby6XmeTiAeLDDW3RCU7JdZ4N2yRU4ID/fnjN67itt+8fPrupYiYlZkcw0+/4nnNgNs6Otl+qJitB4vZeaSUvKPlNLe2e934Nre209bRYez5dSPXfdhtNoZlmLtmbGho4MCBA6bTUIKrLnFePrnv1DEMFDhMzuAAGBAXrgKHiIczuURF63PFagYmRPGjW2fxo38vUzJEDPOx2/n57XMIDvDziOOpaWhmy4HjrN5dyMqdR2hoViEVINDP3Pi2tndoANxEZnI0IQZ3T9q0aROdncZnVF3QFJJPFjiKgMn9fQTHjh3D4Z/IWy8AAIAASURBVHBgt5uZup0aF8m2g8U6o0Q8WLjBJSrSN9o6Oqmub6K8uoHq+ubT67VrG1rodDhobGmj0+GksbmNTqeDxuY2HA4nIUH+2O02fO12QgL9CQsOIDQogNiIYKLDgomPDCU5Npz4qFCP7pVy2YRsth48zhur9+jFJGLQVy4b5/a7adU1tfL25gMs3XiAPQVlONTz4VMC/M3d7FCBw32Y7r+xfv16K6Sh1wsc/X+R2tZGRUUFiYlm1hulxEXobBLxcFEGl6jI+Wtp6+BoeTVHy6spLHM9jpZXU17dQE1Dc58+t7+vDynxkQxKjiE7JZbs1DhGZCQS5kFbN37vphlsOXicovIavdhEDBiYEMVdV0x0y9gdTidb9h9n8cb9vLftULd3LvFWgf4GZ3C0dWoA3MRww/03NmzYYIU0XFCX0zMtUTGiqKjIWIEjzeA+wyLSP8KDNYPD6k7UNLKvqJy9heXsO1pBQelJyqrrMXUjsK2jk/ySKvJLqnhny0HAtTY2KzmGsdkDmDpsIOOHpBDg5+u2OQ/w8+WnX57D1/7wmu64ivQzu83GT798Kf5+7rWMsaWtg/lr9vL88m2UntQS756835obs3YNgJswOYPD6XSyceNGK6ShV2dwGCtw5OfnM3GimQq2ZnCIeL6QIH8lwUKaWtvZnV/K3sJy8o5WkFdYTkVNg+XjdjidHCqu5FBxJS9/sJNAf18m5qRx2YRsLh6VSaC/+xU7RmUlccus0bzw3na9MEX60S2zRjEyK8lt4m1qaWPBun385+0tVNY2agB7yOTPBy1RcQ9hwQGkJUQae/7Dhw9z4sQJ02mo4gJXlVhiicqphJqSGh+JzQa6eSXiuYI8pHmbu2pubWfnkVK2HjzO1oPF7C0s94iu7i1tHazalc+qXfkEB/ozd/xgbrp4JNmpcW51HPdeO4U1uwsoqqjRi1WkH8RHhvKNa6a4RaxtHZ28sHw7Ty/bQqN2XjpvJpvItqjA4RZGZCQa7f1lkf4bWy/0P7BMgePIkSNG33Ciw4KpqmvSmSXigew2G0H+KnD0p06Hg52HS9m4v4gtB46zt7Ccjk7P3qauqaWN+Wv2Mn/NXkYPSuaOy8dz0fB0t4g90N+XH31pFl//0xt68Yr0g69dNdEtCu+rdxfwx1dWcfxErQbtApns36T+KO5hhOEGo57QfwM+XeCoBJqBfu/GZ3IGB7hmcajAIeKZAgP88ODNMCyjrqmV9XuPsmpXPuvziqhrbPHaXOw4XMK3/76A3IHx3HvtVCbnplk+5nHZKcweO4j3th3Wi1mkD6XFR3LN1FxLx1h6sp5fPvseG/cVacB6QVCAn9Et4xuaWjUIbmCE4QajnjqDw4mrD0d2fx+J8QJHXAQ7DpfozBLxQCFantJnisprWLkrn9W7C9h5uNQjlp30pryjFdz/yHymj8jgOzdMN7q2tju+/flprN5dQFu7Ou6L9JVvXDsFH7vdsvEt33qIX7/wgVcXqXub6d236lTgsDybDXLTE4w9f2NjI3v2WGLb+Auuspyp281RDBQ4ysrKqK+vJywszEgmU+IidWaJeKigQBU4elPpyXpW7shn+bZDKgx30+rdBWzcX8Ttl43nq/Mm4OtjzQ83yTHhfOnSsTy1dLMGTaQPDEmN49Kxgy0ZW2NLG7994QOWbjqggeplEYZ3clOBw/oyEqMJN1gI27x5Mx0dxpcyHe96XJAzFTiOAHNMHNGRI0cYPXq0kWymxmsnFRFPFRKgHVQuVOnJet7dcojlWw+Sd7RCCTkPbe2dPL5oI+v2HuU3X5tHUnSYJeO8/fLxLFyXxwntkiDS6+6/bqoll0xW1DTwwKMLOXjshCXiCfDzJSY8GJvNRkiQPz4fSVpdUyt1TS3Uu9GH9rAQcx9cOx0OmlvVHNbqxgweYPT5161bZ4U09MoambMVOIw4fPiwsQKHZnCIeC7N4Dg/Dc1tvLPlIIvW72N3Qal2muolewrKuPVXL/Lz2+cwfUSG5eILDvDjjnnj+d1LKzVYIr0oNz2BKbkDLRdXXmE53/nHwn7vRRcbEcKgATEMHhBLZnIM8ZEhxEWEEBsZ2q072Q6nk5qGFo6WV3OkuOr0Ft57CspwOKz1Ayvc4AyOusZW/fx2A+OyzRY4LNJgtFeCOFOBw1gzDJN9ONLiI3VmiXgozeDoPofTye78MhZv2MfSTQdobm1XUvrkgrOF7/5jIV+7chJ3XzXJcvF9btpw/rNsKxU1DRoskV5y88yRlotp3d6jPPSvxX2+y4bdbiMnLZ5JOamMy04hJy2OyNAL29PAbrMRHRZEdFgQYwYln/5+bWMLq3cVsHJnPmv3FNLWYb6nUFxEiLHnrtfyFLcwZpDZAsemTZuskIY+m8FhrMpgcqvY0CB/osODOamdVEQ8TrBmcHymkqo6Fq3fx6L1+yipqlNC+oHTCY8v2khNQzMP3nwxdgvNW/f39eHLc8fxh1c0i0OkN0SGBjFnXLalYtp5pJT/9/iSPituBAf6M2tMFjNGZjJ+SEq/9ReICAnkqilDuWrKUEpP1vP4wg0s3rjf6KyO6PBgY89d16RmsVaXFh9JXKS5Itjhw4cpLy83nYZWemGLWDj7EhUHYDeRXJMyEqNV4BDxQMGawXFGDqeTLfuP88aaPby//bDlpvR6i1dW7KKlrYP/vW22pYoc108fzjNvb1EvDpFeOp/8/XwsE8/ugjK++be3en2Wno/dzuTcNOZNHMLM0VkE+vsaPc6k6DB++pU5fPmycfz0P++SV2jmQ1xshLkCx8n6Zp2AFjdWy1PAVdzolWrcmd51moESIKW/j8p0gSMzKZqtB4/rLBPxMEHaJvZj6hpbeGtdHq+v2s3xE7VKiAUsWJcHwI9vu9QyDQj9/Xz40pyx/Pm11RogkQtgt9u4fvpwy8Rz7EQN3/7bWzS19F7jSX9fH66emstXLhtHcky45cYgIzGaJ793A//v8SWs3l3Q788fa3CJSqWK1JY31nCD0fXr11shDb1WZTlbWfUwBgocxcXFNDc3ExQUZCSrGUlROsNEPFCIlqgAcPDYCV76YCdvbz5Ia3uHEmIxC9blERsRwr3XTrFMTNdeNIx/LdxAk3qxiJy3i0dmkmiRXZOaWtt58J+Le23bUD9fH268eCS3zRlrdIp9d/j7+fCbr83jjodf4VBxZb8+t8kCR5Vmp1ue6QKHRWZw9FqV5WzLUIxMpXA6nUZncaQnRusME/FAQV68RMXphPV5R7n3r2/yxV+9yIJ1eSpuWNhTSzczf81ey8QTGuTPFZNzNDAiF+Dai4ZZ5ufBL/67nCMlVb3y/+WmJ/Ds/9zCd2+cbvniximB/r48ePOMfn/eGIM9OLT83tqSY8ONFkDr6urYuXOnFVLR5zM4jHX73L9/PyNGjDDy3BkqcIh4pGAvXKLS0elgxY4j/PfdbcbWHFuBj91OfGQI4SGBRIQEEh4S+KlGd/VNrThxLd2prG3kRG2j0a7zv33xAzKSohmVlWSJHN58ySheX7Vb2wyKnIew4AAmDU21RCxvrtnDu1sPXfiHBx879147hS9dOha73eZ2YzIuO4W0hEiKymv65fl8fezEhpsrAKmPksVfj4Znb6xZs4bOTuM7DZUARb12zp3l+8amUezbt89YZuMiQwgLDtB2SiIeJsBwk7P+1NzazuurdvPi+zspr673qnG222zkpicwdnAyWckxZCXHkJkUc16N/VrbOzhR08jxE7UcPF7JkZIqDhdXkl96kvY+3nKwo9PB//57Gc/96AtEhAQaz2tGYjTjs1PYfEA9qkR6asbITPx8zTcXrahu4JE31lzw/xMa5M/vvn4lE3NS3Xpcxgwa0G8FjvioUKOFoCoVOCxtbHaK0edftWqVFdLQq01AznbVf8jU0ZkscACkJ0Sxu6BMZ5uIB/FxwztMPdXU0sYrK3bx/Hvbqfaijul2u43JuWnMHJXFjJEZvbbOOcDPl5S4CFLiIpicm3b6+50OB4eOV7Jp/zE27T/G9kMlfbLkp/RkPb989j1+f8+VlsjzjTNHqcAhch4uHTfIEnE8/NIKGpovrKlooL8vf7nvGkYPSnb7cQkK6L8bH4lRZvuvqAeHtZmewbFypSW2g+/VJiDnWqLiBPr9U4HpAkdGUrQKHCIextfH7rHH1tTazoK1eTy1bLNXrbO12WDmqCy+ce0UMpP6b3mhj91OTlo8OWnxfHnuONo6Otl5pJQVO47wzpaDvVpc+mDHEd7efJDLJmQbz/f0EelEhARS29iiNxSRbgoN8mfS0DTjcazYcYSVO/Mv+P956JaZHlHcAC642NMTJvsrOJxOLVGxsPioUJJjze061NTUxLZt26yQin6ZwdEAlAOJ/X10Bw4coLOzEx8fM9P51GhUxPN4YoGjqbWdF5Zv54X3d1DnZR86h6Un8P2bL2Z4RqLxWPx9fZgwJIUJQ1L47o3TWb+3iCUb97NyZ36vzOz4/csrmZiTSlRYkNHj9PP1YfbYQbyxeo/eUES6acbITPwNL09xOJz8Y8GF3xydmJPKNVNzPWZsDhSd6LfnMlngqKpt6vNllXL+xhtenrJ27Vra2tpMp6Ed6NUqy7nmZx3CQIGjpaWFwsJCsrKyjGRYW8WKeB4fu+cUONo7OnlzzR6eXLyJk160FOWUz00bxkO3zDT+oeFsr7NpI9KZNiKdmoZmXnhvB6+s2HlBdwprGpr554L1/PDWWcaPb96kHBU4RHrg4lGZxmNYsnE/+b2wa8pXLhvnMePy/9m78/Aoq7MN4PfMJJN93/cQspCw7zsCgqCgoLhQtWqrtra1ttrW1moX+1mtda37XgWUTQHZl7DvOyEQkkASsu97MkkmmZnvj2irFSQJyTxnZu7fdXFpbch53nPO+87MM+c8p7y2ERdKrHdMrGSCo8zBanHZmhHcngIApwD06hva73vXnyV1lZLbVHiSCpH9sYcEh8UCpB4/j9uf/hT/XLbbIZMb8yYOxFN3X6tkcuN/+Xq64efzxmPd33+Eh24c952TW7pjzb6zOFdQIX5Nw/qHIzzAG0R0ZRqN/IcXk9mM9zYcvurf4+bijJHC3zT3ps1Hsq16KlRkkI/YtZZWN/BmVNiIRCY40Mv1N4DvT3CIZRkyMjLEejg80Bsuzk6844jsiE5n20VGj2QW4u5nl+IP729CYWWdw43fyMRI7Hj5p3hSgVUM3eXl7oIH5ozByr/+ENOH96zYoNliwWtf7BO/Fo0GStQDIbIFcWEB4lvLdqfloqTq6j/gRgX52M1Wz/YOE5bvSrNqm1HBvmLXW1bTxJtRUYE+HogWnButra04duyYCl1xoLd/oZIJDskVHFqNBjEhvrzriOyIk05nk3GX1zbiLx9vw89fXY2swkqHHb9Qfy94u7uIHrN3tQK83fHPn96AV35xI4J6cNLL0awinMguFr+OacP6g4iubKTwN7MAsGLX6V75PWZrLnfoY1/sOYOKWut96Nc76RDi6yn6PoLUJL3C6+DBg2htVaKGW6+fU8sExyX0C+M2FSJ7oneyrW+eDK1GvLHmAG7+0yJsOHTO4ccvwNvdbq5l8uB+WPLkDzAwNqTbf/f9XlhqfrWSY0J67SheIn546Tt5ZTU4nt07RzsXVtTDaAeFKivqmvD22oNWbTMi0Ec0OV9azQSHqkYPkN32pcj2lPMASnr7l37fu/4CACLnCp07dw4WwWxx//AA3nVEdsTDRW8zsW48nIlb/rIYH28+ZhdvKHuDvdV9CPB2x7uPLcCY5Khu/b2jWUVIyykVjV2jASYOiuWkJLrCfSKd4Fi7P6PX6ky0tXf0WrJE0ovLd6O51bonRkhuTwGAoqp63pCKGjtA9ghpRRIcfRLE9yU4zBAqNNrQ0ICSkhKxno6PYIKDyJ7o9erX1SmuqsfDr63Bn/+9FVU8s/5bou1w26Cr3gkvPjQXKd1cybF0xynx2CcPjuWkJPoeMSF+8BdceWaxANtPXOjV37l8Z5pNj8nOUznYcTLH6u1GBfuIzoPiSiY4lHxfE+yL8EC5L2+MRiOOHDmiQldYPcEBOOg2lfjwQN55RHZE5VM3OkxmLNuRhoX/9xkOZRRwsC7B2Ulnl9fl7uKMfzxwPTxcu77CaOfJHKvuH7+UscnR0DvrODGJLiMxMki0/XP55Sjp5dMz9qVfxK5TOTY5HhfLavG3RakibUueoFJR14i29g7ekAoamyy7euPIkSMwGAwqdMWevvilTHBcQliAd7fecBKR2lRNcGQWVOCuvy/Fiyt2o6WtnQN1GfZUg+N/hQd64xfzx3f5501mM1btOyMas5uLM4bHR3BiEl2G9Erg1F5evfG1fy7bjUZDm02NRV1TC371xlqxuKOCfMWuvaCCqzdUNbabW1R7myLbU/LQWRKj1zHBcQkaDetwENkTJ8USHCazGR9uPIr7nl+BnJJqDtAV1DQY7Pr65k8c1K0kzroD58RPNVDhhAgiVUknOA6eze+T31tR14QXlu+2mXFo7zDh8Xc3oliwDoXkMaCFFXW8GRWk02oxKokJDvTR6g1A4QTH2bNnHfrFiYh6T4dJnWKdBeV1uP+Fz/H22oPoMJk5OF1g70fk6p11uGHsgC7/fHltI06elz0ydngCExxEl30PKbjVuaG5tU8T5xsPZ+KtLw8qPwYdJjP+/O+tOCH4rHR20iHU30us/SLW31DSwH4h8HST2ynQ0dGBQ4cOqdAVfZZluVKC4wIAo8QVnz59WvQkFSY4iOxHm1GNPag7T+Xgnn8sw5m8Mg5KNxzoo28jVdLdhMGmI1mi8Q6MDWEdDqJLcHdxRpjgyU8nzhf3+QqvjzYdxSdbjis7Bu0dJjzx/iZsO35eNI7wAG/RI2KLKut4QyponHD9jWPHjqGxUYnjg8USHO0ARCoK1dXVobhYLuvKQqNE9qO+uVX8zdY/l+3G797ZgKYWIwekm45kFqJBeAz7/DWnm0n17ScuoF3wGGG9kw6D+oVychL9j/7hAdDIfaa12oqF11fvx+JtJ5Tr/wZDGx5+7UvsVKAgquQJKgBQyBocSpIuMJqamqpCNxQByO2rX67tws+IbVNJT0+Xe7MZyQQHkb2QPHWirqkFD72yCit2pXEgeqi9w4TV+87a9TVquvmJqNHQhpPnS0RjHsFtKkSX+FDrK9r+mYvlVmvrX1/sw58+2oJWRVZJ5pXV4Mf/XIHj2UVqzAXBAqMWC1BUxQSHatxd9RjYzePhe9u2bdtU6Io+LQLSlQRHhtSVSyY4vN1dEOzryTuRyA5U1MklOLYdP4+0nFIOwlVauuMUjO0mu72+9h5c2970PNGYh8SFcWIS/Y9gP7n3jhYLkFNs3cLVm45k4UfPrxCv97Du4Dnc89xyXCyrVWYuxIb6ibVdWd/E09kUNDopEk46rVj7zc3NOHz4sApdsacvf3lXejhT6solExwA63AQ2Ys2wQ/GLs5OHIBeUFXfjI82H7Xb6zub3/1vXfelXxSNOSUmmBOT6H9IfjlWVtuI5lbrb4M8X1yFHz63DKv2noG1y+dV1DbhsbfW4+lPtin3gT4mRC7BUcTtKUqS3p6yc+dOtLUpcdTzrr785Uqv4Dh9+rRozzPBQWQf2trlls+6uThzAHrJJ1uOI6+sxi6v7ci57h8FX1hZh4LyOrGYfT3dEB7ozYlJ9A3Bvh5ibV8orhJru9HQhmc/3YH7X1yJ01ZYtdjW3oFFW0/gtqeXYM/pXCXngmSCo5AFRpUkXWBUke0pZQCy+7KBrq7gEPn6MzMzE0ajXEG++AjW4SCyB5IJDg8XPQegl7R3mPDcZzsheMBWn2gwtCH1xIUe/d1jwnvNU2JCODGJvkFyBUdeqfz2jNM5pfjxCyvx6zfX4kR27xc8NbS1Y8WuNMx/6hO8tmqfyIqVrnB31SPQRy7ZxSNi1RPm74XoEF/RGBRJcOzp6wa6sna6BZ3HxSZZ++qNRiPOnz+PgQMHivQ+ExxE9kFy2arkWef26ER2MVbvO4NbJg+ym2tatuNUj+foqQslon2REhOCVOGjGIlUEuLvJdZ2WU2jMv2wL/0i9qVfRGJkIG6ckIJrh8f3uD6J2WJBxsVybDychQ2Hzimb1Pim2BBf0dN08streTMqZmyK7OqN4uJinDt3ToWu2NXXDXR1c3g6BBIcQGcdDqkER2yoH5x0WnSYzLwriWyY5NGsTHD0vheX70b/8AAM7W/7RS5zS6rx8eZjPf778is4WIeD6GtarQZ+Xm5i7VcKFtS+nOyiKry0Yg9eXrkHydHBGBYfjqH9wxEX7o+IAB/onXXf+TvGdhNyS6txrqACZ/LKsf/MRVTVN9vUXJDcngIAFwW3L9KlSdff2Lp1qypdsbuvG+hOguNWiR5IT0/HwoULRXpf76RDdLAvcktreFcS2TDZBIcLB6CXGTtM+O076/HJH+5AeIDt1oAwmc3466JUGDt6vgu0orYJJdUNYv2QHBMMrUYDs73tGyLqyfPeVQ+t4Nf2FQomOL5msQAZ+RXIyK/AZ9tPAQA0GsDfyx2u+s5aVRZYUNfYAoMdnP4hmeAwmy0oYg0OpWg1GoxKjBSNQZHtKZUA+nwZSVfPqRE7zkT+JBVuUyGydU2tchWjuYKjb9Q2tuDRN9fBYANLlS/nky3HkXGx/Kp/z5m8MrFr8HDVi+8pJlKFu6vs876itsmm+stiAaobDCiuqkdxVT1KqhrsIrkBADGCR8SWVDfY9bHqtmhAdJDo6i6LxYLt27er0BU7AfT5NyJdTXCIHWcifZJKYiQTHES2TnIFh5uLHlqthoPQB3JKqvH4extt8o3cxsOZeGftoV75XRn5FaLXwkKjRJ2kExx1za0cBEVIruBg/Q31TBrcT7T9U6dOoaKiQoWusMoykq4mOPIAiKSFCwoKUFdXJzYKSdFBvCuJbFxTi9wKDo0GcOdRsX3mUEYBHn59jU1967frVA6e/iS117Z1ZOSXi15PMutwEAHo3KIixdhuQnsHv7VXgVajQXSwr1j7THCoZ9KgWNmsghrbUwDAKstIuprgMAPIkOgFi8WCjIwMsVFIiuIbNyJb19wiu42BdTj61onsYjzy+peot4FvLw+czccfP9gMk7n3ildn5lfAbJargTGQKziIAADurnLJ7GYb3q5nb0L8POGqdxJr/2IZExwq8fdywwDhLwIUSXCcR+eiiT6n7cbPihXDkNym4u/lhiDBc6yJ6Oo1iSc4WIejr526UIIfPb8CBQpXjl+64xQee2vdVRUVvRRDWzsuCn5jlxgVBJ1Wy0lIDs/dRe5Zb2hjgkMVkvU3AIi+HtB3TRrcT7T4cGtrK/bv369CV1jtGBebSHBIFxrlNhUi29bW3iG6dJcrOKyjoKIOdz+3DFuOZisVl7HdhKc/2YaXVuzps2PHzwluU3HVOyEuzJ8TkBye5Lf2za3tHABFRAfLJjgKeESsUiYNjhVtf8+ePWhpaVGhK6y2jKQ7CQ6xZRTiCY4oJjiIbJ3kKg4vJjisxtBqxJMfbsazn+5QYsl2QXkd7nt+OdYd7NtT0cQLjcZymwqRRfC45L5KnlL3RQX7iLXd3GpEVX0zB0ERTjotxgyIls0qqLE9pQPALms1ZhMrONLS0mA2yz24WYeDyPZJHhUruS/bUa3aewYL/rIY209cEPuw8cmW41j4zKfILqrq8/Z647jZqzGAKx2JiAAAUUG+Ym3ns/6GUobHh4tvU1YkwXEEQL21GuvOWroqAGUAQq3dIw0NDcjNzUV8fLzMGzeu4CCyeZKFRj1cWYNDQlV9M37/3kYMiw/HL+ZPwPD48D5v02yxYMeJC3hzzUEUVtZZ7Vqzi6rQYTLDSSdTCyMxkq+TRBbBtjU8jVwZkis4WH9DLdLHw5aXl4vWsvwGq2ZZurtZMB0CCQ4AOHnypFiCIyzAG97uLmgwtPFOJbJRBsH9yUxwyDp1oQQ/eelzTB4ch4XTh2J0UlSvfxhoaWvHxsOZWLYjDXllNVa/xrb2DuSWVCNRKCGfEBEAjQawWDjfiMhxabUahAV4i7XPI2LVMlk4wbF582bRrXPfsNWajXU3wXEawEyJXjl58iRuu+02kRHRaICEyCAczy7inUpko5oE6zG4M8EhzmIB9pzOxZ7TuYgN9cNNE1JwzdA4xIT0vBicyWzG8axipJ44j23Hz6NROAl+Nr9cLMHh7qpHeIAPiqvqOdnIgZ8zch8kuIBDDaH+XtA76cTaL6zgM1gVEYE+iA7xFY1hw4YNKnRFI4Cj1mywJys4RJw8eVJ0ZJKimOAgsmWGVsktKqzBoZKLZbV4bdV+vLZqP2JC/DB6QCQGRAUjOSYYUcG+cHf57niZzGaU1TSiuLIBZ/PLcTqnFGk5JUqt7DuXX4GbJ8m1nxgZyAQHOTTJL0olP1TTf0nW3wCAwoo6DoIipgyRXb3R0dGhSv2N7QCsuozaZhIcJ06cEB2ZpKhA3qlENszQJrdFxd2FKzhUlV9e+50lvXpnHXw93eCs6/zA0GhoRXNrO0xmtU8pkD5JJSEyEDtP5XBSkcNqa++Qe53hSkElSNbfAGDV2k/0/aSPh923bx/q6pSYD1bPsnQ3wZGBzmNerH7Qd0VFBUpLSxEWFiYyMjxJhci2SR4T6+HGN562xNhuQkVtk83FnVNSjfYOE5yFvslNjOQXAeTYWiQT6UxwKCEyUC7BUdvYIvpeh75xP7o4Y3hChGgMimxPAYBUazfY3XLrrQCypHpHcptKvzA/6J25/I/IVhnaBBMcXMFBVtDeYUKe4BGBPEmFHF0zt0I6vKhgX7G2uXpDHWOTo8W3jSmS4MgHkG3tRntynpxYlkEywaHTahEfHsA7lshGidbg4AoOspLzRZVibYcFeMPL3YWDQA5LcgWHTqtlHQ4FRAXJreAoqmQNJFVIb0/Jy8vDuXPnVOiKrRKN9iTBcUqqh+QLjXKbCpGtam6VXDrMb9bIOrKLqsTa1miA/vwigPg6I4YJRlkaDRDBBAfngQYYPzBGNIb169er0h0iVU65gqMbkqK4/JbIdt94Si4d5goOso7zggkOgHU4yLFJboUEgAAfDw6CoGBfL7g4O4m1zxNU1JAUFYxgX0/RGBTZnmIGsFOi4Z4mOEQOwsrLy0N9vVx2MimaCQ4im33jyQQHOYCswkrR9hOY4CCHfp1ph1nwrNgAL3cOgqDIIOkTVLiCQwXS21MMBgN2796tQlecACDyrUtPEhy1AAokgrVYLDh16pTcG7eIQOi0Wt65RDZIcgWHuwu3qJB11De3orKuWax9FholR2Yym1Hf1CrWfoAPExySIgK9RdvnCg41TBvWX7T91NRUtLa2qtAVm6Qa7umndbG9IpIJDle9E/qF+fHOJbJBkgkOZycdT2Eiq5HcptI/PABajYaDQA6rusEg1naANxMckkL9vcTabjS0ob65lYMgLMzfSzzRr9DxsGKB2FyCQ7oOR0pMCO9eIhtkEC7+xm0qZC3ZgiepuOqdRN/kE0mrEU1wsAaHJMlnH1dvqGHa8HhI5/g3b96sQldUAjgq1TgTHN3EBAeRbWpqlS3+5qbnNhWyjmzhQqOxXOlIDqyqQW6LWFgAk4uSQv3k+r+oivU3VDBtuOz2lLS0NBQUFKjQFZvQWWRUhM0lODIyMkT3FaXE8KhYIlvU0ia7gkOysjo5FumTVOLCeFQsOa6qerkVHBGBPhwAQaGCCabiqgYOgDBfTzcMjQsTjUGh42FF98n0NMFRhM6lJ1bX0dGBs2fPinVYQmQg9E7cS09ka9o7TDCZxZLJrMFBVpNfUYtWY4dY+7EhXMFBjqumUS7BESlc5NKRaTSyKzjKaho5CMKmDouDViu7P0WR+hsdALZKBnA1R4Kckgr6xIkTYh3m7KRD/3B+O0Vki9raTWJtu+q5goOsw2y2ILe0Rqz9uDB/DgI5rIraJrG23V318PNy4yAI8PdyF/0igwkOedKnp9TU1ODIkSMqdMU+AHWSAVxNgkNsm8qxY8dERy0llnU4iGyRsV3uW21uUSFryiutFmu7HxMc5MBKqmW3CnCbioxgX0/R9pngkOXu4ozRSVGiMWzcuBEmk0mF7hBfRsIERw8kR7MOB5EtamOCgxxEXlmtWNte7i7w53GV5KCKhYs9RgUxwSEhyFf2BBsmOGRNHBQrvhWZx8P+l01uUUlPT5ctNMoVHEQ2qc0ol9lmDQ6ypjzBLSoA0C+UqzjIMdU2tqBZ8NQurqCSEegjl+BoMLSJzjmSPz2lvb1dleNh8wCckw7iahIc2QCapAbx9OnTYp0WHx7A/fRENqiVKzjIQeSVCSc4eFQsOTDJEy1YJ05GgOCqNa7ekKV30mHioFjRGFJTU1FXV6dCdyhxjMvVJDjMANKlAj969Khcp2k1SIwM4h1NZGMkt6gwKUpW/YBV2QBjh9yKJa7gIIe+/wS3qTDBIUNyBUdVXTMHQNDoAVHwcNWLxrB69WpVukOJfTLaq/z7YnU4jh8/LtpxyTGsw0Fka1hklByFyWxGUUWdWPtMcJAjK66US3CEB3rDzcWZg2BlogmOBiY4JEmfnmI2m7Fu3ToVuqIZwG4VArHZBIfkCg4ASGGCg8jmSNbgcOEKDrIyyUKjsdyiQg6sQDC5qNVoWIdDgGiCo54JDsn7bfKQfqIxHDhwAGVlZSp0xw4ArUqMy1X+fbFlFOfOnUNzs9wNnRzDQqNEtqa1vV2sba7gIGvLFSw0GuzrCXd+i0wOKqekWrT9hIhADoKVSZ4cVd1g4AAIGdo/TLT+CqDU9pT1qgRytQmOMxDK1JhMJpw8KbaABLGhfuL7rYioe9raBVdw8BQVsrKLwoVGIwJ5XCU5ppySalgscu0nR3OVsbX5e7mJtV3JGhxipE9PAYA1a9ao0BUWABtVGZerTXC0A0iTCv7YsWNyHafRICmahUaJbEmbkTU4yHFIblEBgMggJjjIMTW1GFFZ3yTWPrdRW//1XfI1njU45EwdKpvgOHXqFHJzc1XoijQARaqMi7YXfodYMQzJBEfnCwi3qRDZkjYWGSUHcrGsBmaz3NfITHCQI8stkVtBlRAZCL0TVw1ai4+Hq2j7NdyiIiIxKgjhgd6iMSiyegNQ5PSUr/VGgkOsDod8goMZciJbIprgYJFRsjJjuwmlNQ1i7TPBQY5Msg6Hs5OOx8VakXSCo66phYMgYMaIePEYVq1apUp32F2CQyzLkJ2djbq6OrHO41GxRLaFNTjI0RRWyB1XyQQHOTLpQqN8j2o9Pp5yCQ6T2YzmViMHQcCMkQmyz5icHKSnp6vQFZUAjqg0Nr2R4MgA0CgRvMViES00GhnoC2/hrC0RdR23qJCjKapkgoNIQlZhpWj7g/qFchCsRHIFR0Nzm2hBW0eVHB2M6GBf0RgUWr2xFoBJpfHpjQSHGcApqQs4elSsBAg0GmBQP9bhILIVkkVG9UxwkICiKrkER6i/F5x0Wg4COaSckmrRpPqw/uEcBCuRTHDUN7dyAATMHJUoHoNCx8OuVm18euudh9g2lePHj4t24KBYZsiJbIWxQy7BrNNqOABkdZIrOHRaLcL8vTkI5JA6TGacL6oSaz86xBcB3u4cCCvwFl3BwQSHtWk0wIyRsvU3ysvLcfjwYRW6ownAdtXGyOYTHJIrOABgcBwTHES2QvJECSctv8km6yuqrBNtPyKICQ5yXBn5FaLtD+0fxkGwAncXZ7G265jgsLpBsaEID5B9bVu9ejXMZrMK3bEBgHKT0OYTHHl5eaisrBSd5FoNv5klsgUmwRcDLVdwkICiynrR/dmsw0GOLLNANsExLJ7bVKzBTTDB0WhggsPaZo5KEI+B21Ou8J67l37PeQB1Uhdx4sQJsQ70cndBdIgv73YiG9Bhkktw6FiLgAS0GjtQ02gQaz8ykAkOclwZ+eWi7bMOh3VIruBobm3nAFiRRgNMHy67PaW+vh67du1SoTvaAGxScZx66x23BYBYMYxjx46JdiIrVRPZBskVHCy2SFIKK+rE2o7gCg5yYLmlNWhpk/sAmhQdBA9XPQeij0mu4JCcX45oaP9whPp7icawbt06GI1KHA28HUCDiuPUm++4xbIM0kVWBjPBQWQTJGtw6LiVjYRIFhoN8fPiAJBDv+ZIruLQabUYkRDBgehjogkOIxMc1jRzpPz2lDVr1qjSHWtUHSe7SHAcOnRItBO5goPINkiu4OAWFZIielSsnycHgBzayfMlou2PHhDFQehjkltUDNyiYr0PzRqN+PaUpqYmbNy4UYXuMANYp+xY9eLvEktwVFZWIjc3V6wTEyICRR9uRNQ1HSa5FRwsMkpSJFdw+Hm5Q++k4yCQw0rLKRVtf2wyExx9zc1FbhtQK1dwWM2IxAgE+XqIxrB27Vq0tLSo0B37AZSpOla9meC4CEDsOBPJVRxarQYDYoJ55xMpTrYGBz/kkYySKrktshoNEOTLVRzkuE7nlopuj4wLC0CAtzsHog+5uTiJtc0aHNajwvaU5cuXq9Idq1Ueq95eMy1WaFS6DsegWG5TIVKd6BYV1uAgIWW1jaLth3CbCjmw5lYjzhdXibWv0QCjkiI5EH1IcpWagQkO63xg1mowTXh7SkNDA7Zu3apKl3yp9Hj18u87KnUhrMNBRFdisQg2zvwGCamqbxZN7jHBQY5Oug7H2ORoDkIfkjwlzdhu4gBYweikKPh7uYnGsHr1arS2tirxSAOQq/J42c0KjpMnT4ruSRoSxwQHERGpx2y2oKq+Waz9YCY4yMGdypFNcEwYGAMuIuw7Oq1cgkMyee1Irhslvz1lxYoVqnTHatXHy25WcLS3t+PUqVNiHRno48Hj8IiISEnltU1ibXMFBzm6Y1lFMAsuIQz08UBSFGvF9RXJFRwdJiY4rDG+U4f1F42htrYWqampqnTJGtXHrLfvyBIAhVIXI71NZTBXcRARkYJkExxM/pNjq2tqwYXiatEYJg6K4UD0EckVHB1cwdHnxiZHw8fDVTSGVatWwWg0qtAdOQDSVR+zvrgjxbIM8oVGQ/gUICIi5ZTXyBUa5QoOIuBoZqFo+xMHxXIQ+ghXcNg3bk/5llW2MGZ9cUeKZRnkV3CE8SlARETKqaiTW8ERzBUcRDginOAY1C9UvEiivdJIFjgRrZ5u/1z1TpgmvD2lqqoKO3bsUKVLVtvCuNlVgiM/Px8lJXKFnJKjg+EseFQUEV3hfQDk3ghoeIwKCSqrkUtw+Hm6iX7DSaSCk+eLRb9t12o0GJfCbSp9wSy4TUSr5bO1L00d1h/urnrRGD7//HN0dHSo0B2lkp/zu3Vf9MHvPA5AbJPQkSNHxDpT76xDQkQAnwZEipJMMkgmV4gkV3BoNJ1JDiJHZmhrx5m8MtEYrhkax4HoAx1mudd3nZZfnvSlG8YOEI9Boe0pXwCwiT1RfZHgaAFwWuqCxOtw9OM2FSIiUotkDQ4A8Pd25yCQw5PepjJ+YAz0zlxp3NtMgitzdFwd13evW15uGJscJRpDWVkZ9uzZo0qXLLeVseuru0KsGAZPUiGiy+EWFXJU1Y0GmAW/ZfT3YoKD6MDZfNH23V2cMS45mgPRy0yCW1R0Gr636CuzxwwQPSEH6NyeYjKZVOiOEgAHbGXs+mrUxJZRHD16VHSf0tD+XMFBpComGchRmc0W1DW1iLXvx+KGRMi4WI6axhbRGKYKF0y0R5IJDicdV+T0lRvGJonHsHy5MosmlsNGtqcAdpjgaG5uxtmzZ8U6NDzAG8E8Eo9ISaJHufGsehIm+cGKW1SIALPFgkMZsqs4rhkaJ/6ttL2RLB7r5uLEAegD/UL9MSA6WDSGkpISHDigzKKJFbY0fn31hLsAoErqoqS3qQzhcbFESpJ8U2fiWfUkrKbRINY2j6ck6rQv/aJo+z4erhgaz/epvamlTW7luPQJH/Zqzjj54qLLly8XPaHnGwphI6enfK2v3u1bAIgdZyJdaJTbVIjU5KST26Ji4goOElbbKLlFhSs4iADgUEa++OvBjBHxHIheZGgVOzwS7i5McPQ2jQa4bnSieBwKnZ6y/KvP9jajL7/OdNhCo0P7h/PpQKQgruAgRya5giOACQ4iAECDoQ3pubLHxV47IgFaHi/aa5rb5BIcHq7OHIBeNjIxEuEB3qIx5Ofni39h/w3LbG0M+/LdvtioZGVloa6uTqxTk6IC4ebCBw6RanSiNTgsHAASJbqCw5tbVIi+tu/MRdH2A7zdMSIhggPRS5pbBFdwcItKr7thrPz2lM8++wwWixLvG3MBnLC1MezrBIfIV5Zms1k066XTajEwNoRPCCLFiBYZ5QoOEsYaHERq2H0qVzyGmSMTOBC9xNDWLtY2V3D0Lr2zDtOHy2/h+uyzz1TpkmWwse0pQN8mOOoBZEpd2P79+0U7lnU4iBR84AmeF29mDQ4SVtMgl+Dw8+QWFaKv5ZXV4GJZrWgM146I52kqvaSZNTjsxtSh/eHpJtunx48fx5kzZ1TpkhW2OI59/WQTW0Yhn+BgHQ4i1XAFBzkyyWNi9c466J11HASir+w6lSPavq+nG0YmcZtKbzC0yq3g4BaV3qXC9pQlS5ao0h1ZANJscRztNsFx+PBhdHTIHds0tH8YCzgRKUby2yoza3CQMMkaHADg6ebCQSD6yq40+W0qs0cncSB6geQKDm5R6T1+Xm4YlxItGkNHRweWLVOmpudyWx3Lvn63L3acSXNzM9LS5JJOHq56xIX582lBpBCu4CBH1mBoFW1fetkvkUrOXixDRW2TaAzXjoiHq96Jg3GVDG0sMmoPZo1OFH2fCADbtm1DWVmZKl2ywlbHsq9H8QyABqmL4zYVIvom0QQHa3CQsOZWIySLsntxBQfRf1gswJ7TeaIxeLjqMXVYfw7GVZLcouLBBEevuWGM/PaUxYsXq9IdZwCctdWx7Ot3+yYIHi3DQqNE9E2S31S1d5g4ACTKbLagRfCbRm5RIfq2ncJ1OABgzrgBHIirJLlFxdfDlQPQC6KDfZEifAJmc3Mz1q5dq0qXLLfl8bTG15li21T27dsn2rnD4rmCg0gleme5BEdbewcHgMQ1trSJtc0tKkTfdiyrSLT4LwCMTY5GsJ8nB+MqGCQTHJ5urPnXC+aOTxaP4fPPP0dzc7MqXfK5LY+nXSc4SkpKkJ+fL9a54QHefNEgUoiLYIKj1cgEB8lrapF7I+7lzhUcRN9kMpvFT1PRajSYPTqRg3EVGgxyiWOtVsNVHL3QhyqsZFJoe8opAJk2PaZWaOMAALFdv9LbVIbEcZsKkSokt6gY27lFheRJJji4RYXou7YdyxaPYe74FA7EVahpMIi27+/tzkG4ChMGxiDEz0s0hpKSEuzatUuVLllh62NqjQRHJQCxpzfrcBDR11ycdWJtc4sKqaBR8JtGTxbDI/qO49nFqKqXXZYeF+aPAdHBHIweqmlsgVmwgrO/FxMcV+OmCQPFY1iyZAlMJiW+CLOACY4uOyB1gTxJhYi+xhoc5OiaRGtwcAUH0f8yWywsNmrjTGazaPKYKzh6ztfTDZMGx4rHsWTJElW65CCAHFsfV2slOMSyDOnp6aivrxfr4KSoQLi7OPMJQqQAFyY4yMFJblHxYJFRokvadvy8eAyzRyeJHqVu62oa5bap+Hu5cQB6aO74ZOiddKIxpKWlIT09XZUuWWIP42r3CQ6z2YzDhw+LdbBOqxU/doiIOsluUWENDpInuYJD8v4jUtmp8yWoqGsSjcHPyw0TBsZyMHpIsg4Ht6j0HIuLfosRwEp7GFdrJTiy0FmLQwTrcBARALjq5VZTtRrbOQAkTnIlkfS3ZESqMlss2HwkSzyOueO5TaWnJI/75RaVnhncLxQJEYGy977ZjGXLlqnSJRsBVNnD2ForwWGB4HGx0gmOYfGsw0GkAslvkHmKCqlAciWRZA0cItWtP3hOPIbJg/vBh0eO9ghXcNiemybKnx6UmpqK4uJiVbpksb2MrTU324llGQ4dOoSODrlvrYb2D4dOy32NRNIkP2C1GlmDg+RJzkNXJjiILiu3tAaZBRWiMTg76XDDWK7i6AnRGhxcwdFtbi7OuG5UongcChUXrQWwwV7G1yESHM3NzTh9+rRYJ7u7OCMpOohPEyJhHq5yW1SMHVzBQfKMgsl+Fz0THETfZ8OhTPEYFkwZDI2GY9FdNQ1yW1QCvFlktLtmjIiHh/DR5c3NzVi9erUqXbICQJu9jK81ExxHJTtOepvKiIQIPk2IhEkeU2loNXIASJxRdIsKa3AQfZ/NR7PQYTKLxhAb6ofhfM/abZIrOAJ9PKDVMivVHTdOkN+e8sUXX6CpqUmVLlliT+NrzQRHG4ATUhfKBAeRY9NoOpckSmligoMUILlFxcWJKziIvk9tYwsOnL0oHseCyYM5GN0kWYNDp9Ui0NuDg9BF0cG+GB4v/7nsww8/VKVL8iG406IvWLswhFjn7du3T7Sjh8WHQ8s1f0Ri3F30ovdgcwsTHCRPcosKV3AQXdn6g/LbVKYP7w9/L2576I5qwRUcABDs58lB6KKbJqSIb8PKzc3F3r17VemSReg8EMRuOEyCo7i4GAUFBWId7e3ugviIAD5ViIR4uAnvteQKDlJAm+QKDhYZJbqivel5qG9uFY3B2UmnxBJ+W1JV1wyL4EfEECY4ukSn1WLOuGTxOD744ANYLMrkFD61t3G2doJjHwQzRNKrOEYkcpsKkRRPVyY4iCSPiXXhCg6iK2rvMGHbsfPicdwyeRBXHneDscOE2ia5QqNMcHTNhIExCPKV3c5jMplUOj3lMIAsextnayc4qgBckLrYPXv2iHY263AQyZGslm02W9BqbOcgkLgOk1yCQ8MPS0RdsuHQOfEYIgJ9MDY5moPRDRW1jWJtB/sywdEV8ybKr0zavHkzCgsLVemSxfY4zlqBNsW2qUgnOIbHR/DoLSIhkltUmlqNsFg4BiRPch4ywUHUNel5ZbhYVisexy1TBnEwuqG8Vu5EDNbguDJ/LzdMGtxPPA6Fiot2AFhpj2PtUAmOzMxMlJeXi3W2n5cbYkP8+YQhEiC5goPbU0gVknk25jeIum7jYflio1OG9OPKgG6QTHCE+nlxAK5gzrhkOOm0ojFUVVVhw4YNqnTJJgAV9jjWDpXgsFgs4hVrWYeDSIanm4tY200tbRwAUoJkUTMNmOEg6qr1h87BbJZd+qfTajF/0kAORhdV1HEFh6o0GmDeRPm5vGjRIhiNynzptdhex1siwZGJzlocIliHg8gxia7g4BGxpAjRj0vMbxB1/cNybROOZsnv058/cSB0Wi0HpItjJiXI1wNaLR+ylzMyMRKxoX7icSi0PaUBwHp7HW+JJ5YFwCGpC969e7fwDcYEB5EET8EaHIZWFhglRYiu4CCi7vhizxnxGIL9PDF5SD8ORhdIblHRabUI9PbgIFzGgimDxWM4dOgQMjIyVOmSFQBa7HW8pVKyYttU0tPTUV1dLdbhgT4eiAry5ZOGyMp8PV3F2m5q5RYVUgOLjBLZjt1puaisaxaP445pQzkYXVAueIoKwG0ql+Pv7Y6pQ+PE41Bo9QZgx9tTAAdMcFgsFuzfv1+004cnhPNpQ2RlPh5uYm03cYsKKcIiuEmF+Q2i7jGZzVh7QP4b39FJkUiMDOSAXEFFXZNoEjnUn4VGL2X+xIFwdtKJxtDc3IwVK1ao0iX5APbZ85hLJTiOAmiVumjW4SByPJIrOOqaWjgA5PBYZJSo+1btPSNebBQAFk4fxsG4AmO7SfT1ngmOS3zQ1WiUKJS7cuVKNDQ0qNItHwMw2/W4C7Xbis4khwjpOhw8SYXI+nw85BIc9c2tHABSApMMRLalvLYR+85cFI9j9pgkBHi7c0CuQPIklRBuUfmOCYNiEB7gLR7HRx99pEqXWAAssvdxlyyLLJZlOHnyJOrr68UuPDzAm1lWIivz85LbolLXxAQHqcHZWW6ZbrvJxAEg6oFVe9PFY9A76ZQo1Kg6yToc/GzxXSrM2ezsbOzbp8yOkFQAufY+7pIJDrF9IiaTCQcPHhTteG5TIbIuyRoc3KJCqnDWyb3st3eYOQBEPXDgTD5KquWXt996zRDonXUckO9RVsMEhypC/b0wcWCseBwfffQRLBaLKt3yb0cYe8kExwEAYmcnSm9TYaFRIutxcXaCq95JrH1uUSFVSBZaa+/gCg6injBbLFiz76x4HP5ebpg1KpED8j3KauS2qIT6McHxTbdMHgStVnZbZkdHBxYvVubAkjoAaxxh7CUTHM0ATkg1Ll1odGRCJJ88RFbi6+km2j5XcJAq9ExwENmkL/efRYdJfhXUXTNG8ESk7yG5gsPPy030yxyVOOm0uHF8ingcmzZtQklJiSrdsgSAQ7wh1Qq3L7aM4tixYzAYDGIXHh3ii0AfDz6BiKxA8gQVgCs4SKU3fazBQWSLqhsM2HUqRzyO+IgAjOCXdJdVJliDAwBCuIoDADB1WH8E+cp/zlKouCgAfOQo4y+d4BBbRmE0GsXrcIzkaSpEVuEjmOAwmc1oamnjIJASnJ1Yg4PIVn2xJ12JOO68dhgH4zIkV3AArMPxtVsVKC5aWlqKDRs2qNIlpwGcdJTxl05w7AMg9pWO9DaV0UlRfAIRWYGvYIHR+qZWqFNbihydaA0OruAguipHs4qQW1ojHsfkIf0QGeTDAbmEqvpm0a1ETHAAMSF+GJkov8rovffeQ3t7uyrd8p4jzQHpBEc9gDSpxqULjY4ewCV+RNYguUWljttTSCE8RYXItqlQbFSr0eCOaUM5GJdgNltQUSdXaDTEz9Phx2DBlMHidWJMJpNK21NaAXzmSHNAq0AMYssoDh06hNZWuQ8fEYE+CA/w5qsBUR+TrHfDAqOkEndXvVjbLDJKdPXWHcyAoU3+W+F5E1Lg5e7CAbkEHhUrx8XZCXPHDZC/T9etQ0FBgSrdshpArSPNA4dOcLS1teHo0aOiFz8qias4iPqabIKDKzhIHR6CCY5WYzsHgOgqNRrasP5ghngc7q563HbNEA7IJTDBIee6UQnw9nAVj+Odd95RqVs+crR5oEKCYzcAsXWr8ttUWIeDqK9xBQdRJ8kER3OrkQNA1AuW7UiDWYHiTgunD4OLM48l/V9McMhZoEBx0dzcXGzbtk2VLrkIYIejzQMVEhw1AMRS0fKFRiN5njhRHwv2lduTWlXfzAEgZUgmOJpamOAg6g0FFXXYf+aieBz+Xm64cUIyB+R/lNfK1eAI9fdy2M8ViZGBGNQvVDyOd999F2azMjWnPobgQgIpWkXiEFtGceDAARiNcm+6An08EBviz1cDoj69z9zF2maCg1Ti4cYEB5E9WLr9lBJx3DNzJHRaLQfkGyRXcOiddPDzcnfIfr9tqvyWqba2Nvz73/9WpUvM6ExwOBxVnkhiyyiam5tx5MgR0YvnaSpEfcfZSQcfwWNiK+uY4CB1cIsKkX04klmI7KIq8TjCA71x7Yh4Dsg3SCY4AMfcpuLt7oLZo5PE4/j8889RWVmpSrekAsh3xHvQ4RMcALBjh+zWpFFJrMNB1FcCvd1Fl2tWcgUHKcRTMMFhYIKDqFct35mmRBz3zR7F7dbfUCqd4PBzvATHLVMGw83FWTwOFhdVgyoJjjIA2VKN79y5U/TiRyVGQMtXBqI+IVlgFACqmeAghUhuUeEKDqLetelwJmoaDOJxJEYGYlxyDAfkK4ZWIxoNbWLtO9oKDq1Wg1smDxKP49y5c9i/f78q3VID4EtHvQdV2jQnWofDYJB7gfD2cEViVBBfEYj6QJBggVGz2YLqRgMHgZThI3h8HmtwEPUuY4cJX+w9o0Qs984ayQH5hrJayZNUPB2qr6cPj0d4gLd4HG+++SYsCpxu9JUlAFod9f5jggOA0WjEgQMHRC9+dBLrcBD1BckVHFUNzTCbLRwEUoafl1w9mqbWNg4AUS9buSsNxnaTeByjkiIxJC6MA/IVHhVrPQunDRWPwWAw4NNPP1WpW/7tyPcfExxfka/DwQQHUV+QPEGluoGrN0gd7i7OcHF2Emu/ycAVHES9raaxBduOZysRy90zR3BAviKa4HCgGhxJUUEYFh8uHsenn36Kuro6VbrlMIBTjnz/qZTgKAKQJ9W4dIJjeEIEnHQ8Zouot0luUamsa+IAkDL8vWWPDmTCj6hvfKbIkbHThvVHXJg/BwRAea3c678jreD4wfRhSsTx7rvvqtQt7zj6/afaJ2qxVRzHjh0Tzby5uzhjYGwIXxGIelmIaIKDBUZJHX6ebqLt1za1cBCI+kBWYSVOnC8Wj0Oj4SqOr0mu4PDzchddrWe963TDdaMSxeM4cuQIjh8/rkq31AJY7uj3n2oJDrHjYk0mE/bu3St68aMH8LhYot4WHihXeKqKJ6iQUm8G5VZwtLV38JhYoj60ZNtJJeK4fkwSwvy9HH48JBMcGg0Q4mf/hUYXTBkMvbNOPA7Fjob9BIDDf5ugWoJju2Tj8sfFsg4HUa8+4DQa0Rf5qnouySd1+HvLreCobeTqDaK+tDc9F7kl1eJxODvpcO+sUQ4/HpIJDkC2wLo1OOm0ShwNW1dXh+XLlVow8T6fhuolOAoA5Eo1Ll2HY0j/MIdYUkZktRd4Xw84O8ll9yvrWYOD1OEruEWF21OI+pbFAizedkKJWG6amIJgP0+HHo+KuiaYzGa59z92nuCYMTIBwb7yc+zjjz+GwaDMl1k7AGTwaaheguPrwRFx+vRplJeXi1243kmHofE8Youot0QIn4teUt3IQSBlSL4ZrGGBUaI+t+lIFkpr5F939E463DNzpEOPhdlsEa3DJXmCnDXcocDRsBaLhcVFFcUEx/9M1N27RU+r5TYVol4UJpzgKKtu4CCQMiQr69dwiwpRn+swmbF0uxq1OG6ZPAhBdr6K4EoqBE9Ss+cVHCkxwRjcL1Q8jq1btyIzM1OVbikDsIZPwU4qJji2A7BINS5dh4OFRol6T1iA3Ae62sYWGNraOQikjFDBJeN13KJCZBWr951V4n7TO+sc/kQVyTpc9pzguPPa4UrE8dprr6nULR8C4JvOr6iY4KiA4P4h6TocKTHB8HDVc2YS9YJwwRUcJVy9QYoJFbwfKutYj4bIGlra2rFi12klYlkwZTD8vdwcdiwkT1IL9LbPBEegjweuHREvHsf58+exefNmVbrFDOADPv3+S6toXGJZhuzsbBQUFIhduE6rxUhuUyHqFWFMcBABANxdnOHt7iLWflkN69EQWcuynWlKrCB01TvhrhmOu4pDNMFhpzU4bp0yWLR4/Ndef/11mAWLyP6PjQAu8sn3X6omOET3iezatUv04selRHNmEvWCiEC5BEcpExykkFDpejRMcBBZTUNzK9buV+MwhdunDoGfg67ikE1w2N8KDr2TTomjYRsbG/HJJ5+o1DUsLvo/VE5wmKQal96mwgQHUS883LQahPjJ1eDgCg5SSai/7HF6THAQWdfibSfQYZL/htnNxRk/mD7MIcegqkEuweHl7gq9s86u+nPW6ET4e8uvTPnwww/R0KDMe7wCAJtB3/4MoGhcdQBOSTUuneCIDvZFRKAPZyfRVQjy8YSTTu4RV8ojYkkhYf5yKziM7SbUssgokVWV1zZi67FsJWK5Y9pQ0S1yUqoEj4nVaIAAL/vapqLC0bBmsxlvvvmmSt3yLgQXBahKq3Bs26UaLiwsxPnz50UvfmwyT1MhuhrhgieoAEBJFVdwkDpiQnzF2i6rbYTFwjEgsrZPthxX4t7zcNVjoQOu4pDcogIAAXa0TWV0UiQGRAeLx7FhwwZcuHBBlW5pB/Axn3TfpXKCQ7QOB7epENk2yQKjFgtQWsMEB6kjOthPrO0yrmYiEpFTUo19Z/KUiOXOa4fD28PVofq/rqlVdJuQPdXh+OF1I5WIQ7GjYVcBKOGT7rtUTnDsAWCUanznTtH8CkYnRUGn1XKGEvVQkK/cC3ttowGtxg4OAikjOthXrO2yWiY4iKT8e/MxJeLwdNPj7hnDHarvzRYLahoNYu3by0kq/cMDMD4lRjyOjIwMbN++XaWuYXHRy1D5E7QBwBGpxnfu3AmL4Lo+L3cXDOwXwhlK1EMsMErUyUmnRThPFCJySKdzSnE0q0iJWBZOHwZ/BztRpapeLsHhYycrZn44cwQ0Gvk4Xn/9ddHPhv8jE8BuPuEuTfUlAmL7RCoqKnD69GnRix+XzG0qRD0V6s8EBxEAhAd6ixbczS+v4yAQCfpgwxEl4nB3ccbdM0c6VN9L1uHwdrf9BEewrydmjU4Uj6Ourg6LFy9WqWveAcDqVpeheoJDdJ/I1q1bRS+eCQ6ingv1kzsWkyeokEpiBOtvAEBhRR0HgUjQ8ewinDhfrEQsd0wbgiA7qg1xJTUNcis47KHmycLpw+DsJH/c7fvvv4/m5mZVuqUFwGLQZame4DiIzq0qIqQTHIP6hTrksVpEvSHIVy7BUVHXxAEgZcSEyiY4CpjgIBL3wUY1VnG4ODvhnlmOs4qjwdAq1ratf4Zwd9Xj5kkDxeMwmUx4++23VeqazwDU8Kl2eaonONoA7JdqfO/evaLZOq1Wg1FJkZylRD14A+XrKbfPt6yGKzhIHYmRgWJtV9U3o7nVyEEgEnbkXCFOXVDjwIUFkwcjWHCVpTU1GNrE2rb1FRwLJg+ClwJJmi+//BJ5eXkqdc1roO//DG0DMYptU2lra8PevXtFL36cAlWDiWxNiL+naEGq8lqu4CB1xIcHiLVdwPobRMr4aPNRJeLQO+vw49mjHaLPG5q5gqMnnHRa3DFtqBrZBLWOht0J4DToe9lCgmOHZOPbtm0TvfhxKazDQdRdIb6y3wyV81hMUoROq0VsmL9Y+/kVtRwEIkUcOJOPjIvlSsQyf9JARAT62H2fi67gsOEio9eNShQtFv+1M2fOYM+ePSp1DVdvdIEtJDiOAaiTanzLli2iFx8e4I3oYF/OVKJu8PeWO/vd2GFCXVMLB4GUEBPqB71ggbbCinoOApFCPtioxioOJ50W999g/6s4JFdw2PIxsXfPGK5EHK+88opKR8PmA1jHp9iV2UKCwwRAbJ/I2bNnUVhYKNoBXMVB1D2ebnLLMitqm2DhwV2kCMntKQBwsYwrOIhUsud0LjLyK5SIZe64ZMSE+Nl1f0uu4NA76+Di7GRzfTY+JQaJUUHicVRVVWHp0qUqdc3rX30upivQ2kicottUUlNTRS9+LI+LJeoWD1e9WNsVrL9BCkkQLDAKABeKqzgIRIr5WJFaHFqtBg/MGWPXfS25ggOwzTocd89UY/XGu+++i5YWZVbkNgP4iE+vLj5bbCTO7ZKNS9fhGJ0UCSedlrOVqIs83eQSHHXCb2aIvik5Olis7aYWI0prGjgIRIrZeSoH5xVJPs4anYgkBb6t7yuSx8QCtneSSkJEIMYMkP9it62tDW+++aZKXbMIAJdEdpGtfGo+A6BUqvFt27bBbDaLXby7qx5D4sI4W4m6SDLBwSMxSRUaDZAcI5fguFBcxe1aRAqyWICPFKnFodVo8PN54+22r5tbjTAJfoawtRUc984aKXoK3n+yCYsWobS0VJlbFp3bU6irzxVbeRYDENsnUlVVhZMnT4p2ALepEHWdZA2OppY2DgApISrYV7TI3HluTyFS1vYTF5BdpMY9OnFQLEYnRdplP1ssQKPkSSo2tIIj2M8TM0YmKDBmFrzyyisqdc1WAOf41Oo6W9r3sFWycenTVFholKjrJGtwNLdwBQepYWBMiGj7F4qrOQhEijJbLPhgw2Fl4nn45olKfHPfFxqa5RIcku+HuuvuGcOV2JK/du1anDunVD6BR8N2ky0lOLahcyWHTOPCdTiSY4Lh6+nGGUvUBdyiQgSkxMomOLiCg0htO0/lIONiuRKxDIwNwdSh/e2ynxsFV3a66m3jFBUPVz1umjBQiVhefPFFlbrmAoDNfFp1jy0lOMoBpEk1fuDAATQ1yZ2OoNVo7Hb5HlFvc3dlgoNooGCCw2IBcriCg0hpFgvw/oYjysTz8M0ToNPaX1H9lrZ2sbZt5ZjYW68ZLPrl1NcOHz6Mffv2qdQ1rwEwg7r3udnG4hXbpmI0GrFr1y7Rix8/MIYzlqgLPFzkXiSbuEWFFODspBM9maCwso7JPiIbsDc9D+l5ZUrEEhPih7njk+2uj9vaO8TatoUVHHpnHRZOG6ZELP/85z9V6ppGAJ/wKdV9THB0g/Q2lQkDY+x2fyJRrz7YtHI3iqGNH+pIXkpMsOg3d6oseyeiK3t33SFlYnnoxnE2s62iq1qNcgkOW1jBMX/iQAT5eojHkZubiy+//FKlrvkIAM9a78nnABuLdy+AZqnGpQuNBvp4IDEyiLOW6AokE4FmnotJChiZKLul8czFMg4CkY04lFGAE9nFSsQS5OuB26cOtav+bTUKblFRPFnkpNPi7pkjlIjlxRdfhMlkUqVrLADe4tOpZ2wtwWEEsEeq8aysLOTl5Yl2wMRBsZy1RCpjfoMUMCw+XLT9jIsVHAQiG/LW2oPKxPKj2aNs6njTK5FcweGmd1a6b24YOwDhAd7icVRXV2PRokUqdc0GANl8MvWMLVbyEd0nkpqaKnrxk5jgILoiDbiXixyXTqvF0P5hYu13mMzIKqzkQBDZkFMXSnA0q0iJWLzcXXDvdSPtpm8la3CocOzqZT+EajW4b9YoJWJ5/fXX0dzcrFL38GjYq5lbNhizQ9fhGNQvlMfFEhHRZSVFB8FD8CShC8VVom/oiahn3lZoFccPpg9DiJ+XXfRrh0luaadkTbIrmTEiAdEhvuJxGAwGvPWWUrtBMgCkgno+720w5rMAxFLMqampovuztFoNxqdEc+YSEdEljUiIkH1nls/tKUS26HROKQ6cyVciFr2zDg/MGW0X/Woyy53yqeoKDo0G+NH1aqze+Pjjj1FZqdSqwzfADc9X93nZRuMWW8VRW1uLY8eOiV78BG5TIbrCK6dc06wxStLGJkeJtp+eW8pBILJR76w7qMzr2E0TUhAT4mfzfWoyySU4dFo1P+pNHhyHhIhA8TjMZjNeffVVlbqmFsAi0FWx1QSH6D4R6dNUJg6MUXrJGZE0jeAxKhYm3UmQ3lmH4fGyKzhOnC/hQBDZqIz8Cuw8dUGJWHRaLX4xf7zN96nk6Wqqfl64b5YaNVZWr16N8+fPq9Q1b0HwxFB7YcsJDrF0qHSCw9vDFYP7hXL2Eqn4AdPJiZ1AYobFh8NV8FjAitomFFfVcyCIbNgbaw6Ibqv4punD4zEkLsym+1OyL1VcwTE2ORpD+qsxpi+99JJKXdMG4E0+ga6erSY4qgGckGr88OHDqK6uFu0AHhdL9D2vEIJHsnm4OnMASMy45BjR9k+cL+YgENm4gvI6rD2QoUw8D988wab702SWW8HhpFNvBcf916tRW2Xv3r04ePCgSl2zCAD3ePYCrQ3HLlaHw2QyyW9TYYKD6LKaW41ibXu46TkAJGaccBFqJjiI7MN76w6j1ajGaUgjEiIwPiXGZvtSK7ht1mxWa9vs4H6hGJEYoUQsL774okpdYwHwKp88vXTP2XDsosfFbty4UfTiEyODEOzryRlMdAnNLXIJDncXJjhIRqCPh3jRtpOsv0FkFyrrm7F8Z5oy8TyyYKJoouCqPmwJ1sEwK1b5/ME5Y5WIIysrC+vXr1epa9ah83hY6o17zoZjPwCgQarxTZs2iR4Xq9EAEwbFcAYTXUJzm+AKDlcmOEjGlCH9IPn+v7axBRfLazgQRHbi4y3H0NDcqkQsCRGBuG50om1+2BJ8MHeYzMr0w4DoYIwfqMZnlxdeeAFms1mlafICnzi9eM/ZcOztAHZLNV5TU4PDhw+LdsCEgbGcwUSXILmCgwkOkjJpcD/R9o9nF/GYZCI70mhow8dbjisTz89uGgdnJ53N9aNkoU+Vtqj8+PpRUGERTmFhIRYvXqzSFDkKYB+fOL1Ha+Pxix4XK71NZVxKNPQ2+KAn6muSNTjcWWSUBLg4O2HMgCjRGA6fK+RAENmZZTtPoby2UYlYIgJ9cOuUwbb3YYtbVNAv1B9Th/VXIpZ//vOfMBqNKk2R5/mk6eV7zsbjF630KZ3gcHdxxrD4cM5iov8hmeDwdnfhAJDVjU2OFj0eFgAOZeRzIIjsjLHdhPfWH1EmngfnjoW3h6tN9aFOMMFhUmQFx4+uH6VEDZXy8nJ8+OGHKk2PHABr+KTpXbae4MgGkCfV+KlTp1BcLFsxnqepEH2XZIIjiMV/ScA1Q2W3p+SX16K0ppEDQWSH1h3MQG6pGvV1vN1dcN+sUTbVfy7OcslnkwI1OCICfTBLkfopL7/8MlpaWlSaHi8BMIF6ldYOrkFsm4rFYsHmzZtFL54JDqLvkkxw8HQjsvoLuVaDycL1Nw6fK+BAENkps9mCt788qEw8P5g+FJFBPjbTf24ucltXVTjq995ZI0XrkHytpqYGb7/9tkpTowbAIj5h+uB9kR1cg0NvU4kN9UNUkC9nMtE3XzEa5LLzAd7uSryQk+MYmRABf2930RgOZTDBQWTPdp7KwemcUiVicXbS4Wc3jbeZvpPcPthibBe99hA/L8wdn6zEOLz++utobFRqpeEbAJr5dOl99vAufCuANrHGt25FW1ubaAfwuFiib6usa5J7qGo1CPBx5yCQ1Vw7IkG0/Q6TGcezizkQRHbu9dX7lYnlulGJGNI/zCb6zVUvuYJDNsFx/w2jlTgQobm5GW+88YZK06IVwFt8qvTRe3E7uIYmAGJP3KamJuzbJ3uyz0QeF0v0LeWCCQ4ACOE2FbLWi7hWg2nDZSvTn7xQIrotjIisd68fOKNGMWGNBvj1gklKHDt6JZJbVFra5LaohPp74UZFVm+8+eabqKqqUmla/BtAOZ8qffTeyE6uQ3SfiPQ2lVFJkeLV84lUUlXfLHr2OwuNkrUMj49AgPD2lD1puRwIIgfx2up9yhw9OiQuDFOH9le+z9wE36NLruB44IYxcFZg9UZrayteffVVlaaEGcArfJr0HXtJcGyQbFw6waF31mF0UhRnM9HXrxxmC6oa5LY1hvgxwUHWMWNkvHgMe07ncSCIHMSF4mpsOZqtTDy/WjBJiQ/R30fyWFupIqPhAd6YM26AEv3/wQcfoLS0VKUpsQbAeT5N+o69JDgy0XmOsEzjmZnIyckR7YDJQ/pxNhN9Q2WdXIIjOsSXA0B9ztlJh5kjZetv5JRUo7iqnoNB5EDe/vIgjB1qnGwZGeSDWyYPUrq/fAQTHC1tMis4Hpw7VonEU3t7O1588UXVpsSLoD5lT6X+N4k2vkm0eUwZ0s8m9iESWUt5rVwdjrgwfw4A9bnJg2Ph6+kmGsNubk8hcjgl1Q1YteeMMvH8dO5Y0VUS3/tBS6uBl7uLWPv1za1WbzMqyBc3jE1Sov8XL16M/Px8labEfgAHQX1739nRtTh0HY5AHw+kxIRwRhN9RfIklX5hARwA6nNzxskXb9vL7SlEDumDjUeUKS7s7eGKe68bqWQ/ebu7Qiv4DWSdQILjwbljoNPKf8Q0mUx4/vnnVZsS/+TTo+/ZU4JjJwCDWOM7d8JgMIh2wDVD4zijib4iuYLD38tN/Jt1sm9+Xm6YOChWNIbqBgPOXmQReCJHVNfUgk9TTyoTzw+mD0OYv5dy/eTr6So+TtYUHeyLWaMTlej7FStWIDs7W6XpkAVgPZ8efc+eEhyt6ExyyDTe2oodO3aIdsDUYf05o4m+UlQpWxeA21SoL80anQgnnexL+I6TF5Q5TYGIrG/JthOoaTAoEYveWYefz5+gXB9Jbp2xWIBGQ5tV2/zpjeOUWL1hsVjw3HPPqTYd/onOE1Soj2nt7HoceptKXJg/ixsSfSWvtEa0/X5McFAfmqvA9pTtJy5wIIgcmKGtHR9uOqpMPLNHJyElJlipPgoWPDa+udWIdisWg40L88fMUQlK9PvatWuRnp6u0lQoBLCETw3rsLcEh+iyn/Xr5VcdTRnCbSpEAFBYWWfVF/ZLvdAT9cncCg/AgGjZN/E1jS04cb6Yg0Hk4L7Yk46CijolYtFogF/fOlmp/pFMcFh7e8qDc8eK1hv5JgVrbzwPwAiyCntLcBQAyBD7QFVYiLNnz4p2AOtwEHXqMJlRKPimKzk6mINAfUKF1Rs7T16A2cztKUR8rTXjzTUHlIlnREKEUu+Fg309xNq25gkqceEBuHZEvBJ9vm3bNhw8qNRBJeUAPuLTwnq0dnhNGyQbl96mMjQuDH5eLG5IBAC5gttUBsQEQ6/AGfBkZy/aGg1mK1DAjdtTiOibz4NTF0qUieeRWyaK1yj6Wohg4VNrFlt/6EZ1Vm88++yzqt0iLwFo4ZPCiu+V7PCaRDMM0ttUtFoNJg/ux5lNBNkEh95Jh4TIQA4C9aqxydEI9vMUjaG2sQXHs7k9hYj+619f7IMqNYdjQvxw86RBSsQSIvi8rrBSgiM+IkCZgw7279+PXbt2qXRr1AB4h08IK38etsNr2gegTvLGqqysFO0AblMh6nSxrFa0/SFxYRwE6lW3TJF/077laDZMZhaCJ6L/Ss8rQ+qJ88rE85O5Y+HhqhePQ7IGR0WddRIcP7tpvDKrN5566inVbo1/AWjkE8K67DHB0QEgVapxk8mEDRtEd8lgXEo0XPVOnN3k8HJLq0XbH9QvlINAvSbQx0OJFXobDp3jYBDRd7y+ej+MgsW9v8nPyw33zhopGoPeSSea4Civ7fvP1QOig5U54GD79u2qrd5oBPA6nwzWp7XT6xLdpvLll1+KXryLsxPGDIjm7CaHV1BeJ/pN8+A4Jjio99wyeZD4vvLckmqcK6jgYBDRd5RUNWDlrtPKxHPXjOEI8ZOrgREV7AutVm5lgzW2qPz0xrFQZPEG/va3v6l2S7wFoJZPBuuz1wTHJgBiOwG3bt0Kg8Eg2gFTh3GbCpGxw4TzRVVi7YcHeCPA250DQVdNp9Vi/qSB4nGsP5TJwSCiy/pw4xGrnt7xfVycnfDTG8eKtR8T4id6/X1dZDQ5OhiTBqlR92/r1q3Ys2ePSrdCKzq3p5AAe01wlAE4IdW4wWBAamqqaAdMGdJPNGtMpIr0vDLR9kclRXIQ6KpNHRYnutQZAMwWCzYfzeJgENFlNRja8NGmo8rEM3d8MpKigkTajgnxFX1eV9U392kbP58/XpnVG3/5y19UuxXeB1DKJ4IMrR1fm2ghDOltKr6ebixwSAQgPVc2wTE+JYaDQFft1muGiMdw+FyB1aryE5HtWrHrNAor69T4oKPR4OGbJ4i0HS24gqO8tqlP66GMSIhQ5v3Nxo0bcejQIZVuASOAF/gkELzv7fjaNkk2vn79ephMsoWWeJoKEXBGeAXH+IExynzDQbYpKsgXoxLlVwKtP8jiokR0Ze0dJry15qAy8YxPicG4FOvXposJ9hW75oLyvi39IJU0upSnn35atVtgEYBCPgnk2HOC4wgAsUpoFRUVOHhQ9uHOOhxEQGFlHWobW8TaD/B2R3x4IAeCeuy2qUPEk2TNrUbsTsvlYBBRl2w7fh5pOeqs0P/VgklWPcpUq9EgPiJA7Hrzy+v67HdPH95fmVXia9euxZEjR1Sa+iYA/+QTQJY9JzjMALZIBiC9TSUqyBf9Qv05y8mhWSzAmYvSqzh4qhH1jIuzE+aOGyD/YeXYebQaOzggRNRlr36+FxaLGrEkRATiBis+SyODfeDuqhe73oKKvlnBodVq8NBN4xV5f2fBM888o9q0Xw7gPO9+WVo7vz7R42LXrFkj3gFcxUGkQB2OgbEcBOqRWaMT4e3hKv9iepinpxBRN19788qw4+QFZeL5+bzxcNU7WaWtpMgg0Wst6KMVHDeOT0FcmBpfnq5ZswZHjx5VacpbADzHO1+evSc4NqGz0IuICxcu4Nw52T3LrMNBJF+HY2j/MLi7OHMgqNt+cO0w8RiKq+px8kIxB4OIuu21Vfv7tNhldwT7euIH063zTJU6ueVrF/ugBofeWYefzB2jRibBYlGx9saXAM7wrpdn7wmOegC7JQOQXsUxMDZU/GhBImlnLpajw2QWa1/vpMOkwf04ENQtY5KjkBAhX79l3cFzyiwzJyLbUlxVj893pysTz49mj4K/t3uft5MouILD2GFCWU1jr//ehdOGIsTPS4lx/Pzzz5GWlqbadH+Wd7watA5wjaKFMKTrcGg0wKTBsZzp5NAMrUakC6/imDEygQNB3XL3tSPEYzCZzfhy31kOBhH12AcbDqOhuVWJWNxd9bj/+tF93s6AaLkER15pDczm3s1Ke7rpce+sUUqModlsVrH2xhYAR3m3q8EREhxr0LknSsTRo0dRWipbRZrbVIiAg2fzRdufNCgWHoIFx8i2xIT4YZwCxWl3nMxBZX0zB4SIeqzB0IZ/bz6mTDwLpgxGdB8e4RoZ5GOVVSKXk1VY2eu/857rRsJHgXpQALBixQqcPn1atWn+d97p6nCEBEcxgBNSjZvNZqxbt060A8YmR8Pb3YWznRzaoQzZBIfeWcfVVNRld88cbtUjDS9HpaXlRGS7lu9MQ0lVgxKxOOm0+Nm8vjsJZHh8uOj1ZRb0boIj0MfDarVLrsRkMuFvf/ubatN7D4C9vMvVoXWQ63TobSpOOi33/5PDyyyoRE1ji2gM3KZCXeHn5YYbxsofDZtXVoMT54s4IER01YwdJrz55QFl4pkxIgGJfVQIdHhChOi1ZRVW9Orve+CGMXBTpFD60qVLxQ9wuIS/8A5XCxMcVrB9+3Y0NjaKdsCMkfGc7eTQzBYLjpwrEI1h4kBuU6Eru3XKYLg4O4nH8fnudBYXJaJes/VYNk7nlioRi0YDPHTjuD753cMEV3CYLRacL67utd8XHuiNeRNTlBgzk8mkYu2NHQB28e5Wi6MkOE4DyJVqvK2tDVu2bBHtgHEpMfB04wcrcmwHM2QTHHpnHaYO68+BoMvPEScdbr1miHgcLW3t2Hg4kwNCRL3GYgHeWK3OKo4pQ/phSFxYr/5Of2/3Pq3vcSVFFfUwtBp77fc9PH8CnJ10SozXkiVLkJWVpdq0fpp3tnq0DnStayUbl96monfSYTK3qZCDO5SRL/6N9PxJAzkQdFmzxyQhQLA43dc2H81Co6GNA0JEverE+WLsOZ2nTDwP3dS7qzhGSG9PKeq9+htJUUHKbK1tb29XcfXGNnTW3yDFOFKCQzTDsH79erS3t4t2wLUjuE2FHFt1gwHniypFYxgeH45+of4cDPoOjQa489rhSsTyxZ4zHBAi6hOvr9oPk9msRCxjBkRhdFJkr/2+ccmyp19lXCzvtd/18M0TlCh2DQAffvghLly4oNpU/j/ezWpypATHXgBVUo3X1dVh717ZArsTuP+fCLvScsVj4CoOupSxydGIjwgQjyM9rwyZBRUcECLqE3llNfhyf4Yy8TwwZ0yv/a5xKbIJjlMXSnrl94xIiMD4lBglxqelpQV//7typ7BuAk9OUZYjJThMADZKBiC+TYXHVBJh27Hz4jHMHZ8MvbOOg0Hfcud0VVZv8GhYIupb76w9iOZerBVxNUYmRmJwv9Cr/j3xEQEI9fcSu4629g5kFvbOKtWHb56gzFx59dVXUVSk3IlerL2hMK2DXa/4cbEW4QIA147gMZXk2PLKanChFyuM94SPhyumD+eWMfqvmBA/jB8o/21ZTWMLth7L5oAQUZ8/axZvO6FMPD+8bsRV/44Jws/w9NwytHeYrvr3TB/ev9eLr/ZUXV0dXnzxRdWm73oAh3kXq8vREhxbALRKNZ6fn49Tp06JdsCEgTFwV+QsayIp247Lf4C7mdtU6BvunjkcKmx1/nz3aRjbTRwQIupzi7eeQHltoxKxTB3W/6pPPxk/MFb0Gk72wvYUnVaLn80br8wcee6551BTU6Pa1P0b7161OVqCoxnAdtE3j59/LtoBrnonTBwUy5lPDm3bcfltKiMTIzEgOpiDQfDzcsMNYweIx2HsMOFzbk8hIitpa+/Ae+uPqPGBSKPB3TN7vorDw1WPYf1lVz2k5Vx9gmPBlEHKFEIvKSnBG2+8odq0XQPgKO9etWkd8JpFt6msXLlSvAN4mgo5uoLyOmQXVYnHcfeM4RwMwm3XDIGLs5N4HBsOnUNNg4EDQkRWs+5gBnJKqpWIZe64ZPh5ufXo714zNA7OTnK1tUxmM07nll3V73B31eOBG8YoMzf+8pe/wGBQ6jXJAtbesAmOmuAQO5vq/PnzSEtLE+2ASYP7wY3bVMjBpSqwiuO6UYmIDPLhYDgwvZMOC6YMln/XZgGWbj/FASEiqzKbLfjXqn1qPI+ddbi1h8/jGSNlvzzMKqiE4SqLtj5wwxj4e7srMRbZ2dn4+OOPVZuuqwDwhdIGOGKCowLChWFU2KYyYWAMZz85NBUKKWq1GiycNoyD4cCuHzsAAQq8oTx4Nh+5pTUcECKyugNn8nH4XIESsdw2dWi3TznzcNVjXLLs++oDZ/Ov6u+HB3pj4fShysyJP/7xj+jo6FBpmloA/B/vVtugddDrFt2msmLFCvEO4DYVcnRFlfVIzysTj2PexBR4e7hyQBzUD6YPUyKOz3ac5GAQkZjXVu2HWfikQQDw93LDdaMSu/V3pg3vL370+4GMq0twPHLzROid1Di+/ujRo1i1apVqU3QlgDTeqbbBURMcondNdnY2zpw5I9oBU4bEcZsKObw1+86Kx+Dm4ozbpw7hYDigMclRiI8IEI8jp6RamW9PicgxZRVWKrF1FADunjGiW6dazRiRIBpvg6ENZ/PKe/z3B/cLxbXC1/BNTzzxBCwKJLu+wQzgGd6ltsNRExznAWRJBqDCNpXxKdG8A8ihbT2Wjear3LPaGxZOGwp3Vz0HxMGosj3p09STUOu9JBE5onfWHoLJbBaPIz4iACMTI7v0s94erhibHCUa76GM/B73m0YD/PrWyUocUw4AW7duxfbt21WbmssA8IgxG6J14GsX3aayfPly8Q5QKVtLJKGlrR2bj2SJx+Hr6cYTVRxMVJAvJg2OFY+jprEFm49mcUCISFxBRR02HMpUIpY7r+3aa/INY5NET08BOmso9dSs0UkYKny87dcsFgv++Mc/qjYtTWDtDZvDBIeQzMxMZGRkiHbA5CH9lDiakEjSF3vUSMrfPXME/Ht4PB3ZnoXTh0KrwFdmK3elwdhu4oAQkRLeX38Yxg75Z9Lkwf2QEBF4xZ+7aXyKcFIAOJTRsy2GemcdfjF/gjJjv3z5chw/fly1KbkUQCbvTNviyAmOQwBEKwyuXLlStAPcXZwxjttUyMFlF1XhXEGFeBzuLs64b/YoDogDcHfVY+74ZPE4jB0mfLH3DAeEiJRRWtOoRH0sjQa4/4bR3/szKTHBSIwKEn4PU4nK+uYe/d27Z4xAmL+XEuPe0dGBp59+WrXpaAJrb9gkR05wmAGskwxAug4HAMwYyW0qRKsV+ZB365QhCFXkzQb1nZsnDYSHAjVX1h88h5oGAweEiJTy8ZZjaFdgFce1IxK+txD0/EmDxGPccfJCj/6ev5cb7p01Upkxf//995GZqdxCicUQrtlIPaN18OsXzTCcOXMG586dE+2Aa4b0Ez/aikja5iNZMChQbFTvrMODc8ZwQOz5RVejUeLUHIsFWLbjFAeEiJRTUduEzUezxePQaIAfX3/pVRwuzk6YqcCXhNtP9CzB8dBN45VItANAS0sLnn32WdWmoRGsvWG777Uc/Pp3AKiUDOCLL74Q7QB3Vz3GJXObCjk2Q1s71itS2Gzu+GT0Dw/goNipKUPjEBHoIx7HwYx85JbWcECISEmLthyHWYHjnWaMTEDcJV6TZ41OhJe7i2hs2UVVuFhW2+2/Fxfmj3kTU5QZ61deeQVFRUWqTcE3AeTyTrRNjp7g6ACwVjIAFbapzByVyDuBHN6nqSdhNsu/mdJptXh84TUcEDu1cNpQJeL4bPtJDgYRKSuvrAb7z1yU/6Ck0eCBS9TiWDh9mHhsqcfP9+jvPXrbZOi0anwErK2txUsvvaTa9GsC8A/ehbZLyy6Q3aaSlpYmvuds6tA4uLs4cyaQQyuuqkfqifNKxDIyMRLXMfFod6JDfDEyMVI8jpySahw+V8ABISKlfZaqRiJ2xshv1+IYlxKNxMhA8bh6kuCYMDAG41NilBnjZ599FjU1yq0m/CeACt6BtosJDmA7ANE7a9WqVaId4ObijClD4zgTyOF9vPkYFFgRCwD4ze1TlNkfS73j5kmDoMDJsPg09aQy85yI6HKOZhUhu6hK/sOSRoPf3P7flZV3zRguHlNmQQUKKuq6dx1aDX61YJIy45uXl4fXX39dtWlXCeBV3n22jQkOoB3cpoLZo5M4E8jhZRdV4Vi2GvtAA7zdL1vcjGyPs5MOc8bJHw1b09iCzUdZFJ6IbIMqxZBHJ0VifEoM4sIDMC5ZfgVEag+Ki94yeZBSNb5+//vfo62tTbUp9zcAjbzzbBsTHJ1WSjZ+8uRJXLhwQbQDxg+Mhr+XG2cCObzFW48rE8ud1w5DbKgfB8UOTBvWX4ln7Oe7T8PYbuKAEJFN2HwkC9WKHGf96G2TcfeM4eIr8cwWC7Yc6V6i2t1VjwfnjFVmXA8ePKjEF7z/4yKA93nX2T4mODptA1ArGYD0Ta7TanHtiATOBHJ4BzPylVgSC3R+6//HO6dDq8K+Broq8ycOFI/B2GHC53vSORhEZDOMHSZ8ochzKy7MHzeMHSAex5FzhSit6d4igwduGI0Ab3cl+tFiseDRRx+FRb29kk8BaONdZ/uY4OjUDmCdZAAqZDGvH8NtKkQWC7Bk2wll4hmRGIHbpw3hwNiwyCAfjB4QJR7H1qPZqFHkm1Aioi6/R1Zo5ZmTTv6j05r9Z7v181FBvkqc+vK1pUuX4vDhw6pNs3QAS3m32QcmOL7x/JRs/Pjx48jJyRHtgMFxYQgP9OZMIIe3+WgW8srUqer98PyJiA725cDYqPkTBypRXHTFrjQOBhHZHNYO+q/65lbsScvt1t/57R1ToHfSKRF/a2sr/vjHP6rYtX8AYOYMsw9McPzXVgD1kgFIn6ai0bDYKBEAmM0WvLdOnW8XXPVO+Ot9M6HVcquKrdFptZg7Xr646InsYmTk89Q7IrJNS1JPwszjn7Dh0DkYO7q+mmXKkDhMHBSrTPwvv/wy8vPzVevWvQA28i6zH0xw/FcbuE0F149lgoMIAFJPnEdmgTofCIfEheEHCi0xpa65Zmg/BPp4iMexbOcpDgYR2azckmrsOHHB4fth3YFzXf5ZvZMOv75VnWNhKyoq8Pzzz6vYrX/gHWZfmOD4NtEMw9GjR5GbmyvaAf1C/ZEUFcSZQA7PYgHe+vKgUjH9fN54xITwVBVbcuOEFPEYSqobsCstl4NBRDbtvQ1HHHoVR3peGc4Xd70I+j2zRiq1vfVPf/oTGhoaVOvWLwEc4N1lX5jg+LbNAMTuPIvFgqVL5evbzGaxUSIAwIGz+TiWVaRMPC7OTnj+JzfAxdmJg2MD/L3cMD4lRjyO5TvTYDZzaTcR2bbckmrsPJnjsNe/eu+ZLv9siJ8X7r1upDKxnzt3Dh999JFqXWoC8CTvLPvDBMe3tQFYLxnAkiVLxDth9ugk7vUn+spba9VaxREfEYDf3D6FA2MDZo8ZIF5xv6WtHWsPZHAwiMguvL/hsEOu4uhuodXHbpsMNxdnZeJ/9NFH0dHRoVq3LgZwlneV/WGC47tEt6lkZmbi1KlToh0Q5OuB4fERnAlEAE7nlGJvep5SMd0yeRBuGDuAg6M4FYqLbj2WjUZDGweDiOzChWLHXMWxYldal4/KHZ0UiWtHxCsT+6ZNm7BlyxbVurQNwF95R9knJjgucR8CaJQM4NNPPxXvhOu5TYXoP95cc0C5Jf5/+MFURIf4cnAUlRARiMTIQPE4Vu/jl1NEZF/eXe9Yqzja2jvw+e70Lv2sTqvFb26/RpnYTSYTHn/8cRW79S0A+byb7BMTHN/VCuGjgj777DOYTCbRTrh2RLwyZ2YTSbtQXI3P95xWKiZ3Vz3+8SDrcahqzjj5FTbni6twJq+Mg0FEdiW3pBq7TjnOKo4NhzJR19TSpZ+9Y9pQxEcEKBP7+++/jzNnzqjWpY0A/sE7yX4xwXFpKyUbLykpwZ49e0Q7wMvdRalzs4mkvbP2EGoaW5SKKTEyEH+8axoHRzE6rRbXK7CFaPVert4gIvv05pqD6DCZ7f46LRZg6fZTXfpZf293PDhnjDpZhMZGPP300yp26wsAKngX2S8mOC5tE4BmyQA+++wz8U7gaSpE/9VgaMOba9Q7SWzOuGTcO2skB0gh41KiEeDtLhpDW3sHNh/J5GAQkV3KL6/F6n1n7P4695+5iLyymi797CM3T4SXu4sysT/77LMoK1NuFWElgFd5B9k3JjguzQDhbSorV65Ea2uraCdMHtxPqQclkbR1BzKQruCS/4fnT8TMkQkcIEWosD1l67HzaGBxUSKyY++tP4ymFqNdX+OS1BNd+rmUmGDcME6d4uOFhYV47bXXVOzSP0O41iL1PSY4Lk/0NJX6+nps2rRJtAP0zjpMG9afM4HoK2aLBc8v3aVcwVGNBvjrfTOREhvCQRLm6abHNUPjxONwhG82icix1Ta24JMtx+z2+k7nlOJYVtGVP8xpNPj9D6ZBq9EoE/vjjz8Og8GgWpdmAPiAd479Y4Lj8jagcyWHGBVOU+E2FaJvyyyowJr96tU2cHF2wgs/vQGBPh4cJEEzRyaKF37NLanG6ZxSDgYR2b1Pt59EaY19fiH/9tqDXfq5+ZMGYqBCX3AcPnwYy5cvV7FLfwugg3eN/WOC4/Ka0VmLQ8yGDRtQV1cn2gmjkiIR7OvJ2UD0DW+uOYD65lbl4grx88LLP78R7q56DpIQFbanrDt4jgNBRA7B2G7C218etLvrSsspxdEurN7wdnfBz+eNVyZui8WCX//617Cod4zvVunPdWQ9THB8v6WSjbe2tmLVqlWyE0SjwcxR3NtP9E31za3457JdSsaWEhOMl382F3pnHvNsbeGB3hjaP1w0BrPFgi1HszkYROQwNh/JQka+fR2K8VYXkzYP3TQevp5uysT98ccf49ChQ6p1pwmdqzfIQTDB8f02AKiXDECF01RumpDCmUD0P7Yczcb2ExeUjG1UUiT+8eANcNLxEW9NN45PgfQW6EMZBaioa+JgEJHD6KyPtRNm9VYN9MjRrCIcz77y6o3+4QFYMGWQMnE3NDTgySefVLFLPwSQzjvFcfDd7/drBfCFZAA7d+5EcXGxaCf0Dw9AYlQQZwPR/3jus52oaWxRMrYpQ/rhL/fOVKromD3TaIAbxsrXLFrP7SlE5IDOXizHugMZdnEt768/3KXXnCfunAadVp2Pcn/5y19QWqpc/adGdJ6cQg6ECY4rE11CYTablSjUM3dcMmcC0f+oa2rBs5/uUDa+68ck4XcLr+FAWcHw+AhEBPqIxtDcasSe07kcDCJySP9atR+1in7p0FVHzhXixPkrf7E5b+JADIsPVybujIwMvPnmmyp26T8AlPPucCxMcFzZLgAlkgGosE1lzrgBcHbinn6i7zwgTuVg2/HzysZ32zVD8Oitk8GFHH3/jJS27dh5tBpZIJ6IHFNDcyveWHPAZuM3Wyx4Y83+K/6cr6cbHp4/QanYH374YbS3t6vWpQUAXuGd4XiY4LgyE4BlkgEcP34cGRmyy+58PFwxYWAMZwPRJTy/dBdqGgzKxnfXjOF44s7p3K7SR1ycnTB9eLx4HBsOcXsKETm2tQfO4kR2sU3GvuFQZpeKpT5222SlCouuWLECO3fuVLFLnwDQwrvC8TDB0TXiSyiWLVsm3glzx3ObCtGl1DW14LnPdiod4y2TB+FP98yAVsskR2+bOiwOXu4uojEUV9XjVE4JB4OIHJrFAjy/bBc6TGabirulrR1vdWH1yYjECFw/ZoAycRsMBjz++OMqdulhCJ+GSXKY4Oia4wAyJQP47LPPxM+Unjy4H/y83DgbiC5h56kcfLFH7SLdN45Pxt/vn83TVXqZCsnfDYcyYScHCBARXZWckmos3XHKpmL+eMsxVNY3f+/P6J10+OOd05Xacvr3v/8d+fn5qnWnBcBvvvonOSC+y+1GjkH0YZ2TgyNHjoh2gJNOi1mjEzkTiC7jpZV7kF1YqXSMM0cm4Pmf3AC9M2vq9IYgHw+MHRAt+07OAmw8nMnBICL6yttrDyKvrMYmYi2vbcSSbSev+HM/un40YkP9lIk7JycHL7/8sopd+jmA/bwLHBcTHF33GYQzgZ9++ql4J/A0FaLLM7ab8Pv3NqGpxah0nNcMjcO7jy2AP1dkXbXrxyaJb/s5lVOCosp6DgYR0Tdej/++ZAfMNrC07fXVB9DW/v0FoqNDfHHvdSOVivvXv/41WltblRt6AH/kHeDYmODouhwAoksoli1bho4O2Qr5A6KDkRgZyNlAdBmFlXVKHx37tcH9QvHh47chOsSXg3YVbhirwvYUFhclIvpfpy6UYPnONKVjTM8rw5ajWd/7MxoN8MSd05Vaebl161asX79exS59FcAFzn7HxgRH94guoaisrMS2bdvEO4HFRomu8MJ/LBuf705XPs6oIF98/Ps7MDIxkoPWA/ERAYiPCBCNwdhuwvYTfC9HRHQpb645gIKKOmXje2vNgSvWT5o7Lhmjk9R5nTYajfjlL3+pYndWAXiOs56Y4OieFQBEl1AsWrRIvBNuGDsAeifu3yf6Pi+v3IPMggrl4/R2d8Ebj8zDDWMHcNC66bpR8jWJdp7KQaOhjYNBRHQJrcYO/PWTbcpuVVk4fdj3Fg319nDFI7dMUirmF198EdnZ2Sp2518B1HHWEz+ldk8zgIkA4qUCuHDhAn7xi1/AzU1u77yr3hnZRVXIK63hjCC6DJPZgqOZRbhh3AC4ODup/UKg1WLqsP5wc3HGsawi8RObbMUf754OHw9X0RheW70PhRWsv0FEdDnltU3w9XTDoH6hysUWG+qHDpMZJy9c+pjv3/9gKobFhysTb1FRERYuXAijUblaY5kAHgBg5ownruDoPtFtKq2trVi+fLl4J8ybOJAzgegKCivr8Nt31qO9w6R8rBoNcM91I/DOY7cgyMeDg3cFKbEhiAryFY2hpsGAwxmFHAwioiv416p9OF9cpWRsD900DpMGx37nvw+PD8eN41OUivW3v/0tmpqaVOzG3wBo50wngAmOnliFzpUcYj755BPxThiXEo0wfy/OBqIrOJFdjH8s3WUz8Q6PD8dnT92JMclRHLzvcd3IBPEYNhzOhMnML6uIiK7E2G7Ckx9ugbFdvS8ctBoN/vajWd9Kmjs76fDEXdO/d/uKte3btw8rVqxQcXh3ANjIWU5f4xaV7msHMBjAIKkAvl4eFhgod5qJRqNBU4sRx7OLOSOIriCrsBI+Hq5KLo+9FDcXZ1w/ZgA0Gg1Oni8BN6z87/MPePLua+Hl5iIaxz8+24maRgMHhIioC2obW9Da3oHxKTHKxebi7IRxKdHYcCgT7R0m/Pj60ZipQCL9ax0dHZg3bx7Ky8tV67oOADcDqOAMp68xwdEzRgA/kAzA29sb1157rWgnRAX5YunOU+B2faIrO3yuEANjQxAV7GsjH+I1GJkYiYH9QnE8uxjNrUYO4leGxYfjrmuHi8aQVViJ9zcc4WAQEXXDmbwyDIkLQ2SQj3Kx+Xq6ISrIB9lFVfj7/bOh06mz0P71119XYgX5JbwB4BMHn9Y6AMEAYgAkAxgB4BoAMwBMusyfiQCSAEQB8Afghs4v8e3izZ4G1BPOAEoBiJ0PGBERgfz8fOh0sjmqR17/EgfO5nNGEHWBu6se/378NvQPD7CpuJtajHht1T6s2nuGgwjg8YVTcfvUIaIxvLRiD5buOMXBICLqJn8vNyz7013w93ZXMr788lrEhPgpE095eTkGDBiAuro61bqq4qsP6XV2PmV1AKIB9P/qT9w3/j2qlz+PtgGoBHAWwPFv/LGpD3uswdEz7QBWSgZQXFyM1NRU8Y5gsVGirjO0GvHYW+tR19RiU3F7uunxx7um4x8PXg9fTzeHHkOtVoMZI+JFY+gwmbHlaBZvKCKiHqhpbMHfFqcqe3SsSskNAHj00UdVTG4AwB9hf8kNPwDTADwK4GMAJwG0AMgFsA3AOwAeB7AAwDD0/pftLgAiAcz6qn+/AHARnUmPzQD+DuAWAErvuWaCo+c+lQ7g448/Fu+EKUP6wd/LjbOBqIuKq+rxqzfWwtBme8W+Z4xMwPI/34UpQ+IcdvxGJUWKf+t34Gw+ahpbeDMREfXQvvSL+HjzMXbEFWzbtg1Lly5VMbQjAP5t490bBeAmAH8F8OVXiYQadBZNfRnAvehMYjgrEGsgvp30KEZnwuUeAJ6qdSy3qFxd3+UCiJUKwM3NDSUlJfD19RXtiH99sQ+Lt53gjCDqhtFJkfjXw/Ogd7bNUki703Lx0oo9KKlucKhxe+ruazF/kuzKtT9+sBlbj2XzJiIiugpajQavPzIPY5Oj2RmX0NbWhqFDhyIrS7kVg2YAEwActqHuDAcw8ht/RgMIsZOp0gpgHYDFADahs/Cr7L3N27fHLABEU5otLS1Yvny5eEfMmzhQqWOsiGzB0awi/OH9TTZ7zOc1Q+Ow8q934ydzx9pskqYnb4YnD+knGkNLWzv2pufxBiIiutpPyRYL/vTRFlTUNbEzLuH//u//VExuAJ1bN1RNbngDGA/gQQD/ArATndtoigGsBfAXAHNhP8kNAHAFcNtX11cA4EUAooXK+LH06gwCkC4ZwJgxY3D4sPw9/pOXv8AJHhlL1G03jB2Av943E1obzhIWVtbhheW7ceCMfRccHhIXho8ev000hs1HsvDUR1t44xAR9eKz/b3fLICTjt/7fi0rKwtDhw5FW1ubaqHVobOwqPSxsK4AUgAM/Orz4KCv/j2Gs+c/0gA8AmCPtRvmMbFXpwKde6fCpAIoLi7GggULEBIimwjUOzlhx8kLnBFE3XS+uAqNLW2YMDDWZq/Bx8MV148ZgOSYYOSUVNttfYgFUwZjeEKEaAxvrz2E/PJa3jhERL2kvLYJxg4Tt6p8xWKx4Pbbb8eFC0q+r/89OmtUWIMTgH4AxgK4AcAPAfwKwN8APA/gIQA3o/PI1QQAvpw93xIK4D50Hlubi85VLFbBBMfVcwVwvWhyQa/H7NmzRTshOsQXq/aeQauxgzOCqJvO5JXDYrFgVFKkTV9HTIgfbpkyGP3DA5BVWIUGQ6tdjdPv7rgGfl5yBUYbDW147rOdMJktvGmIiHrR6dxSDIgOUu4EEwkfffQRXnvtNRVDSwfwADprcPSWYHSuxJgAYDaAhQB+gc6tJC+g8zSTu7/6rDcGnUez+oFlHrpKg84VNw+iM1GUBiusvuEWlasXiM6MlF4qgICAABQXF8PFxUW0I15btR+Lth7njCDqoZ/dNB733zDaLq6lw2TG6n1n8OHGo6iqb7b564kI9MGXz9wrGsPaAxn426JU3ihERH3Ay90Fi59YiMggH4ftg+rqagwYMABVVVUqhjcNwK6uDic6C3sGo3OlfehX/x7x1f+ORudBETwK0rpMAD4A8BSAPptkTHD0jlXoXKIkZunSpVi4cKFoJxRX1ePmPy1S9lxxIlvwo9mj8Iv5E+zmelqNHfhy/1l8uv0kSqps98SVH0wfht/cPkU0hl++9iUOZuTzJiEi6iMJEYH4+A+3w8XZySGv/95778WiRYtUDC0XncUrvdG5esIHnceT+n7je3RUXAAAgABJREFUj983/t2ds1lpFeisz9Enp2Vwi0rvaAHwA8kA6urqcM8994h2gre7K9JyS1FUWc8ZQdRDpy6UoKbRgAmDYqGxg+OJnHRaDOoXijumDUVKbAhKqhpssmL9L+ZPQESgt1j7tY0teH7ZLliYQCYi6jM1jQbUNbWIn5glYffu3XjsscdUDc8PwBwAMwBcC2ASOreMDAGQiM4VGUHoXLnhzJmsPA8AtwIYCmDbV5+lew0THL0jF8BPvxosEfn5+bjnnnvg5ye7d9BV74xtx89zRhBdhYz8ClQ3GDBxsH0kOQBAo9EgJsQP8ycNxIiECNQ2taC4sh628HHdy90Fjy+cCq1Wbiw2HMrk8bBERFZwrqACof5eSIoKcphrNhqNuPHGG1FZWckJQNaUjM66J4cAFPXWL2WCo3eY0bnPa7xUABaLBd7e3pg2bZpoR0SH+GLt/gw0txo5K4iu8g1WQUUdpg6Ls+kjZC8lPNAb149JwrxJA+Hv5Y6iqno0GtqUjXf68HjMGJkgGsOrX+xDaU0jbwwiIis4eDYf41JiEOzr6RDX+8wzz+Dzzz/nwJMEX3TuhDgFoFe+JWeCo/eUofO4IDE5OTn41a9+Ba1WrrCvVqNBY0sbTpwv5owgutp7uqQaeaU1mDo0Djqt/RXs9nDVY1h8OO6YNhRD+4ejvcOEosp65U4J+dHs0YiPCBBrv7rBgJdW7AE3pxARWYfJbMG+9IuYPSYJ7q56u77W8+fP46677kJHB09CJDF6AHcAKAVw4mp/GRMcvaccwDx0VuYV0djYiDFjxiAxMVG0IyKDfLBsZxq4VZzo6uWV1iAtpxRThsbZbdEzjUaDyCAfzBiZgNuuGYKYUD+YzGaU1TSKJzu0Wg2evPta0b7fejQbu0/n8mYgIrIiQ1s7MvIrcP3YAaJbFPvaHXfcgfPnub2cxGkB3ITOkg/bgZ5/r8MER+9yRecZynIPY4NB/DQVTzcXnMuvRH55LWcEUS8oqW7AjhM5mDAwBj6ernZ9rS56JyRFBWH2mCTcNWMEBseFwkmnQ0lVA9o7TFaPZ2BsZ4FUSe+tP4z88jreCEREVlZa04jGljZMHBRrl9e3aNEivPzyyxxoUslEAAMAfInOMhDdxgRH78oF8CvJfs3JycEDDzwALy8v0Y7w9XTFxsOZnBFEvaTB0Iptx7MxJjkagT4eDnHNTjotYkL8MG1Yf9x17XCMTIpEiJ8XTBYLqhsMVjmSes64ARgzIEqsD1qNHXjus53oMJl5ExARCTh7sRwRgd5IjLSvoqM1NTWYN28empubOcikmkHoPCFnNYBuf7vFBEfvMgAYic6skwiz2QxfX19MmTJFtCMiAn2Qevw86ppaOCuIeomXuytunzYEXm4uDnftOp0WEYE+GD0gCvMmDsSdM4ZjeEIEgv08odFo0GBo65MVHj+9cZzo8bAHzuZjwyEmi4mIJB08W4AJg2IQZEdfMPzyl7/Evn37OLikqgEAhgH4HN1cyaFh3/W6uQDWSQYQExODnJwc6HSy+asVu07jn8t2cUYQ9QIfD1d88Ltb0S/Un51xCWaLBUWV9cgqrOz8U1CJ88VVqKrv+TdTLs5O2PnyT6F3lnuWPrNkO9bsO8sBJiISFurvhcVPLISfl5vNX8u+ffswZcoUWFgwj9S3CMB96EZNDiY4ep8OQD6ACMkg1q1bh7lz54p2hKHViBue+AhNLTwyluhquOqd8NavbsaQ/mHsjG5qa+9ASXUDSqsaUVLdgJLqBpTVNKKqoRlNhjY0tRjR2NJ2yWNqxyRH4a1f3SwWu9liwfW//xDVDQYOJBGRAsYkR+GNR+bb9PHtRqMRw4cPR0ZGBgeUbMU/ADzR1R92Yn/1OhOAjwE8KRnEu+++K57gcHfVY864ZCzfmcZZQdRDeicdXv7ZjUxu9JCLsxP6hfp3aeVLg6ENTYY2WL76ksBD+GjAjIvlTG4QESnkyLlCfLDhCH4yd6zNXsMzzzzD5AbZmj8ASAOwrCs/rGV/9YmPcBVH2/SGTZs2IT8/X7wjbp86BBquEyLqEa1Wg7/96DqMSY5iZ1iBt7sLwgO9ERHog4hAH/h6yi5D3nM6j4NCRKSYDzYcwZHMQpuMPS0tDf/4xz84iGSLPgSQ1KX3z+yrPpELYIdkACaTCR9++KF4R8SE+GFccgxnBFE3aTTAH34wDTNGJrAzHNReJjiIiJRjtljw1IebUVlnW6ePdHR04P7770d7ezsHkWyRO4C30YUSG0xw9B3x7MIHH3ygxEPs9mlDOBuIuulnN43HLZMHsSMcVE2DARdKqtgRREQqPqMbW/DkR5thNttOkc4XXngBx48f5+CRLZsG4KdX+iEmOPrOagA1kgGUlpZi7dq14h0xaVA/RIf4ckYQddHtU4fix9ePZkc4sMOZhWBxeyIidZ3ILsY76w7ZRKznzp3D008/zUEje/AigMTv+wEmOPpOK4Al0kG888474h2h0QALJg/mjCDqgjnjkvG7O65hRzi4I+cK2AlERIr7ePMx5etxmM1m/OQnP0FbWxsHjOyBBzqPjtVd9rMn+6hPDQZwWjIAjUaDrKwsJCTI7uNvauk8MtbQyiNjiS5nypB+eOGhOdBpmXt2dHOe+DfKaxuh1WoQ6u+FyCAfRAX5IsTPE24uznBxdoKbizOcddqvjrk1oqmlDXVNLSisqENBRT3KaxvZkUREfSAyyAdTh/XH1KFxGNI/TOljY1955RU89thjHDSyN78C8NolP/+yb/rcYQBjJAP4zW9+gxdffFG8I15asQdLd5zijCC6hBEJEXj9kXlwcebp3Y6uqr4Z6w6ew6ikSAyICoKzk65Hv6elrR2ZhZU4nVOKtJwSnLpQggYDv8EjIuqJ+IgAzBiRgKnD+iM+IsAmYs7Ly8OQIUPQ1NTEASR70wAgGUDJ//4fTHD0vQcBvCcZgJ+fH4qKiuDu7i7aEcVV9bj5z4tsqiATkTUkRgXhvccWwNNNz86gPtNhMuN4dhF2nsrBrlO5qKpvZqcQEX0PdxdnzByViJsnDcSgfqE2FbvFYsH06dOxa9cuDiTZq48B/Oh//yMTHH3PC52ZJU/JIN577z08+OCD4p3x+LsbsONkDmcF0Veignzx4e9uhb+3OzuDrMZsseBMbhl2nsrB5iNZqGSyg4joP5Kjg3Hz5EGYNToRHq62+eXDvn37MGXKFFhYsdoueXt7Iy4uDv3790dcXBzCwsIQEBCAwMDA//xT89XWKScnJ3h5ecFgMKCqqgrl5eWorKxEVVUVzp07h+PHj+P06dMwGm2ulIAJwCAAmd/8j0xwWMe7AH4iGcDAgQORnp7+n4ku5dSFEjzw4uecEUQAgnw88OHvbkN4oDc7g8SYLRYcyyzCqn1nsPNkDkxmMzuFiByOVqPBtSPicc+skUiODraLa9qyZQt+9rOfIS8vjwNso9zd3TF48GAMGzYMw4YNw5AhQ5CQkICgoKBebcdoNCI9PR179+7F0qVLceTIEVvpopUAbv/mf2CCwzqGAzghHcSuXbtwzTXypzPc9/wKnMkr46wgh+bppsd7jy1AYlQQO4OUUVbTiFV7z2D5zjQ0syg0ETkAnVaL2WOS8KPZoxAb6md319fS0oJ//vOfeOmll9DYyOLTKvPz88OIESMwYsQIDB8+HMOHD0dCQgJ0Op3VY8nMzMSnn36KJUuW4OLFiyp3mxlACoCsr/8DExzWI15s9NZbb8XKlSvFO2LL0Ww8+eFmzghyWK56J7zxyHwMiw9nZ5CSDK1GrNydjk+2HGNhUiKyW+NTYvDorZMQFx5g99daVVWFF154Ae+++y7q6+s5+MJCQ0P/k8j4+p/9+vVTL3tgNuPDDz/EE088gerqalW7820AP//6fzDBYT0/AvCRZABOTk7Izc1FVFSUaEeYzGbMe+oTlNUwi0yOx0mnxcs/uxETBsWwM0h5THQQkT3qF+qPR2+d7JCvxY2Njfjwww/x/vvvIyMjg5Ohj+n1eiQlJWHgwIEYPHgwhg4diuHDhyM83La+5KqursaTTz6J999/H2b1trI2A4gEUAcwwWFN7gCKAfhKBvHkk0/imWeeEe+MRVuP47VV+zkryKFoNMBf7pmJueOTlY+1rKwMwcHB0Gq1HDhCU4sR7647hOU702BmwToislE6rRb3zhqJB+aMgd5J5/D9cfjwYSxatAirV69GaWkpJ8hV0Gq1iIuLw+DBg/+TzBg4cCASExPh7OxsN9d57Ngx3H///Th9+rRqoS0AsApggsPa/gXgEckAgoODUVBQABcXF9GOaDC0Ye4TH8HQ1s5ZQQ7j8YVTcfvUIcrHeeTIEcyYMQMJCQl49tlnMWvWLA4eAQBO55bi6U9SkV9ey84gIpvSPzwAf71vpt0UEO1NZrMZhw8fxpo1a7Bt2zakpaWp+C29Enx9fZGQkICEhAQkJSUhISEBiYmJSElJgZubm0P0QW1tLWbNmoWjR4+qFNYHAB4EmOCwthQAZ6WD+OSTT3DPPfeId8bLK/fgs+2nOCvIIfz0xnF4cM4Y5eNMT0/HtGnTvrXPcurUqXj22Wcxfvx4DiShrb0D760/jMXbTsBs5moOIlLfrdcMxmO3TeGqjS6qrq7Gzp07sXfvXhw9ehQnT55Ea2urw1x/cHAwYmJiEBMTg/j4eCQmJv7nT2+fXmKr6uvrMWvWLBw+fFiVkOoAhAFoZYLD+nYDmCIZwOjRo5U4+qe8thHznvoEHSZmiMm+3T51KB5feI3ycebk5GDSpEkoK7v0KUezZs3Cb3/7W8yYMYODSjh1oQR//WQbiipZrI6I1KR31uGJO6fjRhvYGqqy9vZ2pKen4+TJk8jMzERGRgYyMzNx8eJFm1vp4eHhgYiICAQHByM2NhbR0dH/SWZER0cjNjbWYVZiXK2GhgbMnj0bBw8eVCWkhQCWM8FhfXcC+FQ6iAMHDijxbexfP9mG9QfPcVaQ3bpuVCKeuX8WtBq1H7elpaWYNGkScnNzr/izw4cPx+9+9zvcdtttcHJy4iA78pub5lY8/t5GHMsqYmcQkVLC/L3wwkNzMIBbUvpMa2sr8vPzUVhYiIKCAhQUFCA/Px9VVVWorq7+1p++4OLiAj8/P/j6+n7rj5+fHwIDAxEcHIzw8HCEhIQgNDQUYWFhcHd358D1osbGRlx33XU4dOiQCuF8AeBWJjiszwVAIQDR9U233XYbVqxYId4ZeWU1uOPpT1m0juzSyMRIvP7IPOWXxNbX12PatGk4efJkt/5eTEwMHn30Udx///3w9PTkgDsok9mMF5fvwcrdp9kZRKSEuDB/vPGr+Qj25WuTCiwWC+rq6tDc3Ayj0YiGhgZ0dHSgrq6uS0kMd3d36PV6eHh4wNnZGZ6ennB1deVKC0VkZWVh8ODBaG8Xr63YCCCQCQ4Z/wTwO8kAdDodsrOzERcXJ94Zj721DntO53FWkF2JjwjA+7+5FV7uLkrH2dLSglmzZmHv3r09/h1+fn546KGH8MADDyjxTCEZy3ak4eWVe5iwJiJRydHBeP2RefD15IdfIqt9nnvsMbzyyisqhHIdK+3IuADglxAs8mqxWODk5KTE6QgRgT5Ys/8sZwXZjfBAb7z3m1uVf3PV3t6OBQsWIDU19ap+T2trK/bt24c33ngDe/fuhZOTExISErh9xcEM6heKxKgg7Dmdy9pKRCRiVFIk3nhkHrzcXdkZRFY0duxYfPjhhzAYDNKhFDHBIaMOwCgASZJBnDlzBj//+c/h6ir7IhDs54nD5wpQXtvEmUE2z9fTDe88egvCAryVjtNiseCBBx7AypUre/V35uXlYdWqVXjjjTeQl5eH8PBwhIeHc2I4iNhQPwyKDcW2E+dh4gkrRGRFKTHBeP2R+XB31bMziKzM1dUV3t7e2LBhg/hbXCY45FQD+KFkAEajESEhIRg3bpx4Z/h5uWPL0WzOCrLth7veCa/9ch6SotQ/Quw3v/kN3nnnnT77/W1tbTh+/Djee+89rFu3Dm1tbQgPD4ePjw8nip2LCPJBSmwIth+/wCQHEVlFdLAv3n70Fngrvi2UyJ4NHz4cq1atQkVFhWQYwUxwyMkFcAeAQMkgsrKy8Mtf/hJarVb4hckPO05eQG1jC2cG2SQnnRYv/mwuRiVFKh/r008/jX/84x9Wa6+0tBSbN2/Gq6++io0bN6KmpgbBwcEICAjgxLFTUUG+iAsPwI4TObCwJgcR9SE/Lze8/egtCPX3YmcQCdJqtairq8OOHTskw3BmgkOWBsANkgHU1dVhyJAhSElJke0IDeDhqsfOUzmcFWR7N7IG+Ou9MzF9eLzysb711lt4/PHHxdovLi5Gamoq3njjDSxevBh5eXnw8vJCVFQUNBrWvbYn/UL9ERXkg12ncsEUBxH1Bb2TDm//+mbERwSyM4hUuCf1enzwwQfiH7BJjheAIgCim/UnTpyIffv2iXeG2WzBrX9djIKKOs4Msim/WjAJP5w5Qvk4ly1bhrvuugtms3oFIKOiojBt2jRMnz4dU6dORUxMDCeWnVi2Iw0vrtjNjiCiXvf4wmtw+9Sh7AgiRXR0dCAwMBD19fViMXAFhywjgAgAYySDKCwsxPXXX4/ISNml9RqNBi7OTjwylmzK7VOH4OfzxisfZ2pqKm6//XZ0dHQoGV9DQwPS0tKwZs0avPrqq1i8eDHS09PR0NCAwMBAeHlx6bGtGtQvFGU1jcgqrGRnEFGvmTy4Hx67bQq4+I9IHVqtFgcOHEB2tlxtRSY45OUB+AWEV9M0NTXh1ltvFe+M/uEB2HAoE00tRs4MUt6s0Yl46ofXKr+14uDBg5gzZw5aWmynxk1tbS1OnjyJ1atX4+WXX8aSJUuwb98+XLhwAU1NTfD09GTSw4aMT4nBgbP5qKpvZmcQ0VULD/DGG4/Mh4uex5ETqaa8vBxbtmwRa585TzVsAXCdZAA6nQ5ZWVno37+/eGes3H0azy/dxVlBShuVFInXfjkPeie188Rnz57FlClTUFNTY3djEBoaimHDhmHYsGEYPnw44uLiEBsbi8BA7sVWUWlNI3747DLUNbGYNBFdxYcXDfDBb2/D0P5h7AwiBe3ZswfXXHON3DOCQ6CEGwGslQ7iF7/4Bd544w3xzjB2mDD/qU9QUdfEmUFKSogIxPu/vRWebnql4ywsLMTEiRNRWFjoUOPj6emJ2NjY7/wJCwuDr6/vf/64u7tzMlvZkcxCPPzaGph5fCwR9dBNE1Lw53tmsCOIFHXw4EFMmDBBrH0mONSgBXABQD/JIFxdXZGXl4fQ0FDxDlm64xReWrGHM4OUExHog48evw0B3mp/OK6srMTkyZORlZXFQbsMvV4PX19f+Pj4/OefL730EoYMGcLO6UNvrjmAf28+xo4gom7zdnfBF0/fAz8vN3YGkaKOHj2KMWPkSkxqOQRKMAMQXzrR2tqKN998U4kOWTB5MAJ9PDgzSCl+Xm54/ZfzlE9uNDQ0YPbs2UxuXIHRaERFRQXOnz+Po0ePIjU1FU1NXDnW1x6cOxb9Qv3ZEUTUbT+fN4HJDSLF6XSy27eZ4FDH+wDqpYN466230NjYKN4Zemcd7poxnLOClOHu4ox/PTwP0SG+SsfZ0tKCG2+8ESdOnOCgdVNiYiJGjhzJjujr57uTDn+5dwa0Wi4iJaKuGxAdjFsmD7Kra2pr78DutFz8bVEq3vryILfvkV1wcpIt/stTVNRhBBACYJz0h6PAwECMHy9/7GViZCBW7zuLVmMHZwfJPii1Wrz40FyMSIxQOs6Ojg7cfvvt2Lp1Kwetm7y9vbFt2zaEhbFonTUE+3mi0WBEel4ZO4OIuuSpu69FTKifzV9HTYMBqScu4IMNR/D3T3dg4+FMZBVW4uSFEqTnlWFccjTcXJw54GSziouL8d5774m1z69P1NIPwHkIJ54iIiKQm5sLvV6+gOKircfx2qr9nBkk6g8/mIZbrxmsdIwWiwUPPPAAPvroIw5YN+l0OmzcuBHXXXcdO8OKWo0dWPh/n6Kosp6dQUTfKzk6GIueWAiNDX5yMZstSM8rw/4zF3HgbD6yCitg+Z6FGn5ebnjq7mtxzdA4DjzZpCVLluCHP/yh3Ps6DoFS6gAMBpAiGURjYyPi4uIwfLj8FpEB0cFYf/AcmluNnB0k4idzx+KH141QPs7f/e53eOuttzhgPfDKK6/grrvuYkdYmZNOi5hQP2w6zFoxRPT9/vCDqegXZju1e9raO7D/zEUs2noczyzZgRW70nDyQgmq6puv+HdbjR3Yeiwb5bVNGJEQARdnJ04AsimLFy/GgQMHxNrnCg71TASwTzqIpKQkZGRkQKuVL9OyfGcaXli+mzODrO76MUn4249mKf+N0d///nc89dRTHLAeeOCBB/D+++/bTLwWC5BVWIGM/ApUNxig02oQ4ueJhMggxIcH2GRdi5+/uhpHMgs5GYnokhIjA/Hpk3cq/1pssQDHsouwZt8Z7E7L7ZUt1v5ebvjVgkm4YWyyTa5eIcc0c+ZMpKamirXPW0VNhwCMlQ5i9erVmD9/vnhnGDtMuOXPi1BW08iZQVYzYWAMXv75jXDSqV2L+b333sNDDz0Ei4WFybpr8uTJSE1NVWI73pW0tLXj8z3pWLnrNEqqGy75M35ebrhmaBymD4vH6AGRcHayjUWaGRfLce/zy8EpTESX8vf7Z2PW6ERl42tobsWqvWfw5f4MFFbW9UkbIxIi8NhtkzEgOpgTgpQXHByMyspKsfaZ4FDTHQCWSQcxcuRIHD16FBoFUsZr9p3FM0u2c2aQVQyIDsZ7v1kAd8WLfK1duxYLFixARwcL8XZXZGQkjh8/juBg9d8sph4/jxdX7OnS0uav+Xu748bxybh50iBEBvkof42/f28jtp+4wIlJRN/i7eGKzc/fD72CCdtGQxs+3nIMK3enw2CFrdQaDXDtiAQ8dOM4xNpBsVWyT6dOnRIvc8AaHGrKAnAfANF3paWlpRg/fjzi4+PFOyQxMghbj51HfXMrZwf1qfAAb7zz2C3w8XBVOs5Dhw7hpptuQltbGwetm1xcXLB582YkJiYqHaeh1Yg//3sr3lt/GIa29m793Za2dqTllGL5rjScyStDeKAPQv29lL3WxMhAfLHnDFciEdG3zJ80EFOG9FMqJosFWHcwA4+9tR6HzxWgvcNktbZzS2vw+Z50lFY3IjbUD76ebpwkpJRXXnkF+/fLHhDBBIeazACcAIiX9M/JycH9998v3iEajQbeHq7YeTKHs4P6jLeHK9559BaEB3grHefZs2cxY8YMNDZy21ZPvPvuu7jxxhuVjjG3tAYPvboKJ8+XXPXvKqysx9oDGcjIL8fwhHB4urkod72+nm4or21EZkElJygR/ceTd01HgI+HMvHUNbXg9+9vxJJtJ3ulxkZPdNZiqsTnu9ORkV+BQB8PhAd6c7I4iLqmFpTVNCmZ3DKbzXjggQfQ0NAg+7mR00RZvgAKAIh/5bZ9+3ZMnz5d/qaxWHD335ciu6iKs4N6nd5Zh7d+dTOGxYcrHWdRUREmTpyIgoICDloP/PSnP8U777yjdIxpOaV49K11aOiDFWuebno8vnAqbhg7QLnrLiivw4K/LmItDiIC0LlddMkfFyoTT05JNX79xlqUKlgTLikqCAumDMZ1oxLh6abn5LETFXVNyCqsRGZBJTILKpBVWAlvdxe89st5CFQo8fe1vXv3YsqUKeJxMMGhtlcA/Fo6iKlTp2Lnzp1KdMiOkzl4/N0NnBnUq7QaDZ578HpcOyJe6Tirq6sxefJknDt3joPWA+PHj8euXbuULiq6/8xFPP7uRrS19+03gz+cOQK/vGUitIqV5f/la1/iYEY+JysR4Xd3XIM7pg1VIpazF8vxy9e/7JPEc29ycXbC9OH9ceOEFIxKilTuGU+XV1xV/61kRmZhJWoaDN/6mVFJkXjxobnKJrHuvPNOLF26VLwrOevVFgUgB4B4pcPdu3crkZEDgB+/sBKnc0o5O6jXPHbbFNx57TClY2xpacHMmTPF9zXaqtDQUBw/fhzh4equ0DmSWYhfv7kWxnbr7OeeOqw/nntgtlKnrexNz8Ojb67jhCUirHv2RwhToHbQxbJa3P/CSpurAxfk44FrhnWerDUiMUL5U+EcRUNzKy4UVyOntLrznyWdfxoN319TbcbIBPztR9cpWXAXALKzs5GSkgKTySQdygYmONT3MYB7pYOYOXMmtm7dqkSHnM4txf0vrOQyZuoVP5w5Ar9aMEnpGE0mE2677TasXr2aA9YDzs7OSE1NVSZJeynpeWX4xauru11M9GpNHdYfz//keui0arzxNVssuPlPi1BcVc+JS+TA4iMCsOxPd4nHYWg14u5nl6Ggos6m+9Pb3QWTh8RhwsAYjE6KhL+3OydZX8+dtnZcLK3B+eIq5JTU/CeR0Z0T0YDO03N+OHMEHr55otIrcu677z588sknKoTydyY41DcQQDoU2E60b98+TJw4UYlO+c3b67E7LZezg67KzJEJ+PsDs5V+wbBYLHjwwQfx4YcfcsB66I033sAvfvELZePLKanGAy9+fsVvb/rKrNGJ+L8fz1LmPliy7QRe/WIfJy6RA7tv9ig8PH+CeBx/+mgLNh3Jsqu+1WiAuLAAjBkQhdEDojCsfxi8FT85TlUdJjOKq+qRX16Hwoo65JfXorCiDgUV9aioa7zqL2PdXZzxp3tmYObIBKX74cKFC0hOTkZHR4cK4dzOBIdtWAtAvOT/nDlzsH79eiU6JL+8Fnf87VN0mMycHdQjIxIi8MYj86F3VvswqSeffBLPPvssB6yH7r33Xnz88cfKxldZ14z7nl+B8lrZonU/vXEcHpwzRok+aWhuxew/fGi1rTpEpJ4PfnureNHvA2fz8cjrXzpEf0cF+SIlNhgDY0MwMDYUSVFBcNU7cSICaGoxorSmAaXVjSitbkBRZT3yK2pRWF6PkuoGmMx981kkOtgXLzw0B/3DA5Tvozlz5mDjxo2qhJPIBIdtmAhA/OssjUaDo0ePYuTIkUp0ynOf7cQXe9I5O6jb4sL88cHvboO3u4vScb755pt4+OGHOWA9NGzYMOzfvx/u7mouxTW0GvHgS18gq1D+aFStRoOXfj4Xkwf3U6JvHntrHfaczuMkJnJAPh6u2PbCg9Bq5T6mdJjMuP3pJTa/NeVqXhPCA73RL9Qf/cL8EBvqj7gwf0SH+Cn/3qk72to7UN1gQFV9MyrrmlFa3YDSms5ERml1I0prGtDUYrR6XJMGx+L/fjQLXjbQ12vWrMHNN9+sSjhNAHyY4LAdewGIFwqYO3cu1q1TowBcTWML5v/pExhajZwd1GVBPh746Pe3K1G47Pt8+eWXWLBggQrFmmxznIOCcOzYMURHRysZn8lsxqNvrsOBs+qcGOLl7oLlf7oLwX6e4rGsPZCBvy1K5UQmckDThvXHCw/N4TNIUe6ueoT6eyHM3wshfp4I9fdCqL8XfD3d4OvhCl+vzn+6u1r/pI8GQxuaDG1obGlDg6ENjYY2NLW0oaq+GTWNBtQ0tPzn3yvrmtGs2GcIjQZ44IYxeHDuWJs4AcdgMCAlJQX5+cq8l1kD4GauPbIdz6uQ4Fi/fj0OHTqEcePGiXeIv5cb7p4xHO+tP8zZQV3i4arHvx6+Sfnkxq5du3DHHXcwudFDzs7OWLFihbLJDQB4cfkepZIbANBoaMMzn27Haw/PE4/lmqFx0Gm1fbb0l4jUNTA2RLR9s9mCf286xoG43IfaViNyS6qRW1L9vT/npNPCx8MVPp5ucHHSwd1VD51OA293V+i0Gni46qF31sHF+fIfR01mCwytRpjMFjS3GmE2W9DU2gZYOl+zzBYLGls6kxoNQnWsevNzzZ/vmYlJg2NtJuYnnnhCpeQGACwDACY4bMcGAGcADJIO5KmnnkJqqhpZ7R/OHIFVe890uyIxOR6tVoNn7p+FxKggpeM8c+YMbrnlFrS1tXHQeuhf//oXpk6dqmx8H206ipW7TysZ24Ez+dh4OBM3jB0gGoePhyuGJ4TjWFYRJzSRgxnUL1S0/X1nLqKwso4DcZU6TGZUNxhQ3WBgZ1zB+JQY/PmeGQjy9bCZmLds2YLXX39dpZCaAKwDAB6IbDssAP6pQiDbt2/Hzp07legUNxdn/GTuWM4OuqIn7pymTH2By7l48SJmzZqF2tpaDlgPPfDAA/jZz36mbHybj2Th7bUHle7DVz7fq8Sy3WnD+nNCEzkYrUaD5Jhg0RjWHcjgQJBVuDg74be3X4PXfjnPppIblZWVuO+++2C52mNietdaAAaACQ5bswyAEuuAnnrqKWU6Zf7Egcp/K0+y7p01EjdPGqR0jFVVVZg9ezZKSko4YD00adIkvPnmm8rGdyavDH9bnAq13g98V21jCxZvOyEex9RhcZzURA4mNtQPHgK1G75W19SCvekscEx9LyUmGJ899QMsnD4UGhuqimkymXD33XejrKxMtdCWfv0vTHDYlnYAL6gQyIEDB7Bp0yYlOkWr1eD3C6fa1MOBrGfGyAT8Yv4EpWNsaWnBvHnzkJWVxQHrobi4OKxatQp6vV7J+CrrmvH4uxtt5ujTz1JPii8rDvHzQniANyc3kQORrr9x4Gw+Okys/UN9+7nlx9ePxkeP346YED+bi/8Pf/gDtm7dqlpYNQD+ExQTHLbnQwBKfMX71FNPKbM0aWj/MMwcmcjZQd95o/TXe2cqXYnabDbj7rvvxoEDBzhgPRQYGIjNmzcjKEjNlVytxg489tY6VNQ12UyfGtrasUSBVRzSe/GJyLr6hweItr8v/SIHgfpMTIgf3v/Nrfj5vPFw0tnex/BPP/0UL774ooqhfQHgP3trmeCwPa1QZBXHiRMnsHr1amU65tcLJsHNxZkzhAAAEYE+eOUXN8FVr3Yt5V//+tdYtWoVB6yHXF1dsWbNGiQkJCgZn8UCPP3JNpwrqLC5vv1y/1m0GjtEYxjUL4STnMiBRAX7irVtNltwMCOfg0C9Tu+kw0/mjsXSP92Jof3DbPIajhw5ggcffFDV8BZ/838wwWGb3gOgxLvlP//5zzArcoxfsJ8n7rluJGcHwcfDFa/98ib4e7kpHedzzz2nWgVq23rDoNdj5cqVmDhxorIxvr/hMLYdP2+T/dtgaMOmI5miMQyK5QoOIkcimeC4UFKNRgNPMKPeNTw+HEue/AF+Mncs9E46m7yGnJwc3HTTTWhpaVExvIMA9n7zPzDBYZsMAF5SIZCzZ8/is88+U6Zj7rluBPdsO/qHXmcdXvrZXOX3NX766ad48sknOWA95OzsjBUrVmDu3LnKxrjjZA7e33DYpvv5893pou0nxwTD2UbfEBJR92g1GkQEyr2HO3uxjINAvcbb3QW/vf0avPubBYgL87fZ6ygtLcXMmTNRXl6uaoh//86zhNPPZr0FoFqFQP70pz+hrU2NjLeLsxN+tWASZ4eD0miAp+6+FsPiw5WOc9euXbj//vtVO17LZuj1enz22WeYN2+esjHmltbgr59sg60PcVZhJYoq68Xad3bSISEigJOeyAEE+3nCxVluW+m5/AoOAvWKG8YOwBdP34OF04cqXQfuSurq6nD99dcjL0/Zk4VOAtj4v/+RCQ7b1QTgFRUCuXjxIt544w1lOubaEfEYlRTJGeKAfnbTeNwwdoDSMaanp2P+/PnKJAVtjZeXF9auXYtbb71V2RgNrUb8/t2NMLQa7aLPd57KEW1/JJ/nRA4hKshHtP3MAiY46OrEhvrhrV/djL/96Dr4Kb5N+koaGhowe/ZspKWlqRzm3wF856skJjhs2xsA6lQI5JlnnkF1dbUyHfPHO6fb7D436pmbJqTgx9ePVjrG4uJizJkzB/X19RywHoiOjsaBAwcwa9YsZWM0Wyx46qMtyCursZt+3yWc4BifHMPJT+QAQv29RNsvqKjjIFCP+Hm54fGFU7H8z3dhTHKUzV9PY2Mjrr/+ehw+rPQ22wwAlzztggkO21YP4F8qBFJXV4d//OMf6nwQCvHFPbNYcNRRjEyMxBN3TlM6xoaGBsyZMweFhYUcsB6YP38+Tpw4gUGDBikd5wcbjmDP6Ty76vuzF8vR1i53mkp/blEhcgi+nnLfeNc0tqCpxchBoG7RO+twz3Ujsfpv9+L2qUOg09r+R+umpibMmTMHBw4cUD3U5wBc8qQLJjhs378ANKgQyGuvvYbc3FxlOubH149GbKgfZ4idiwvzx4sPzVG6EGF7ezsWLFig+jI/Jbm7u+Odd97B6tWrERCg9gfdvel5+GDDEbsbgw6TGVmFlWLt+3m52cWbRiL6fpIJjiKu3qBumjKkH1b+5W48cstEeLrp7eKaampqMGvWLOzdu1f1UNMBLLvc/8l3DLavFp1bVcQZjUb8+c9/VqZj9E46/PHO6bDh2j50BYE+HvjXL+fBy91F2RgtFgvuv/9+pKamcsC66cYbb8SZM2fw05/+VPlYCyrq8Od/b4XZTgvHnsmTO11Aq9EgLOD/27vv8KiqxI3j3/TeE0hCCyBdeu+CUkSQjgL2gq59Xdvqrr2sa6+rWFcX69pRQQRBBJGuQgg1IZQASSgppM/8/pjgD12Rlplz75338zz3ARHm3HvOmcm975wSozeEiMPFRYUbK3t7gaaOyrHp0DyN12+dxONXjaJBcpxjris7O5vevXvbYeSGG7gaOOLQUgUczvAYnukqxr311lusWLHCMhXTpWUDzuzRWj3EgcJDg3nsTyNJS7T2g8+tt97Km2++qQY7npuHDh2YN28en376KU2bNrX8+R6sqOKmFz6n+KBzF47N2bXPaPmxBh98RMQ34qPNvc/3Fh1UA8gfykhN4B+Xn8krN03k1Kapjrq2H3/8kb59+7JhwwY7nO6bwB8OMVHA4Qx7gcetcCJut5ubbrrJUpVz48T+Roc9St0LDAzggUuH0y6jvqXP88UXX+SRRx5Rgx2jnj178uGHH7Jq1SoGDRpki3N2u+Gef89hy85CR7fN7n0lRssP06LRIo5n8l5tf2m5GkB+V4PkOG6fOph375zKGV1bOG5k+Pz58xk4cCB5eXl2ON0i4LajPieo2zrGE0CBVd4oX375paV+YF4zpo96iIPcNGkAAzs2s/Q5fvTRR1x99dVqrKMICAhg+PDhfPPNNyxZsoSxY8cSaKP1Ft74agVzV25yfDvtMRxwVNe49GYRcTiTI7UOlCjgkF9rlp7Eg5cN56P7LmBc/1MduRbUf//7X4YPH26n3f3uAI6axASr+zpGMfAwYImvi2+66SbOOOMMQkJCLFE5o/u244sfsli5cYd6is1NOb0zk07raOlzXLx4MVOnTqWmpkYNdgQNGzbkwgsv5OKLL6Z58+a2vIYlmbk898liv2iv4jKz028qq/VeEnG6yDBz94z7S8rUAAJ4go2LhnVlePdWBAY6dyG/559/nmuvvRaXyzZfIKwE/nUsf1EjOBzWVzmGVMsXMjMzef755y1TMQEBcPeFQ4z+8JST1799U24Y38/S57h582bGjh1LWZluln4rLCyMCRMm8MUXX5CTk8P9999v23Bje/4Bbn9lFi6XWw3rA1UawSHieCa/IS8pq1AD+LlTGiTx8LQRvPP3KYzo2dqx4UZ1dTU33HADV199tZ3CjTLgAuCYvu3QCA5nOQg8gEV2Vbn77ruZMmUKKSkplqic9ORYrh7Th0feXaCeYkNtM+rz0OVnWvoHzu7duxk6dCh79uxRg9WKiIjgjDPOYOLEiZx99tnExdl/xfGDFVX85V8zKfKjOdvBQWbXwKjWCA4RP/icMRdwKET1X11aNmDK4E4M7Njc8Tsv7tmzh0mTJrFgge2ehW4G1h7zZ4m6teO8VNsJmpg+kf3793PHHXcwffp0y1TOxNM6MHfVJlZu0FQVO6mfEMPjfxpJeKh1P7JKS0sZOXIkW7Zs8fv2SkpK4uyzz2bs2LEMGTKE8HDn7IDhdsPdr3/FZocvKvpb0ZGhRsvXFBUR5zMZcGidH/8SGhLE8O6tOHdQR1o2SvGLa166dCnjx49n+/btdjv1mXhmKRz7Z4m6uONUAvcBL1vhZF555RUuv/xyunfvbonKCQwI4O4LhnDu/W9xsLxSvcUGwkODeeSKESTHRVn2HF0uF+eddx7Lly/3z5vS4GC6d+/O0KFDGTJkCL169SIoyJm7Xrz8xVLmrdrsd22cGh9ttPwqBRwijhdicLckBRz+oWlqIiN7t2F037Z+tcPim2++yRVXXGHH6dO7gEuA45oPrIDDmf4N3Aq0sMKD3w033MB3331HgEXGfaUnx3LNmD7885356ikWFxjg2Q62rcW3g/3zn//Mxx9/7Fdt07x5c4YMGcLQoUMZPHiwI6aeHM28VZt5aeYPfvlebJKaYLR8DR8Xcb4gg1NQa/QZ41jx0REM6dqCUb3bWP5+sq5VVFRw3XXXWWo0/XFwAxcB+cf7DxVwOFM1cBfwlhVOZvHixbz99ttMmTLFMhU0cWAHFvy4hR/W5aq3WNi14/pafjvYp556iqefftrxbdG0aVP69+9P//79GTx4MM2aNfOrvrgmexd/f3U2Lrd/LiraulE9sz/UNIJDxPFMrvVT41LA4SRR4aGc1qk5w7q1pGfbRo7c4vVoduzYwYQJE1iyZIldL+EeYPYJfZboLeBY7+JZi6OzFU7m1ltvZfTo0URFWWOaQUAA3DF1sKaqWNjZfdpy/pAulj7HTz75hL/85S+Oq/vAwEDatWvHgAED6Nu3LwMGDKBBgwZ+2xd3FhRx4/OfUVFV7bd10L5ZqtHyNYJDxPncbrex0b7++ADsNPHREQzo0JTTOjWjV5smhIYE+W1dzJ49m4suuohdu3bZ9RI+Au490X+sgMO5XMAtwBwrnMz27dt56KGHuP/++y1TQenJsdx67kDuen2OeovFdG3ZkL9OGWTpc1y+fDlTp06lpsb+3yxHRkbStWtXevfuTf/+/enbty8JCQnqiEDRwQque/YT9hb777a/pzRIIjUxxug5VNdoBIeI01VUVRMRFmKk7LBQPRLZUZP6CfQ9NYPTOjWjU/N0x27teqzKysq49dZbefbZZ3Hbd8TpGjxbwp7wBejd7GxfA7OA4VY4mUceeYSpU6fSpk0by1TQWb3asCQzly+XrldvsYj05Fj+cfmZRhcbO5odO3YwZswYSktLbVe/gYGBtGrVip49e9KzZ0969erFqaeeSnCwfhz8VmV1DTe/8Dk5u/b5dT2M7tvOaPk1Lhd+OjNIxK9UG5wm4s/f9ttJRFgI7ZulMqB9MwZ0bEp6Uqwq5VAqsGYNU6dO5aeffrLzZewFxgAlJ/MiuqN1vluBIYDxT+7KykquvPJK5s+fb5kFRwH+OnUwa7fuJnf3fvUWw6LCQ3nyqlEkxFh3ZeuioiJGjBjBjh322Gq4Xr169OzZkx49evzyqz8sCHrSN9o1Lm6b/iUrNmz363qIiwpndJ+2httC6YaIXzD4Vo+JCFP9W1B4aDAdm6fTtWUDurVsSLum9TWd6DdcLhePPPIId955J5WVtp52XwlMBE56qzoFHM73E/AmnlVojfv222958803ueCCCyxTQZFhIdx/yXAufeR9bUVoUHBQII9ccRbN0pMse45VVVVMmDDBsul4SEgInTp1olevXvTq1YvevXvTtGlTda7jVONycccrs/j2py1+XxeXn9WTyPBQs++76mp1ShE/YPLLr24tG7LgR33mm5YcF0W7jPqc2jSVzqek0y6jvqVH9Jq2detWLrzwQhYsWGD3S3EBFwLz6uSZQl3DL/wdOAewxNfiN954I2eeeSYpKSmWqaC2TeoxbWRPnvt4sXqLITdNGkiPNo0sfY7XXnstc+ZYZ82W+Ph4BgwYwIABA+jZsyddu3YlIiJCnelkfsK63Nz52lfMXbnJ7+vi1KapTDqtg/HzKK9UwCHiD0yunzD59E40SInl2Y8WsyVvrxrDByLDQmjduB6nNvUEGu0y6lM/IUYVc4xmzJjB1VdfzYEDB5xwOTcC79TViyng8A/bgSeBv1rhZAoLC7ntttt45ZVXLFVJFw7ryrL121i6bpt6jI9NOb0zEwa2t/Q53nfffbz44otmbwYiI+nTpw/9+vWjb9++DBw4kJCQEHWgOuJ2w0NvfcPsZRv8vi5iIsN44NJhlliwTTuoiPiHQMPTlwd0aEb/9s1YvDaHd+f/yJLMXFwuTZGrC6EhQTRNTaRNk3qcmpFKu6b1aZ6W5PeLgp6I3bt3c9111/Hee+855ZIeBp6qyxdUr/IfccAmINkKJxMQEMD8+fMZMGCApSopf38p5z34NoVFB9VjfKRf+wwe/9MoS/+Qe+uttzjvvPOMrEjdokULRo0axVlnnUW/fv0IDQ1Vp/GCyuoa7n3ja2ZpwWECAuCRK87itE7NLXE+uXv2M+7ON9RJRRxuyXPXEBxknfUV9hYd5OuVG5m7cjM/bcnTNOZjEBYSTEZqAs3SEmmWnkTT1ASaN0iiQVKcwoyT5Ha7eeWVV7jlllvYt88xi5+/DlxCHa/Ao57mX66jjhOyk9GqVSt+/PFHwsKstbDTT1vyuOLxD/WDzAeapSXy6i2TiI6w7kP7woULGTJkCBUVFT4pLzAwkP79+zNy5EhGjRpFq1at1FG8rOhgBTe/8LnfLyh6yJTTO3PjxP6WOZ8tOwuZdO8MNYyIgwUHBfL9c9dY9sHkYEUVKzZsZ+m6bfycvYv12/L9+j4xOS6K9KRYGqbE1YYZiTRLSyI9Odb4SBwnWrduHVdccQULFy500mW9hWc72Dp/I2mKin95AbgWOMUKJ7N+/XoeffRR7rjjDktVUodmadwwvh+PvLtAPcaL4qMjeOLqUZYONzZv3sz48eN9Em60a9eOiRMncsEFF2hhUB/as7+EG579lA3bC1QZQLuM+lw7to+lzqlSYbOI4yXGRlr6W9fIsBD6t29K//ZNf/lcysrdQ1ZuPpt3FpKdt5fNOws5UFpu+7YIDAwgJS6atKQY0pNiSUuKIS3x/39NTYohVAt/+kR5eTkPPvggDz/8sN13SPmt9/AsKuqVH/AKOPxLJXAT8LFVTuiBBx5g4sSJtGzZ0lIVdc6gjqzN2c0XP2Sp13hBaEgQT1w9igbJ1t2uND8/n2HDhpGfn++1Mho1asQll1zClClTLPce8AdZuXu44bnPKDhQqsoAYqPC+ce0EZZbsV5rcIg4X3JspL3uY4KD6NAsjQ7N0n715/uKy8grLGJnYRE7C4vJKyxiz/4S9pWUsbfoIIVFBymrqPL5+UZHhJIYE0l8dATx0eHER0cQFxVOYuz//1lcVDjJsVHUS4i21FQhf/XNN99w5ZVXsmGD49YF+wCYCnhtBXEFHP7nE+ArYKgVTqasrIwLL7yQ7777jqAga91U/+2808nO28u63D3qNXUoIAD+fv4ZtG+aatlzLC8vZ8yYMWzevLnOXzswMJAhQ4bwpz/9iZEjR1qu3/uL2cs28MB/5nLQwI2mFQUGBnDfxUNJS7TeCvaaLijifIk2CziOJCEmgoSYCNpm1D/yPUZlNSVlFZSUVVJaXklpWSVFB8upcbkpLfd8S19SVvmH634FBEB0RBhBgQFEhYcSHBRIZFgooSFBhIUGEx4aTGhwEBFhocRGhimwsJGCggJuvvlm/v3vfxtZ+83LPgQmezPcUMDhv/4MrAYssf3CkiVLeOKJJ7jpppssVUmhIUH888qzOP/Bd9hfUqZeU0cuP6snZ/aw7roSbrebSy+9lMWL63bL4MjISKZNm8Y111xD8+bN1REMOVheyT/enq/RWb9x7di+9D01w5LnpoBDxPmSYqP85lrDawOI5LgoNbz8oqamhldffZXbb7+dggJHTpt9GfgTXg43ABTn+adM4DkrndCdd95JVpb1HjjSEmN48NLhSr7ryNBuLbn8rJ6WPsfbbruNt956q85eLyoqiuuvv55NmzbxxBNPKNww+cGXs5upD7yjcOM3RvZuw/lDulj2/KqqNUVFxOmSHDKCQ+REfPXVV3Tu3Jlp06Y5Ndx4GJiGD8INUMDhz+4B8q1yMmVlZVx00UXU1Fjvm7oebRpx+9TB6jEnqU3jetx5wRlYeXHtV155hX/+85918lrh4eHcdttt5OTk8OSTT5KWlqZOYIjL5ebVL5dx8T/fZ1v+flXIYTqdks4dFv98q67RCA4Rp0uMUcAh/icrK4tJkyYxbNgwfv75Z0feggHXALdRx1vB/hFN/vZf5cB+YJRVTmjHjh1ERUXRt29fy1VWq0YpVNe4WLVpp3rOCUhNjOHFG8cTGxlm2XOcNWsWU6dOxeU6+W+LR48ezaeffsrEiROJjNRNm0lrsndxy/Qv+OKHLCfOZT0p6UmxPH/DWKIsvJMRwMYdhcxduUkNJuJgZ/dpS7P0JFWE+IXCwkJuv/12Lr74YtasWePUy6wEzgNe83XBGsHh314BVlrphO666y4yMzMtWVl/Oru3pdeOsKrI8FAev2qUpYefrlmzhnPOOYfq6pMbOdeyZUu+/PJLPv74Y5o1a6bGN6jgQCl3/3sOF//zPdbm7FaF/EZ0hOd9mRATYflzrdEuKiKOl6T1KMQPVFZW8vTTT9O8eXOeeuqpk77vtLADwHDgXROFa5FR/+YCrge+BWtsP15eXs7555/PkiVLCAkJsVRlBQTAXRcOobDoIEuztqn3HIPAwADuv2QoLRsmW/dBuKCAMWPGUFRUdFKvM23aNJ588kkiIiLU8AZVVdfw9rzVvPzFMg6WV6pCfkdYSDCP/2kUpzSwx7elNS4FHCJOpzU4xMncbjf//e9/ufXWW8nOznb65eYBI/BsaGHm+UNdzu99B7xtpRNauXJlna2DUNeCgwL5x7QRZKQmqOccg5smDWRAB+uOZCgvL2f06NEntR1sfHw877//Pi+++KLCDYNcbjdfr9jIOffO4OkPFyncOIKgwEAeunw4XVo2sM0517g0tUjE6ZIVcIgDud1uPvnkE7p27cqkSZP8IdzYCPTFYLgBCjjE41ag2EondM8997BkyRJLVlZsZBjPXT+G9KRY9Zw/MOX0zkw6rYOlf+hcfvnlJ7UdbKdOnVi1ahUTJkxQgxtSWV3Dx9+tZcLdb3LbS1+Su2e/KuUIAgLgzgtOt3To+HuqNUVFxNHCQoKJDA9VRYhjuN1uPvroI7p06cKYMWNYtWqVP1z2YjzhhvEURwGHAGwH7rTSCVVVVTF16lQOHDhgyQqrnxDD9L+MV8hxBEO7teSGCf0sfY73338///nPf0743w8YMID58+eTkZGhBjfgYHkl/5mzkjF/+zf3/2cuubv3q1KO4s8TBnBWrza2O29NURFxtqQ4jd4QZ3C73cycOZPu3bszbtw4Vq9e7S+X/i9gEBbZoVMBhxzyDBZbcHTLli1cfvnllq2w1MQYnrthDClaGOtXerRpxN0XDSHQwvvBfvDBB9x9990n/O/PPvtsZs2aRVxcnBrcx3btLeb5T75n5O2v8eQH37Fnf4kq5RhMG9mTKad3suW519RoioqIk9WPj1YliK0dCja6devGqFGjWLFihb9cejlwCXAVnl1TLEEBh/xyDwlcUfurZbz//vv8+9//tmylNUqJ57kbxtpiJwJf6NAsjceuHElosHV3oF62bBnnn3/+CW8HO3nyZD744AOtt+FDlVU1fLV8A9c8/TFn3/E6r365jKKDFaqYY3TlqF5MG9nTtudfXVOjRhRxsHoJCjjEnlwuFzNnzqRr166MGjWKlStX+tPl5wL9MbAN7NFoFxU53HLgeeBaK53UNddcQ58+fWjRooUlK61ZWiLPXT+WK5/4kKLScr/tPG0z6vPUNWcTERZi2XPcvn07o0ePpqys7IT+fa9evXjttdcIDtZHpy+s35bPJ4symbVsvV+/t07GtWP7cuGwrva+gXRrBIeIk6VoBIfYTGVlJe+++y7/+Mc/yMzM9Mcq+AY4B4tMSfkt3aXLb/0NGAdYZon9kpISJk+ezOLFiwkNteYiVC0bJvPyTRO49ulP2L2v2O86TatGKTx77WhiIsMse45lZWWMGzeOvLy8E/r36enpfPjhh4SFhelTwou25x9g3qrNzF62nvXb8lUhJyggAG4Y35+pZ3S2/bVokVERZ6ungENsYvfu3bz44ov861//YteuXf5aDY/j2aCi2qonqIBDfqsIuB74r5VOasWKFdxxxx088sgjlq24ZmmJvHzzBK556mO27t7nNx2mbUZ9nr1uDLEWDjdcLheTJ09m2bJlJ/Tvw8PD+eijj0hLS9MnhBds2F7A/NWb+WbVZjbuKFCFnKSAAM8WzecM6uiI61HAIeJs9TVFRSxuxYoVPPvss7z99ttUVPjtFNlS4DLgHaufqAIO+T0fADOBkVY6qccee4wBAwYwatQoy1ZcWmIML980geuf+5TMnN2O7yhdWzbkiatGWn57t9tuu41PPvnkhP/9nXfeSY8ePfTJUEdcbjc/b9nFN7Whxo6CA6qUOhIaHMSdF5zB8B6tHNVfRMS5tAaHWNGBAwd49913mT59uj8tGnokm/CM8P/ZDicboO4rR9AEWAtYaouQmJgYfvjhB9q0sfZWh2UVVdw6/QsWr93q2A7Sr30GD08bQViItXPS119/nYsvvviE/33Tpk3JzMwkPDxcnwonYW/RQVZu3MHSrG0s/Cmb/AOlqpS6/nyMDOPRK8+ia8uGjrqu5z5ezGuzlquBRRzq84cupn5CjCpCjHO5XCxYsIBXX32VDz744ITXbHOY1/CM7rfNHHyN4JAj2QrcA/zTSidVXFzMxIkTWbJkCdHR1k38I8JCeOxPI3nk3QV8uHCN4zrHuP6ncuvk0wgKtPZGTAsWLOCKK644qdd4+OGHFW6cgPLKan7anMcPWbksXbeNrG170Bfx3lMvPponrzmblg2THXdtmqIi4lyBAQEkx0WpIsSozMxM3n//fd544w22bNmiCvEoxLPD5gd2O3EFHPJHngAmAJYam7927VrOP/98PvzwQwICrDsIKSQ4iNunDqbTKek88J95VFRV275DBATA5Wf1tMWWk9nZ2UycOJHKyhPflrtfv35MmDBBnwTHoLKqhrVbd7Nq4w5+WLeNn7bkUVWt7T19oWWjFJ66+mxS4p35kFDjUsAh4lRJsZGW/7JEnGnNmjW89957vPPOO2zcuFEV8mtfARcDO+148go45I9UAxcBKwFLfYX98ccf8+ijj3LzzTdbvhJH9GxNk/oJ3PLiF7beYSUmMoz7Lh5Gv/YZlj/Xffv2MWLECPLzT24XjnvuucfSIZpJJWWV/Lh5J6s37WTVpp1k5uymUoGGzw3t1pK/n3+6pbdnPukfRDUa+iPiVFp/Q3zF5XKxatUqZs6cyTvvvENWVpYq5X+VAbcBzwC2/eGrgEOOZh1wF/Cw1U7sr3/9K126dOH000+3fCW2y6jPm7efy+0vf8ny9dtt1wlaNEjmn1eOoFFKvOXPtaqqikmTJp30D67U1FQGDhyoT4BahUUHydy6m9WbdrJ03TbWb8vX4o8GBQYGcPXoPlwwtCtOz+A0gkPEubRFrHhTcXExc+fO5fPPP+fTTz9lz549qpQjWw2ch2cNRltTwCHH4lFgFNDPUje9NTWce+65LF++nCZNmli+EhNjInj+hrG8M281z338vW2mrIzrfyo3ThxAeKg9Pi6uu+46vv7665N+nYkTJxIUFOSXb/jqGhcbdxTw46Y81uXuYV3uHrLzCrWGhkXER0fw4KXD6dGmkV9crwIOEefSCA6pa5mZmXz22Wd8/fXXfPvttyc1VdlPuPGM2LgFcMQeuAo45Fi4gMuBVVhsqkpBQQHjxo3j22+/JSrK+vPPAwMCmHJ6Z/qd2pS735jDT5vzLHuuCTER/O280xnYsZltOupTTz3FCy+8UCevNWnSJP/4qeaGbXv2syZnF2uyd7MmO48N2wu0sKNFtW+aykOXn0lqov/sOFCjvijiWBrBISdr/fr1zJ8/n/nz5zNv3jyN0jg+ucCFwHwnXZQCDjlWWcDfgUesdmIrV67k3HPP5eOPP7bNN+6N68fz8k0TeOvrVbzw2RLKK601mmNEz9bcOLE/8dERtumgX3zxBX/5y1/q5LUaNGhAnz59HPlGLjpYwZrsXZ6jNtQoKi3XJ5zFBQYGcOmZ3bnsrB5+tyBfjUtDh0ScSiM45Hi4XC6ysrJYtGjRL6HGzp07VTEnUJXAy8DNQJHTLk4BhxyPJ4CxgOWe/GbOnMl1113Hc889Z58HloAAzhvShSHdWvD0h4v4avkG41MAmqUn8ZeJ/enZprGtOuaaNWuYPHkyNTV1s8hlly5dCHTAQ6TL7WbLzr38tCWPn7fksSZ7Nzm792qqic2kJ8dy38XD6Ng8zS+vX6OJRJyrXry2iJUjy8vLY+nSpSxdupQlS5awfPlyioqKVDEnZzWe7V+XOvUCFXDI8ajBs2XQasByX+0///zzNG3alJtuuslWlVo/IYYHLh3O1NM788JnS1i8dqvvbzASorlsRA9G921ru2+Hd+/ezahRo+r0B15GRoZt36Rb8vayfP12lq/fzooN2zmg0Rm2NqJna26dfBpR4aF+WwcKOEScSyM45JDS0lJWr17NihUrfjnWrl2riqnDKgbuBp7Es1OmYyngkOO1AbgDeNyKJ3frrbfSpEkTJk6caLuKbZtRn6evHc3P2bv4z5yVfLN6My4vD81ukBzHeUM6M7pvO0KD7begZllZGaNHjyYnJ6dOX9dOAcfBiip+WJfLwp+yWbx2KwUHSvUp5QCpiTHcNnmQLbZl9jbt1iPiXClx5gKOxx57jLCwMIYNG0aLFi3UGD60fft21q1bx9q1a1mzZg1Lly4lMzOzzkbiyv/4ArgayPGHi1XAISfiKeBMYIjlboRdLi644AJbr6HQvmkqD08bQd7eYj5bnMnM79exs7DuRieEBAfRu21jxvY/lb6nZhBo0z0mXS4X5513Hj/88EOdv7bVA46igxXMXbmReSs3s2LDdiqrdUPgFIGBAZxzWkf+NLo3kWEhqpDa97qIOE9cVLjRHdpmz57NnDlzAGjatClDhw5l2LBhDBgwgKSkJDVQHdi2bdsvQUZmZuYvvx44cECV4xu7gFuBN/zpogPU7nKC0vBMValnxZNLTk5m8eLFjkjk3W5Yl7uH+as3syxrG5lb9xz3tonx0RF0a9WQPu2acFrHZsRGhdu+Xm666SYee+wxr7z28uXL6dq1q6Wut7K6hgU/buHLH9bzfeZWqhRqOE7Lhsnccd7ptMuor8o4zPXPfsqiNTmqCBGHadEgmbf/PsVY+W3btmXdunW//3ncsiU9e/akZ8+e9OrViw4dOhASotD59xQUFLB161a2bt1KdnY2WVlZrFmzhnXr1inIMMcFTAf+Cuz3t4vXCA45UXl41uOYiQWDsoKCAoYNG8aCBQto1KiRrSs6IADaNqlH2yb1YHRvyiqq2LSzkI3bC8grLGL3vhJKyyspq6wCICoslISYCFITY2hcL56WjVJoXC/eUZ3v+eef91q4AVBdbZ2piTsLivhg4c98tjiTvcVl+uRxoMTYSK4c1YsxfdsRGKjvHX7LrSkqIo5kev2N7du3H/H/bdiwgQ0bNvDmm28CEBISQqtWrWjbti3t2rX75ddmzZoRFhbm7Bv+vLxfAozDj5ycHHJycigt1dRYi/kZuBJY7K8VoIBDTsYXeKar3GDFk8vOzmbw4MEsWLCA9PR0x1R6RFgI7Zum0r5pql92uo8//pjrrrvOq2UUFBRY4lorq2t49L0FfPtTtj5tHCg0JIipp3fm4uHdiPTjRUSPRmtwiDhTfYMBR3FxMcXFxcf896uqqlizZg1r1qz51Z8HBASQnp5O06ZNadq0KRkZGTRp0oT69euTkpJCWloa9erVIzzcOiNnS0pKKCgoYM+ePRQUFFBQUEBhYSEFBQXs3r37lz/Lz88nNzeX8nItVm4Tu4A7gVfxbAzhtxRwyMm6DTgN6GTFk9u0aRODBg1iwYIFpKamqrVsbt68eZx77rleX4SqsLDQGg/AwUE8ftUovlm9mcff+5a8vcXqBA4QGBjA8O6t+NPo3qQlxqhCFHCI+KWUeHMBxx+N3jgebrebHTt2sGPHDr777rsj/r2YmBhSUlKIj48nLi6O2NjYX36NiooiMjKSsLAwgoKCiI2NBSA2NpagoN9fAL64uJjq6mr279+Py+Vi//791NTUUFRURFVVFSUlJVRUVHDw4EHKysooLS39JbhQYOE4B/Fs/vAwUKLqUMAhJ68CmAwsByy5mfmGDRsYOnQo33zzjRaNsrFly5YxevRoKioqvF6WVUZwHDKoU3N6t23Cq18u4+15qymrqFKHsHGwcdmIHjSuH68KOdaAw6WAQ8SJ6sWbu22sq4DjWB3viBGRY/nxCPwHz+6W21Udh91vqQqkDmRh0Wkqh/z8888MGzaM/fv3q7Vs6Oeff+bMM8+kpMQ3wfSOHTssVwfhocFcNbo3n9x/ERcM7UKEdtiwjaDAQEb0bM1/7zqfey8eqnDjeO/gNIJDxJFMrsGxc+dONYDY2RKgH3AhCjf+h0ZwSF15GRiMZzSHJa1YsYLhw4czZ84cYmI0LNwusrKyGDp0qE+njcyfP9+y9ZEYE8F14/px3pCu/GfOSj76bg3FByvUUSwoJjKMMX3bMWlQR01FOQlujeAQcaRUg5+L27ZtUwOIHW0A/ga8r6o4MgUcUpeuAnoCzax6gj/88APDhw9n5syZJCQkqMUsbu3atQwePJg9e/b4tNzVq1eTn59PSkqKZevGE3T05cpRvfh65Ub+M2clG7YXqNNYQMOUOMb2O5Vx/U8lJjJMFXKSNIJDxJnqJ5gLOKw4UlPkDxQA9wIvAJqnfBQKOKQu7QfG4dmWKNKqJ7l48WIGDBjArFmzaNCggVrNojIzMzn99NN9Hm4AuFwuvvnmGyZNmmT5egoNCWJEz9aM6NmalRt28MniTL5ZvZmD5ZXqRD4UFhLM4M7NGdWnLd1aNSQwQNu91hXlGyLOExsZRqTBqZYKOMQmDgBP41lEdL+q49go4JC69iMwDc+iN5a1Zs0a+vbty+zZs2nVqpVazWJWrlzJmWeeaSTcOGTOnDm2CDgO16VlA7q0bMDtVYP49qdsZi1dz+K1W6mqrlGn8pK2GfU5u3dbhnVvqdEaXlLjcqkSRBwmNSnWaPm5ublqBLGy/cBTtcc+Vcfx0VdM4i1PAtdb/SQTExOZOXMmvXv3VotZxMKFCxk1ahQHDhwweh6xsbHk5uYSFxdn6/osr6zmp815LPw5m29Wb2aXtpo9ac3SkzijyykM797KLxYMra6uxu12ExJi5tvWCx56h8yte9TxRBxkQIemPH7VKKP3f/v26blRLGdf7TPU02jExglTwCHeEgJ8DQyw+olGRUXx3//+l+HDh6vVDJs7dy5jxozx2W4pR/PEE09www03OKqOt+wsZOXGnfy4eSerNu1U4HEMQoOD6NQinb7tMhjUuTnphr959KWioiLGjx/PzJkzCQszM0LlvAffIStXAYeIk0w6rQO3nHuakbJLSkq02LxYzV7gCTzBRpGq4+Qo4BBvqg+sACy/0EVoaCivv/46kydPVqsZ8u9//5tp06ZRWWmdtSMyMjLYuHEjwcHOnc23Z18Jqzbt5MfNeazbupsN2wuoqKr2+/6YkZpAj9aN6dOuCd1aNSQ81P9mdO7YsYMRI0bw008/UVlZaWwEx5T739ICuiIOc+3Yvlw4rKuRsjMzM2nXrp0aQaygEM/6Gs8A+sapjmgNDvGm3cAEYD5g6cnplZWVTJ06lR9//JEHHniAoKAgtZ6PuN1u7r33Xu655x7cFltNMCcnh3feeYfzzjvPsfVfLyGaYd1bMqx7S8Cz3sGWvL2s27qHrNw9rNu6h407CiivdG7oERwUSOvG9ejYPI3Op6TTsXk6CTERfv2+/PnnnxkxYgTbt28HIDAw0Ni5aBcVEeepnxBtrGxtESsWkA88BjwHlKg66vi+TlUgXrYEuA540Q4P2g8//DA//vgjM2bMIDExUa3nZRUVFVx66aXMmDHDsud4yy23MGrUKNuvxXGsggIDadEgmRYNkjm7T9tfHjDzCovYums/W/IKydm9j+y8vWTv2kdRabmtri8mMoymaYm0bpRCq9qjeXoSIcEKNQ+ZO3cu48eP/9U6OGYDDrWJiNOkJpqbIqIFRsWgLcCzwHSgVNXhHQo4xBemA92By+xwsrNmzaJHjx58+OGHdOjQQa3nJTt27GDixIl8//33lj7PvLw87rjjDp599lm/bavAgAAaJMfRIDmOPqc2+dX/21dcxo6CA+zeV8LufSXs2lvErr0l7N5XzO59JRQWlfp0m8+gwEBS4qOonxBNamIMqYkxNK4XT+P6CTSpn0Cin4/MOJonnniCW265herq/x+xExgYSIDBbW/dSjhEHMdkwKERHGLAPDzra3wGaGswL1PAIb5yNdAUON0OJ7t582Z69uzJv/71Ly666CK1Xh1buHAh55xzDnl5ebY433/961+cf/759OzZU433GwkxESTERHBq09///1XVNRwoLae4rIKSskqKD1ZQctjviw6WU1JWidvtprrGxcGKqt99nYjQYEKCg4iJDCMsJJiwkGBiIsOIjw4nLiqcuKgI4qLCSYqNJDBQy0sdr4MHD3LZZZfx9ttv/8//Mzl6A6DGrXtBEScJDAwgOS7KWPkawSE+UgbMqA02flZ1+I4CDvGVSmA8sAiwxcpO5eXlXHzxxXz//fc8++yzxhbYc5rp06dzzTXXUFVVZZtzdrlcnHvuuSxbtozk5GQ14nEICQ4iOS7K6M2sHP1mf/z48SxfvvwIDyNmAw7lGyLOkhwXRXCQuc8VjeAQL9sIvAK8jGcRUfGxQFWB+NABYASQZ6eTnj59Ov369SMzM1MteBIKCgoYO3YsV1xxha3CjUNycnKYMmUKNTU1akxxjFmzZtGpU6cjhhtgPuDQIqMizmJyegpoBId4RQnwGtAfaAU8jMINYxRwiM9/rgAjsdmKwUuXLqVTp07cdttttnw4N23u3Ll06tSJjz/+2NbXMWfOHO688041qNheTU0N99xzD2eddRb79u37w79relcptwIOEUdJTTAXcLjdbnbs2KFGkDrpTsBC4GIgDbgE+K72z8UgBRxiwkrgXMBW+05WVVXx8MMPazTHcSgrK+PGG29kyJAhjrmhePDBB3n00UfVuGJbW7duZfDgwdx99924XEef/2F8DQ4tMiriKKmJ5raIzc/Pp6ysTI0gJ+Nn4O9AS2AA8Dra6tVSFHCIKZ8D19rxxDWa49gsXLiQzp0788QTTzjuG9hbbrmFF198UY0stvP+++/TuXNnvv3222P+NyZ3UAFw68swEUepF68dVMR21gB3AW2ADsD9wCZVizUp4BCTXgD+accTP3w0x8qVK9WSh9m3bx+XXnopAwcOZP369Y68RrfbzVVXXcVLL72kBhdb2L9/P1OmTGHSpElHnZLyW6YDDuUbIs6SlmQu4Ni6dasaQI7Vz8DdeDZHaA/cC2SpWqxPAYeY9lfgHbue/NKlS+nWrRsXXnghu3bt8uuGrK6uZvr06bRp04ZXX33V8fPmXS4X06ZN45577tG7WCxtwYIFdOrU6Xe3gBUR8bX6CeamqGgEh/yBcmAWcA2QgWekxj2A5qXbjAIOMf6cCFwAfGrXC3C73bzxxhu0atWKhx56iJIS/5uG9/nnn9OhQweuuOIKdu/e7VfXfvfdd3P55ZdTUVGhd7NYyv79+7niiisYNGiQvrUUEcswuYuKAg75jTw827mOBZKBM4HnAP3QtDEFHGIFVcBEPOty2FZRURG33347zZo14/HHH/eLRazmz5/PoEGDGDlyJOvWrfPbDvzyyy/Tu3dvNm7cqHezWMLMmTNp374906dP1y4kImIZYSHBxEVFGCtfW8T6vVLga+A2oBvQELgc+Lj2/4kDKOAQq6jEE3LMs/uF5Ofn85e//IXmzZvz8MMPH/d8dzuYO3cuAwcOZNCgQcyfP1+9F1i1ahVdu3blnXfeUWWIMdu3b2f06NGMGjWK7du3q0JExFJSE2MwuayPRnD45fPFAuBOoB8QDwwBHgZW4BlJLg6jgEOspAw4G8+e0raXl5fHbbfdRuPGjbnuuuvYvHmzra+nvLyc1157jW7dunHGGWcc1y4M/qK4uJjJkyczbdo0bUMnPlVVVcXTTz9N27Zt+fTTT1UhImJJ9Q1uEQsaweEHioAv8WzjOghIAE4D7gMWAdWqIucLUBWIBcUAXwG9HPVmCwhg0KBBXHLJJYwfP57w8HBbnHdWVhavvfYar7zyCoWFheqdx+jUU0/ljTfeoHPnzqoM8aqZM2dy8803k5XlncXd4+Li2L9/v7HrG3Hbq+zZX6KGFnGAs/u05c4LzjBSdlVVFREREdTU1KghnGMrnuBiMZ4vSNegURl+TwGHWFU8njlyXR15cfHxjB8/nnHjxnH66acTFhZmqfPbsWMH7777LjNmzNA2uCchMDCQ8847j8cee4zk5GRViNSpdevWcdNNN/HFF194tRwFHCJSV6aN7Mm0kT2NlJ2dnU2zZs3UCPa1E1j+myNf1SK/pYBDrCwJz5ocHZx8kbGxsZx11lkMGzaMwYMH06hRI5+fQ01NDT/88ANffvkls2fPZsWKFbhcCsDrSmJiInfddRfXXHMNgYGaGSgnp6CggPvvv59nn33WJ99EKuAQkbry9/NPZ3TfdkbK/vbbbxk4cKAawfrcQDbwI/AznrUyluMJOESOKlhVIBZWCJwBfIFnpWNHKioq4u233+btt98G4JRTTuG0006jW7dudO7cmfbt2xMRUbcrjhcUFLB06dJfju+//97oA4zT7d27l+uvv5733nuPZ599lk6dOqlS5Ljl5+fz6KOP8vzzz/vldtQiYn8mt4jV+huWtA9PiPEz8FPtsQbQDzk5YQo4xPL39HgWCfoQz6rHjrdp0yY2bdrEyy+/DEBQUBAtWrSgWbNmZGRkkJGRQcOGDUlISCAuLo7Y2Nj/CUAqKiooKCigsLCQgoICdu7cyZYtW9iwYQObNm0iP18j+kxYtGgRXbt2Zfz48dx77720bt1alSJHVVBQwHPPPcfjjz9OUVGRKkREbMtkwKEdVIypBrYA64EsYMNhv9cNqdQ5BRxiByXASOAN4Bx/u/iamhqysrK8toCg+JbL5eL999/ngw8+UNAhf0jBhog4Tb14c7uoKODw7o8sIAfP1JLDf91Se1SpisRXFHCIXVQCU/AkvdeoOsTuDgUdH374IZMnT+Zvf/sbrVq1UsUIGzZs4Omnn+b111+ntLRUFSIijhAXFU5EWIix8hVwnBA3sBvIA3bUHnnA9tpfc/HsZFKsqhKrUMAhtnomBK4F9gD3qjrECWpqavjPf/7DW2+9xeDBg5k2bRrjxo0jKChIleNnFi1axFNPPcWHH36obQxFxHHSkmKNlr9161ZfFvcCnqkY9WuPlNpfU2t/b2L7vAN4gohDRxGwF8+XhwWHHXsO+30+Gn0hNqOAQ+zoPjxp8vOAngLFEVwuF19//TVff/01LVu25KqrruKiiy4iLi5OleNgZWVlvPXWWzz11FP8/PPPqhARcaw0g+tvgM9HcLwHfPMH/z8WSD7s90FAFBAKhAMRQAjwR3N63MD+2t+X4AkiKoFDQ//21f53MZ5wQ8QvKOAQu5qOJ+R4u/aHgIhjbNiwgRtuuIG//e1vnHfeeVx00UX07NlTFeMgy5Yt49VXX+Xtt9/mwAHdd4qI85lcYLS4uNjXu8UdbbhIUe0hInUsUFUgNvYJMBTYpaoQJyopKeGFF16gV69eNGnShBtuuIFVq1apYmxq//79TJ8+nS5dutCjRw9eeOEFhRsi4jdMTlHx8RaxLjxrVYiIAQo4xO6+A7oCi1UV4mS5ubk89dRTdOnShS5duvDoo4+yceNGVYzFFRUVMWPGDMaOHUv9+vW54oorFFKJiF8yOYLDx+tv7AIq1OIiZmiKijjBTmAQ8CTwJ1WH33saGAK0ceoFrlq1ilWrVnHzzTfTrFkzzjjjDM444wyGDx9OTEyMeoBh+/fvZ86cOcycOZMPPvhAO6GIiABpSX4TcGi7FhGDFHCIU1QCVwHL8Cw+Gq4q8TtlwJXAG0Ar4AfA8St0btmyhenTpzN9+nQiIiIYOHAggwYNom/fvnTr1o2wsDD1DB9Yv349s2fP5ssvv2TevHlUVlaqUkREDpPmPyM4ctXaIuYo4BCneQ1YDXwANFV1+I1cYAKegAtgPXAm8BV/vAK5o5SVlTFr1ixmzZoFQHh4ON27d6dfv37069ePPn36EB8fr95SB0pKSpg7dy6zZs1i9uzZZGdnq1JERI4gPDSY+Ghza8L7OODYqhYXMUcBhzjRKqA7nh1Whqg6HO9L4Dw8e7kf7ntgDDATPx3RU15ezsKFC1m4cOEvf5aenk7Xrl1/Ofr06UNiYqJ60VHs2bOHpUuX8t1337Fo0SKWLl2qURoiIscoLTHWaPk+XmRUU1REDFLAIU5VCIwAHgRuAgJUJY5TA9wP3ItnxfLfMxeYhGdET4iqDHbu3MnOnTv57LPPAAgMDKRly5Z07dqVLl26cOqpp9K6dWsaN27st3VUUlLCjz/+yKpVq1ixYgWLFy9mw4YNflsfbrfb7Ano01vE9kyuvwFag0PEnyjgECerBm4BPgdeBZqpShwjBzgfzy46R/NZ7d+dAQSp6n7N5XKRlZVFVlYWM2bM+OXPo6Ojad26Na1bt6Zt27a0atWKtm3b0rx5c0JCnJEVVVVVsWXLFrKysli/fv0vi7du3LgRl8ulznFYHzEpMEAJh4jdmdxBpbKykry8PF8WqTU4RAxSwCH+YAHQAfgHcDX6PtDuZtS244Hj+Dfv4gk3XgNCVYVHV1JSwvLly1m+fPmvf2gEB5OWlkbjxo1p1KgRDRs2pFGjRjRp0oSGDRvSsGFD6tevb5kH8127dpGbm8uOHTvYtm0bW7duZePGjaxfv56cnByqq6vV2MdQjyYp4BCxv7Qkc1NUtm/f7uvPMQUcIgYp4BB/UQpci2eqwitoNIcdHcATbMw4wX//FpBf2we0l+oJqq6uZtu2bWzbduQRuOHh4aSmphIXF0d8fDzx8fG/+v3h/x0b67npTUhI+OXfR0VFUV1dTUVFxf+UXVxcTElJCeXl5RQVFXHw4EH2799PYWEhhYWFFBQU/HLs2rWLqqoqNdpJMh1wBCjgELE9P9pB5SBQoBYXMUcBh/ib+XhGczyMZ1tZ3Tnbw8za9jrZea1zgEF4pi3VV7V6R3l5OTk5OaoIh9AIDhE5WSZHcBhYf8OtFhcxeN+gKhA/VApcAwwGtqg6LG03cC4wirpbtGsF0BfYpOoVOTrjIzh0pyJie340gkPTU0QM022D+LP5QEfgGTw7coh1uPGsl9EWz/oZdW0z0AP4RFUt8sc0gkNETkZwUCDJcVHGyvdxwKHpKSKGKeAQf1cCXAd0AeapOixhNZ7RNZcAe71Yzj5gLHADUKlqF/l9CjhE5GTUS4gmMNDc+9jHAUeZWlzELAUcIh4/AacD4/B8uy++lwdcCnTFM7rGF9zAU3imrGi6ksgRmAw5tMioiL2lJcYaLd/HAUe5WlzELAUcIr/2EdAOuAkNM/SVg8B9QEvgVcDEk9RyPKN4/qvmEPlfbre5NfM0gkPE3lINrr/hdrvZvn27L4vUCA4RwxRwiPyvCuAxoCnwNzxTGaTuVQIvAK2AO/FMFzLpADARz1a0+gZG5DBGR3AEKuAQsbO0JHMBR15e3v9sOe5lun8QMUwBh8iRlQAP4Ak67ql9AJa6+eH/LHAK8Cdgu8XO73mgD7BRTSXiYTLg0AgOEXvzox1UDt3jiIhBCjhEju4AcDfQGPgLsFVVckIO4lnvojlwLXW37as3rMIzZeURoEpNJ/7ObMCh+hexM5NrcOTm+nzXVk1RETFMAYfIsSsCHgeaAWcD36tKjskOPCNgmuDZsWSnTc67BLgFOBWYrWYUf6ZFRkXkRKUm+dUIDgUcIoYp4BA5gXt94DM80xj6Aq9hfv0Iq3HXhgKj8Ix8uRv7Ltq6ARgOTMY+4YxI3X7oaYqKiJyAgABITdAUFRHx4X2DqkDkpCwGLgHSgctq/9ufZeNZt6RVbSgwEzO7onjDO0BrPAvQatqK+BUtMioiJyIxJpLQkCBj5SvgEPE/CjhE6kYx8AqeER2tgb/jWcfBH+zBs2hoHzzra/wN5y7QWYxnC+HOwHx1e/EXGsEhIiciLSnWaPmaoiLifxRwiNS99cD9eBapbFb7QLwY54xkAMgCngCGAg3wLBr6PZ6pKf5gLTAIOBNYoi4vTqeAQ0ROhMkdVMDIIqMawSFiWLCqQMSrsvFMaXgMSAQG1j4YDwbaAna5cy8C5uFZV2MWkKOmhdq6mIUn6LgL6KkqESfSIqMiciLSDC4wum/fPoqKinxdrEZwiBimgEPEd/YCH9UeAPWB04BueKY8dMYTgphWDawBfgCW1v66DmeNQKlrX9YeZ+JZULWHqkScRNvEisiJSDW4RayB6SmgERwixingEDFnN/Bu7XFIYzxBRwc861lk4NletaEX3q/FwCY862UcOtYDPwEH1Twn5FDQMQK4E43oEIfQIqMiciLS/GuLWFDAIWKcAg4Ra8mtPT75nfdqQzwBSNzvHPGH/d2DQMVh/12EZyHQQjxbtRYC+bWHeMcXtUdPPOuTTADCVC3iBcXALqCFNwvRGhwiciJSDa7BYWD9DdAUFRHjFHCI2EM1nnUvclQVtvJD7XEjcDFwFZ6QSuRkZQMvAtNr+9ffvPoBVF1t7EKDArUeuohdpfnfFBUFHCKG6a5BRMT79gAP45l2NAlYoCqRE1ANfAqMxjNi42Fgny9uqBVwiMjxio0MIzoi1Fj5mqIi4p80gkNExLcPqO/XHu2A84DJeNZZETmSLOBV4E0801F+y9EBR3CQAg4RO0pLijVavqGAQ2uYiRimuwYRETPWAn8FmgL9gefxrJEiAp61NV4B+gJtgEf4/XADFHCIiAU1SPa7gMMFlKrlRczSXYOIiFlu4DvgaiAdOAuYAZSoavzOQeC/wLlAGnAZsPgY/p3XA46qqipjlaKAQ8SeTG4RW1ZWRn6+z9dSL6n9mS4iBmmKioiIdVTx/zuwBAO9gJHAGUAXQNtJOE8ZMBfPtKWP8IzcOJHX8Cqza3Co24vYkckRHDk5ObjdPs8aitXqIuYp4BARsaZqPCM7vqv97wxgOHAmcDoQpSqyrXzgKzyBxhecfEDh6BEcQRrBIWJLJtfgyMnJMVGsAg4RC1DAISJiDznAC7VHGNAbz9odfWqPWFWRZdXg2S74S2A2sALPXO264vVV+7WLiogcL5MjOLKzs00Uq4BDxAIUcIiI2E8FML/2AAgCTuX/A4/+QENVk1Gba9tnNvA1nu1cvdkfvEqLjIrI8UpLjDFWtqEdVBRwiFiAAg4REfurAX6sPZ6t/bN0oOthRzcgVVXltfpfj2c60SJgAeDLu2uvBxxGp6hoBIeI7cRHRxAZHmqsfI3gEPFfCjhERJxpZ+3x2WF/1pBfhx4d0EiPE5ELrKo9luDZ6cTkja3DR3BokVERu0lPijFavtbgEPFfCjhERPzH9trjk8P+LBZoBbQFWtcebYFm+hlBJbAJz8iYVYcdhRY7T0evwREcFKR3rojNpCfHGS1fIzhE/JcCDhER/1YELKs9DhcKtADaAM2BRkDj2l8bAUkOuX4XnpEuGw47smp/3YpnNxurc/gUFY3gELEbkyM4SktLKSgoMFG0Ag4RC1DAISIiv6cSWFt7/J4IoAmesKMhnvCjMZAGxNcecbW/Rho4fxdQgGe0xaFjK/8/imVb7bETqLJ5Wzl6iorW4BCxH5NbxBoavQFQopYXMU8Bh4iInIgyPCMdso7h74by/2FHfO3vEw77/aE5CJF4tsD9Iy7gQG355cD+2l8P4hmNsh9PsLHXj9rC2QGHdlERsZ10gwGHofU3QCM4RCxBAYeIiHhbJZBfe0jd8/oaHNpFRUSOR3qyX47gUMAhYgG6axAREbE37aIiIpYREABpiX45gqNIrS9ingIOERERe6sGarxagNGAQ7cqInaSEBNJeKi5QeKaoiLi33TXICIiYn9eHcWhKSoicqwaGFx/AxRwiPg73TWIiIjYn1cDDu2iIiLHKs1wwKE1OET8m+4aRERE7M+xIzhCgnWrImInJhcYLSoqYt++faaKV8AhYgG6axAREbE/r+6kYjbgCFLritiIyS1iDY7eAAUcIpaggENERMT+vDqCo7Ky0tiFBQcp4BCxEz8NOFzAPrW+iHkKOEREROzPqyM4KioqjF1YqEZwiNiKyYDD8BaxNWp9EfMUcIiIiNifV4dYmBzBoYBDxD4CAiA1McZY+QYDjkK1vog1KOAQERGxP8eO4AgJUcAhYhfJsVGEGnzPGgw49qr1RaxBAYeIiIj9OTfgCNKtiohdmNxBBTSCQ0QUcIiIiDiB1uAQEeNMrr8BGsEhIgo4REREnKDMmy9ucg0OTVERsQ+TIzj27t3LgQMHjBWv1hexBgUcIiIi9ufVgEMjOETkWKQl+uUOKqCAQ8QyFHCIiIjYn4PX4FDAIWIXJkdwZGdnm7x0BRwiFqGAQ0RExP6cO0VFIzhEbMPkGhwawSEioIBDRETECZy7yKjW4BCxx0NFYAD1E6KNla+AQ0RAAYeIiIgTaIqKiBhVLz7a6IgrBRwiAgo4REREnMCxi4yGBAcREKAGFrE6P94iFhRwiFiGAg4RERH78+oIDpNrcAQEQFCgbldErK5hSpzR8hVwiAgo4BAREXECx47gAG0VK2IHJkdw5OfnU1JSYqp4N7BPPUDEGhRwiIiI2J+jAw7tpCJifQ0MjuAwPHrjAFCtHiBiDQo4RERE7M+xi4yCRnCI2EEDgyM4srOzTV66pqeIWIgCDhEREfvz6ggOk2twgEZwiNiByTU4tmzZYvLSNT1FxEIUcIiIiNifs0dwhCjgELGyiLAQEmIijZVveATHLvUAEetQwCEiImJ/Xh3BUVVVhcvlMnZxoSHBamERC0tPijW6nbPhERwKOEQsRAGHiIiI/ZV5u4Dy8nJjFxeugEPE0kxvEWs44NijHiBiHQo4RERE7M/r6cPBgweNXVx4qAIOEStrkGxugdHq6mq2bdtm8vI1gkPEQhRwiIiI2J/XR3CUlZUZuzgFHCLWlp5kbgRHbm4uVVVVJi9/t3qAiHUo4BAREbE/rw+vMDmCI0xTVEQsrUGKuREchqengEZwiFiKAg4RERH7K/V2ARrBISJH0iDZb7eIBQUcIpaigENERMT+DgJe3ebE6AgOBRwilhUQ4NlFxRTDW8SCpqiIWIoCDhEREftz4+V1OMwuMhqiFhaxqOTYKKOjrAyP4CgH9qsXiFiHAg4RERFnKPHmi5ucohIWEqTWFbGoBoa3iN28ebPJ4jU9RcRiFHCIiIg4g1fX4dAioyLye0yuvwHGR3BoeoqIxSjgEBERcQavBhxmFxnVFBURq2qQbG79jf3797Nv3z6Tl68RHCIWo4BDRETEGbw6RcXsGhwawSFiVSYDDsPTU0AjOEQsRwGHiIiIMzh4BIcCDhGr0haxImIlCjhEREScQWtwiIjP+XnAoREcIhajgENERMQZHLuLikZwiFhTWEgwyXFRxsrPzs42XQUawSFiMQo4REREnMGxIzgUcIhYU4PkWAICzJWvERwi8lsKOERERJzBsWtwaIqKiDX5+RaxADvUC0SsRQGHiIiIMzh4FxVtEytiRQ1SzO2gUlNTQ25ursnLd6GAQ8RyFHCIiIg4g3NHcIQGqXVFLCg9ydwIjtzcXKqqqkxe/k6gSr1AxFoUcIiIiDiDY9fgiNAIDhFLamhwBIcFpqdsUw8QsR4FHCIiIs7g1SkqpaWlxi4sMjxUrStiQSbX4LDADioKOEQsSAGHiIiIM3g1gSgpKTF2YRGhIQSa3KpBRP5HQACkJ/n1CI5c9QIR61HAISIi4gxF3nxxkwFHQIC2ihWxmsSYSCLCzE0fU8AhIr9HAYeIiIgzeDXgKC4uNnpxmqYiYi0NUvx+i1gFHCIWpIBDRETEGRw7ggMgMkwLjYpYScNkBRzqBSLWo4BDRETEGQ5488VLS0txu93GLi5KIzhELKVBsrn1N4qKiigsLDRdBQo4RCxIAYeIiIgzeHUEh8vlMrtVbLhGcIhYSaN68cbK3rx5s+nLPwgUqheIWI8CDhEREWcoBlxeLcDgOhyaoiJiLQ0NrsGh6SkiciQKOERERJzBjSfk8BqT63BEhmmKioiVNDY4gkMBh4gciQIOERER53DsTipag0PEOqIjQomPjjBWfnZ2tukqUMAhYlEKOERERJzDqwuNmhzBEaEpKiKWYXL0BsCmTZtMV8E29QIRa1LAISIi4hyOHcERqUVGRSyjYUq80fItEHBoBIeIRSngEBERcQ7HjuDQIqMi1tG4fryxsisrK8nNNZ4vKOAQsSgFHCIiIs7h3BEcWmRUxDIaJpvdQaWmpsZ0FWxWLxCxJgUcIiIizuHVgMPoCA5NURGxDJNrcFhgekoFWoNDxLIUcIiIiDiHV6eomB3BoYBDxCoa+nfAsQlwqReIWJMCDhEREefw6giO0tJSYxemKSoi1hAVHkpijLktYi0ScIiIRSngEBERcQ6vBhxFRUXGLiw6QgGHiBU00haxG9ULRKxLAYeIiIhzOHYNjujIMLWuiAU0SokzWv7GjcbzBY3gELEwBRwiIiLOsd+bL37gwAFjFxYToYBDxApMjuCoqqqywhaxCjhELEwBh4iIiHMUevPF9+/fb+zCYiLDCAhQA4uYZjLgyM7Oprq62nQVbFAvELEuBRwiIiLOsdebL24y4AgOCiQiVDupiJhmcoqKBaanlAM71AtErEsBh4iIiHN4dQTHvn37jF6c1uEQMa+xf28RuxltEStiaQo4REREnMOxU1RA63CImBYZFkJibKSx8rWDiogcjQIOERER56gEvLbVSXFxsdH577EawSFilOktYi0wRUUBh4jFKeAQERFxFq+N4nC73RQVFRm7sBgFHCJGmQ44LDJFRUQsTAGHiIiIs3h1oVGT63BEa4qKiFEm19+orq62whax2kFFxOIUcIiIiDiLo7eKFRFzGhrcQSU7O5uqqirTVbBJvUDE2hRwiIiIOItjAw6twSFilskpKhZYf6MUbRErYnkKOERERJxFU1RExCsaGRzBYYH1N9aiLWJFLE8Bh4iIiLNoioqI1LnIsBCSYqOMlW+BgGONeoGI9SngEBERcRavjuBQwCHinxrWiycgwFz5CjhE5Fgo4BAREXEW547g0BQVEWNMTk8BS6zBoYBDxAYUcIiIiDiLVwMOk2twaJFREXMaGd4iduvWraarQAGHiA0o4BAREXEWx05RiY0KV+uKGNLYYMCRk5NjeovYvUCeeoGI9SngEBERcRbHTlFJiIlQ64oY0jQt0VjZFpie8rN6gIg9KOAQERFxFq8GHHv37jV2YWEhwUSEhaiFRQxoUj/BWNmbN282fflr1QNE7EEBh4iIiLPsBSq99eIFBQVGLy4hWqM4RHwtKTbS6Bo4GsEhIsdKAYeIiIizuIHd3nrx/Px8oxcXH611OER8LSM10Wj52iJWRI6VAg4RERHn2eWtFz5w4ACVlZXGLixe63CI+FzTtASj5WdlZZmugkz1AhF7UMAhIiLiPF5d7d/kNJX4KAUcIr6WUd/cCI7y8nLTW8Rux8u7U4lI3VHAISIi4jyODTi0k4qI75kcwbF+/XpqampMXr6mp4jYiAIOERER59nlzRc3uQ5HvBYZFfG5jFRzAYcFpqco4BCxEQUcIiIizuPcERwKOER8KjIshHrxMcbKt0DA8aN6gYh9KOAQERFxHq8GHGZHcGgXFRFfykhNICDAXPnr1q0zXQXL1AtE7EMBh4iIiPM4eA2OSLWuiA+Z3iLW8AiOImCjeoGIfSjgEBERcR7HrsGhKSoivmVy/Q2Xy8XGjUbzhZWAS71AxD4UcIiIiDjPLm/elBvdJlZTVER8yuQIjq1bt3Lw4EGTl79UPUDEXhRwiIiIOE8VsNdbL25yBEdMZDhBgbp9EfEVkyM4LLD+xgr1ABF70R2CiIiIM3ltHQ6TIzgCAjSKQ8RXggIDaZQSZ6x8C+ygogVGRWxGAYeIiIgzeW0dDpMjOABS4qPVuiI+0DAljpDgIGPlGw449gI56gUi9qKAQ0RExJm8OoLD7XYbu7CUuCi1rogPmJyeAsanqCwD3OoFIvaigENERMSZvBZwVFdXs3fvXmMXlhKvgEPEF0wHHIZHcCxXDxCxHwUcIiIizrTTqy++c6exC0vWCA4Rn2hqcAeVwsJCo+v9oAVGRWxJAYeIiIgzbfXmiyvgEHE+kyM4MjMzTV++FhgVsSEFHCIiIs6U7c0XNxlw1NMioyI+kWFwBIfh6Sm7gO3qASL2o4BDRETEmRwbcGgNDhHvq5cQTXREqLHyDQccmp4iYlMKOERERJypGCj01osbDTg0RUXE61o3qme0fMM7qCxRDxCxJwUcIiIizpXjrRc2GXDEx0QQHKRbGBFvat04xWj569evN1n8t+oBIvakuwMRERHn8to0FZMBR2BAAEmxGsUh4k0mA46ysjJycnJMFV8BLFUPELEnBRwiIiLO5bUnBJMBB2gdDhFva9XIXMCxYcMGXC6XqeJ/AMrVA0TsSQGHiIiIc3ltBMeuXbuoqakxdmFah0PEe+KjI6ifEGOsfMPrbyxUDxCxLwUcIiIizpXjrReurq4mPz/f2IVpBIeI95hef2PVqlUmi9f6GyI2poBDRETEuby6VeyOHTuMXVi9+Gi1roiXmJyeAkYDjmrge/UAEftSwCEiIuJcOYDbWy9uch2O9ORYta6Il7RubHaLWIMBxyo8W2yLiE0p4BAREXGuMmCPt17cZMDRIDlOrSviJSanqGzdupWCggJTxWt6iojNKeAQERFxNkduFZuepBEcIt4QFR5qNEBcvXq1ycvXAqMiNqeAQ0RExNm8FnDk5uYau6iEmAgiw0PVuiJ1rFXjFAIDAoyVv3LlSlNFu4Hv1ANE7E0Bh4iIiLPleOuFt2zZYvTC0pNi1LoidezUjPpGyzcYcKwBCtUDROxNAYeIiIizeS2FyM7ONnph6Ulah0OkrnVsnm60fIMBh6aniDiAAg4RERFn2+CtF96xYwcVFRXGLqyBdlIRqVMBAdC+WZqx8vfs2WNybZ8F6gEi9qeAQ0RExNnWeeuFXS4X27ZtM3Zh2ipWpG41qhdPYkyEsfJXrFhhqugaYK56gIj9KeAQERFxtny8OK/c5DocGsEhUrc6Ghy9AUanpyxD62+IOIICDhEREefL8tYLm1yHw+RWliJOZHr9DYNbxM5S64s4gwIOERER53NkwJGWpBEcInWpW6uGRss3OIJDAYeIQyjgEBERcT5HBhyRYSEkxUaqdUXqQGpiDA1TzI2K2rVrl6kpb3uB5eoBIs6ggENERMT5vLbQqOmtYpulJap1RepAd8OjNxYtWmSq6Nl4FhkVEQdQwCEiIuJ8jg04mjdIUuuK1AHT01MWL15sqmhNTxFxEAUcIiIizpcNFHvjhQsKCigqKjJ2Yc3SFHCI1IXurRoZLd9QwOEGvlLriziHAg4RERHncwM/eevFTY7iaJ6ugEPkZDVLT6JeQrSx8svKykwtMLoK2KUeIOIcCjhERET8w4/eeuH169ebezDTGhwiJ61vuyZGy1++fDmVlZUmitb0FBGHUcAhIiLiH7wWcKxdu9bYRcVEhpESF6XWFTkJfU/NMFr+/PnzTRWtgEPEYRRwiIiI+AdHBhzgGV4vIicmKjyUjs3TjJ7DN998Y6LYA8AS9QARZ1HAISIi4h/WAC6vvPCaNUYvTOtwiJy4nm0aERIcZKz88vJyvv/+exNFfwVUqQeIOIsCDhEREf9QCmzyxgtv3ryZiooKYxemdThETtxpnZobLX/x4sWUl5ebKPq/an0R51HAISIi4j9WeeNFq6urycrKMnZRLRomq2VFTkBwUCD92jc1eg6GpqeUAV+oB4g4jwIOERER/7HUWy9sch2OFg2SjQ6xF7Grbq0aEhsZZvQc5s2bZ6LYWUCJeoCI8yjgEBER8R+ODDhCQ4I4RetwiBy3wZ1PMVr+gQMHWLZsmYmiP1DriziTAg4RERH/sRKo9sYLm15otF3T+mpdkeN5CAgMYGDHZkbP4auvvqKqyufrfFYAM9UDRBz62aYqEBER8RsH8eymUudMbxXbLiNVrStyHLq3akRSbKTRc/jiCyPLYMzBs0WsiDiQAg4RERH/8oM3XjQ7O5vS0lJjF9X5lHS1rMhxGNGzldHy3W43s2fPNlG0dk8RcTAFHCIiIv7FKxPeXS6X0VEcDVPiqBcfrdYVOQbhocEMMrw97MqVK8nLy/N1sVXAZ+oBIs6lgENERMS//OCtF16+fLnRC+vSsoFaV+QYDOjQjMjwUKPnYGh6ylxgr3qAiHMp4BAREfEvmd66wV+6dKnRC+vRupFaV+QYjOzdxvg5fPLJJyaK1e4pIg6ngENERMS/uIDvvPHChrZ7/EWfdk0ICFADi/yR1MQYerVpbPQctm7dysqVK31dbDXwiXqAiLMp4BAREfE/873xollZWRQVFRm7qOS4KFo2TFHrivyBsf1OJTDQbBL44Ycf4na7fV3sPCBfPUDE2RRwiIiI+J8F3nhRl8vFihUrjF7Y6V1OUeuKHEFQYCBn92lr/Dw++ugjE8W+rh4g4nwKOERERPzPj8B+b7zwt99+a/TChvdopWkqIkcwoENTUuKjjJ7D7t27Wbx4sa+LPYCmp4j4BQUcIiIi/qcGWOiNF16wYIHRC0tPiqVry4ZqYZHfMfn0TsbP4eOPP6ampsbXxb4DHFQPEHE+BRwiIiL+yStDLZYsWUJFRYXRCxvX/1S1rshvtGlcjy4tzG+lPGPGDBPFvq4eIOIfFHCIiIj4p3neeNGysjKWL19u9MIGdWpOYmykWljkMOcN6WL8HHJzc1m0aJGvi80ClqgHiPgHBRwiIiL+aRWQ540X/vrrr41eWEhwEKMtsJCiiFWkJsZYYgHeGTNm4HK5fF3s6+oBIv5DAYeIiIh/cgOzvPHCX3zxhfGLGz+gvfGtMEWs4qJh3QgOMn/b/9Zbb/m6yBrgTfUAEf+hgENERMR/eSWJWL58Obt37zZ6YamJMfRu20QtLH6vXnw0Z/c1P6Jp9erVrFmzxtfFzgZ2qheI+A8FHCIiIv7rK6Cqrl/U5XLx5ZdfGr+4c07rqBYWv3fB0K6EBgcZP4/XX3/dRLGvqQeI+BcFHCIiIv6rCPDKin+ff/658Yvr3a4JGakJamXxW/Xioxnbv53x8ygvL+fNN30+U2Qv8Jl6gYh/UcAhIiLi37wyTWXmzJkcOHDA6IUFBMC5gzqphcVvXXl2L8JCgo2fx3//+1/27t3r62LfAirUC0T8iwIOERER/+aVgKO8vJyPPvrI+MWN7N2GuKhwtbL4nVMaJDGyVxtLnMtLL73k6yLdwL/UC0T8jwIOERER/7YWWOeNF54xY4bxiwsPDWZMv3ZqZfE7143rZ4mdhNavX8/ChQt9XewcIFO9QMT/KOAQERGRd73xovPmzWPHjh3GL25JWYjJAAAZw0lEQVTSaR0ICtQtj/iPPu2a0KedNXYRevHFF3G73b4u9kn1AhH/pJ/2IiIi4pWAw+Vy8eqrrxq/uPoJMQzr3lKtLH4hNDiIv0waYIlzKS4uNvEZsB6YpZ4g4p8UcIiIiEgW8KM3Xnj69OnU1NQYv8CLz+xGYECAWloc78JhXWlS3xq7B7300ksmFht+Bs8aHCLihxRwiIiICHhpFMf27dstsWVs09RETuvUXK0sjtYwJY6LhnezxLnU1NTwzDPP+LrY/cC/1RNE/JcCDhEREQF4Dy996/nCCy9Y4gIvG9EdDeIQx97UBwRw5/lnWGJbWIAPPviAnJwcXxf7MlCi3iDix5+FqgIREREBNgPLvfHCs2fPJjs72/gFtmyUQp92GWppcaRzBnWkS8sGljmfJ5980tdF1gDPqieI+DcFHCIiInKI1xYbfemllyxxgZed1UOtLI7TpH4C14ztY5nzmTdvHt9//72vi/0Y2KreIOLfFHCIiIjIIe8CLm+88Msvv0xZWZnxC2zfNJVebRurpcUxQoKDuO/ioZaZmgJw3333mSj2SfUGEVHAISIiIodsBxZ544Xz8/OZMWOGJS7y+vH9tKOKOMZ14/rSNqO+Zc5n0aJFzJ8/39fFrgC+U28QEQUcIiIicrh3vfXCTz75JG63+d0bWzRIZniPVmppsb1+7TM4d1AnS53TXXfdZaLYB9QbRAQUcIiIiMivfYCXpqmsXbuWuXPnWuIi/zS6N6EhQWptsa2GKXHce/EwS+0MtGjRIhPv8R/xrL8hIoJ+souIiMjhSoDTgSbeePF9+/YxZcoU4xcZExFGSVklP23JU4uL7USGh/L8DWNJS4yx1HlddNFFJraGvQpYp14hIqARHCIiIvK/PvDWC3/++edkZWVZ4iIvObM7cVHham2x1817QAAPXDqM5ulJljqvjz/+mG+++cbXxWr0hoj8ikZwiIiIyG/tAP4MeGXwe0BAACNGjDB+kWEhwYQEB/J9Zq5aXGzjxkkDOKtXG0udU3V1NePHj6egoMDXRWv0hoj8ikZwiIiIyG9tB7731ou/+uqr7NmzxxIXes6gjrRqlKIWF1u4eHg3Jg/uZLnzeumll0yMzNLoDRH5HxrBISIiIr8nHhjmjReuqqoiNDSU008/3fhFBgYE0LpxPT5dnIkFNngROaKz+7TlpkkDsdoOx8XFxUyYMIGSkhJfF63RGyLyvz/XVQUiIiLyO94HvPbI/9xzz7F//35LXGi7jPpMHNhBLS6WdUbXFtxx3mDLhRsA9957L7t27fJ1sRq9ISK/SyM4RERE5PcUAUOBRt548YqKCqKjoxkwYIAlLrbzKel8/kMWpeWVanmxlCFdW/DApcMICrTe95Jr167l4osvxuVy+bpojd4Qkd+lERwiIiJyJO9588WffPJJiouLLXGhkeGh3DRpoFpcLGVot5bcb9Fww+12c+2111JVVeXrojV6Q0SOSAGHiIiIHMn7gNe+mi0sLGT69OmWudjBnZszsGMztbpYwqTTOnD/JdYMNwD+85//mNgWFuCveHH6nIjYW4CqQERERP7AAsBr80jS0tLYsmUL4eHhlrjYvUUHOfe+GewtLlPLi5mb8wD409m9ueTM7pY9x71799K2bVt2797t66K/AM5SLxGRI9EaHCIiIvJHooAR3nrxkpIS6tWrR8+ePS1xsRFhITRJTWT2sg1qefG54KBA7jz/DM4Z1NHS53nZZZexZMkSXxdbDYwH8tVTRORINIJDRERE/kh9YAde/FIkJSWFTZs2ERsba5mLfnDGPD5cuEatLz6TGBPBw1ecRedT0i19nh9++CHjx483UfSTwJ/VU0Tkj2gEh4iIiPyRUjxTVLy2OMXBgwcJDg5m8ODBlrnonm0as2jtVgoOlKoHiNe1bJTCv/48jhYNki19ngUFBZx11lmUlvr8fVEITADK1VtE5I9okVERERE5mje8XcDjjz/Ozp07LXPBoSFB/OPyM4mJDFPri1eN7tuO126ZSFpijOXP9corrzSx7gbA34F96i0icjQawSEiIiJHswm4FvDa035VVRXFxcWMGjXKMhcdGxVO09RE5qzQehxS96LCQ7n7wiFccmZ3goOs/53j66+/zkMPPWSi6Ezgcry4o5OIOIcCDhERETmaKqAl0Mmbhfz4449MmDCBlJQUy1x4RmoCQYGBLF+/Xb1A6kzbJvV47oYxdGnRwBbnm5mZydixY6mqqjJR/HnARvUaETkWCjhERETkWBwALvJmAW63m+3btzN58mRLXXjnUxqwPX8/m3YUqhfISQkOCuT8oV247+JhJMRE2uKcy8vLOfPMM9m2bZuJ4j8FHlDPEZFjpV1URERE5FjvGTYDTb1d0IIFCxgwYIClLr6yqoYrn/iQn7bkqSfICWnbpB53XTiE5ulJtjrvyy67jFdeecXI2w44FY3eEJHjoEVGRURE5Fi48cFiowA33ngjNTU1lrr40JAgnrx6FM1s9nAq5kWGh/LnCf157dZJtgs33nzzTVPhBnhGbijcEJHjoikqIiIicqxygOvx8gjQvLw8EhMT6dWrl6UuPiw0mNM6NuebVZspLqtQb5CjGtChKU9dcza92zUhMMBeA6dXrFjB+PHjTa278RNwIVCjXiQix0NTVEREROR4fAv093Yh0dHRZGZm0qhRI8tVQO7u/Vzx+AfkHyhVb5Df1bJRCjdO6E+3Vg1tef47duyge/fu5OUZmZJVDfQGlqsnicjx0ggOEREROd6Hj7HeLqSyspL169czdepUy1VAXHQ4Azo245vVmyktr1SPkF/UT4jh+vH9uH3KYBqkxNnyGg4tKrp+/XpTp/Aw8KZ6k4icCI3gEBERkeMRCmwFUn1R2AcffMC4ceMsWRHb8vdz5eMfsXtfsXqFn4uPjuDCYV0557SOhIbY9/tDt9vN5MmTeffdd02dwno821GXq1eJyIlQwCEiIiLH6x7gTl8U1KBBAzIzM4mNjbVkReTtLebapz8mZ9c+9Qo/lBATwXlndGHiaR2IDAux/fXcdNNNPPbYY6aKdwEDge/Us0TkRGmKioiIiByv9cC1vriPKC4upri4mBEjRliyImIiwhjevRWrN+9k974S9Qw/kRgbybSRPbnv4mF0a9WQkGD731I/8sgj3HvvvSZP4QngZfUuETkZGsEhIiIiJ2IGMMUXBQUGBrJo0SLL7apyuIqqav7+6lfMW7VJPcPBmqcnMeX0TpzZszWhwc75nvD111/nkksuwe12mzqFbKADoJRQRE6KAg4RERE5Eb2A731VWLt27Vi+fDnh4eGWrRC3G16btYwXPl2Cy9yDotT1zXIA9GzTmKlndKZXmyYEOOzu+bPPPmPcuHFUV1cbe+sAQ4Gv1dtE5GRpioqIiIiciO3ACKCBLwrLz8+ntLSU4cOHW/pBuHOLBrRrmsqiNTlUVNWol9hYdEQoI3u34Z4LhzD1jC40Sol3XLgxa9YsJkyYQGWl0d2AHgGmq8eJSJ38LFYViIiIyAk6Dx9u5xgQEMCsWbMYOnSo5Ssmb28xd746m1WbdqqX2EzH5mmMH9CeM7q0sPWOKEfz2WefMXHiRCoqKkyexg/AAED7LYtI3dwrqApERETkBPl0y1iA9PR0fvrpJ5KSkixfOS63m/e++YmnPvyOqmqN5rCyegnRnNmjFaP7tKNx/XjHX+/nn3/O+PHjTYcb+4DOtZ8hIiJ1QgGHiIiInIy7gbt8WeDo0aP56KOPCLDJfIF1uXu4/825rN+Wr95iIbFR4Qzu3JwRPVvT+ZQGjpt+ciQffPABkydPpqqqyuRpuIGRwBfqiSJSlxRwiIiIyMlIAnKAaF8W+vDDD3PLLbfYppJcbjcff7eWpz74jtJyjcY3JSYyjAEdmnFG11Po1aaxI7Z3PR6vvfYa06ZNM7mg6C9vYeA29UgRqWsKOERERORkPQ782ZcFBgcHM3fuXAYMGGCritqzr4RnPlrE7GUbtNOKjyTFRtK/Q1MGdWpOj9aN/C7UOOSuu+7i3nvvtcKpLMGz7kaVeqeI1DUFHCIiInKyUoEtQIQvC61fvz4rV64kPT3ddhW2ZWch0z9fytcrNqr3eEGz9CT6t89gQIdmtG+WSmCA/97y1tTUcPXVV/Piiy9a4XT2Al3Quhsi4iUKOERERKQuPA/8ydeF9u/fn6+//prQ0FBbVtqy9dt5bdYylq7bph50EmIjw+jeuhG92jamd9smpCbGqFKA4uJipkyZwsyZM61wOm5gDPCpWkZEvEUBh4iIiNSFJsBGIMTXBV988cW8+uqrtq68rNw9vPHVSr5euRGXS1NXjiY4KJB2GfXp1bYJvdo2pl2T+gQG6rb2cBs3bmTMmDFkZmZa5ZQeBO5Qy4iIN+kngYiIiNSVfwFXmij4n//8JzfffLPtKzBvbzGfLc7kk0WZ7N5XrB5VKyQ4iHYZ9enSogFdWzagQ7M0IsJCVDFHMGvWLKZMmcK+ffusckofAhMBl1pHRLxJAYeIiIjUlTQ8oziifF1wYGAgH330EWeffbYjKtLldrNkbS6ffZ/Jd2tyKKvwr/UYoyNCad80jfbNUuncogHtm6YSHhqsd9hRuN1uHnnkEW6//XZqamqsclorgIFAqVpIRLxNAYeIiIjUpQeBvxp5KI6OZu7cufTo0cNRFVpRVc2SzFy+Wb2Zb3/Kpqi03FHXFxgQQKN68bRvlkqHZml0bJ5G07REv14Y9ETs3buXyy67jI8++shKp5UD9AJ2q4VExBf0k0NERETqUjywGUg0UXhycjILFy6kdevWjqzcGpeLzK17WLF+Oys37mD1pp0ctNHojpDgIE5JT6JloxRa1R4tGiYTqekmJ2XRokVMmTKF3NxcK51WEdAP+FktJCK+ooBDRERE6tqtwD9MFd6oUSMWLVpEo0aNHF/RNS4X63PzydqWz4bt+WzYVsCmHQXGQ4/46Aga14unUb342l/jyEhNpFlaIsFBgXqH1BGXy8VDDz3E3XffTXV1tZVOrQo4C5ijVhIRX1LAISIiInUtAliHZ2cVI9q0acO3335LcnKy/z30ut3kFRaxs7CYvMKiX/2+6GA5RQcrKD5YcULrekRHhBIRGkJyXBRJcZEkxkRSLyGaxJgIkuOiSU2IplG9eGIiw/Qu8LKtW7dyySWXMG/ePCue3mXAK2olEfE1BRwiIiLiDROB90yeQOfOnZkzZw5JSUlqjd9RVV1DcVklZRWVv/xZdY3rl9EfocFBhIcGEx0RRlhIsBb5tAi3282LL77ILbfcQnGxJXfaeQi4XS0lIiYo4BARERFvmQcMMnkCbdq0Yd68eaSmpqo1xPZycnK47LLLmDt3rlVP8W1gKuBWa4mICZoEKSIiIt5yDZ65+MasW7eOIUOGsGfPHrWG2FZNTQ3PPPMM7du3t3K48RFwIQo3RMQgBRwiIiLiLZnAC6ZPYs2aNQwaNIhdu3apRcR2vv/+e7p37851111HSUmJVU/zS2AyhgNNERFNURERERFvSgCygHqmTyQjI4Mvv/zSsVvIirPs3buXe++9l2eeeQaXy2XlU/0cGAdUqtVExDSN4BARERFv2gdcb4UTycnJoX///ixZskStIpZVVVXFs88+yymnnMJTTz1l9XDjK2ACCjdERERERMSPfIhnbr7xIywszP3++++7Razms88+c7do0cJtlffKUY45eLaEFhERERER8StpwF6rPJwFBQW5n3nmGT1RiyV8++237l69etkl2HADC4FofayJiIiIiIi/usxqD2oXXXSRu6ysTE/YYsSKFSvco0aNslOw4QYWAFH6OBMREREREX8WAMy22gNb586d3dnZ2XraFp9ZvXq1e+LEie6AgAC7hRufApH6KBMREREREYEmeBYetdSDW0pKinvevHl68havWrJkifuss86yW6hx6JgOBOsjTERERERE5P+Nt+IDXGBgoPv66693V1RU6Elc6ozL5XLPmTPHPWrUKDuO2Dh0/EMfWyIiIiIiIr9vulUf5nr06OHesGGDnszlpBw8eND9wgsvuFu3bm3XUMMNVANX6ONKRERERETkyMKBn6z6YBcdHe1+6aWX9JQuxy03N9f9t7/9zZ2cnGznYMMNlAAj9VElIiIiIiJydKcCB638kDdq1Cj31q1b9dQuf6impsb9+eefu88++2x3UFCQ3YMNN1AI9NFHlIiIiIiIyLG7yuoPe1FRUe5HH33UXVVVpSd5+ZW8vDz3gw8+6M7IyHBCqHHoWA+00EeTiIiIiIjI8bPsehyHHx06dHAvXrxYT/V+rry83P3ZZ5+5J06c6A4JCXFSsHFoG9h4fSSJiIiIiIicmBBggR0eAAMDA92XX365e+fOnXrS97OdUBYuXOi+/PLL3fHx8U4LNQ4tJno3EKiPIxERERERkZNTH8i1ywNhVFSU+4477nAfOHBAT/8OtmzZMvctt9zibtq0qRNDjUNHPnCGPoJERERERETqTmeg1E4Ph0lJSe5//OMf7rKyMqUBDrF27Vr33Xff7W7ZsqWTQ41DxzKgiT56RERERERE6t4EwGW3B8WMjAz3s88+6y4tLVVCYDOVlZXuuXPnum+44QZ3s2bN/CHUOHS8CITqI0dERERERMR7/mbXh8bk5GT33Xff7S4oKFByYGF79+51v/fee+4LLrjAqWtq/NFRBEzWx4yIiIiIiIhvPGbnh8ioqCj3dddd5960aZPSBAuorq52//DDD+777rvP3b9/f3dwcLC/hRqHju+AU/TxIiIiIiIi4jsBwKt2f6AMCAhwDx482D1jxgyt0+Fjubm57pdfftk9adIkd1JSkr8GGoeOMuBWtEuKiPjBzYOIiIiIFQUB7wHjnHAxcXFxnHPOOVxxxRV06dJFrVvHdu3axcKFC1m0aBHfffcdK1euxO12q2JgKXAhkKWqEBGnU8AhIiIiVhYBzAb6O+mi2rdvz9ixYxk7diydOnVSK5+AzZs3s2jRIhYsWMCCBQvYvHmzKuXXqoDHgb/X/l5ExPEUcIiIiIjVxQNfA12deHFNmjRhzJgxjBw5ktNOO43g4GC1+G+f1Kuq+Omnn1i0aBErVqxg/vz55ObmqmKO7CfgAuBHVYWI+BMFHCIiImIHccDnQF8nX2RycjIDBgzgtNNOY9CgQbRr146AAP+6XauoqGDNmjWsWrWK1atXs2LFClauXEllZaXeBUdXCjwIPAqowkTE7yjgEBEREbuIBD4ChvrLBaekpDBw4EAGDhxI9+7dad++PZGRkY65vgMHDrB69epfwoxVq1axbt06qqo0o+IEzASuBXJUFSLirxRwiIiIiJ2EAm/jkIVHj1dQUBCnnHIKHTt2pHPnznTs2JH27dvTsGFDy55zWVkZGzduZOPGjWzatOmX32/cuJG8vDz16JO3AbgemKWqEBF/p4BDREREbPecj2cL2QtUFR7h4eE0adKEJk2akJGRQUZGxi//nZycTHx8PAkJCYSGhtZZmTU1NezZs4fdu3ezc+dO9uzZw86dO9m9eze7du0iLy+PnJwctm/frt1MvKMUz1SUh4AKVYeIiAIOERERsacg4F/A5aqKYxcVFUVCQsIvx6HAIzAwkLi4uP/5+5WVlZSWllJUVERZWdn//F6McANvAbcAO1UdIiIiIiIizjANzxaYbh06/OCYA3TT215ERERERMSZhgH79fCrw8HHYmCw3uoiIiIiIiLO1xLI0oOwDocdPwMT9fYWERERERHxL4nAPD0U63DAsQ7PIrqBeluLiIiIiIj4pxDgeT0g67DpsQKYjGcRXRERERERERHGAAV6YNZhk+M7YBTa4VBERERERER+R33gSz0867DoUQG8AZyqt6qIiIiIiIgcTSBwS+3DpB6qdVjh2Af8A0jX21NERERERESOV1e0y4oOs8dyYBoQpbejiIiIiIiInIwo4EmgSg/bOnx07AeeAzrq7SciIiIiIiJ1rSOwSA/fOvD+aI1ovd1ERERERETEmwKAS9FOKzrq7tgKPAy019tLREREREREfC0BeAqo0QO6jhM49uLZCeUMPAvaioiIiIiIiBjVG1isB3Ydx3CUAm8Bo4AQvXVERERERETEis4AftBDvA7+d6TGe8AFQIzeJiIiIiIiImKnoGO5Huz9+tiNZ/rJKCBUbwkRERERERGxqwBgPPCzHvb94qgBlgH3Ad1q219ERERERETEMQKBScB3CgEcd+zCM0pjCpCiri4iYm9KpkVERESOXSfgqtoH4ihVh+2UA98DXwGzgdV4gg4REXEABRwiIiIixy8WOBe4Dmin6rCsauBH4Ova4zs8IYeIiDiQAg4RERGRk7uXOgO4AhgBRKhKjCrHszjsd8A3wCI827qKiIif/FAWERERkZMXgSfsmAiMBaJVJV63C0+gsQJPqKERGiIifkwBh4iIiEjdOzzsGAPEqEpOWg2wnv8PMxYBmWgNDRERqaWAQ0RERMS7IvFMXxkODAROUZUckyI8C4J+DywGlgDFqhYRETkSBRwiIiIivtUAGIQn7BgItFCVsAfPjiaran9dDWwAXKoaERE5Vgo4RERERMxqAJwG9MOzDW07nDulxQ1s5tdBxmpgp7qBiIicLAUcIiIiItaTDrTFE3Z0rf19W+yxS0s1kAts+Z1jA5pmIiIiXqKAQ0RERMQeQvCs39EISAMaAqmH/doIqFf797yhBsgHCmp/3X3Yf+8GcvCMztgKVKm5RETE1xRwiIiIiDjr3q4+noVN44AgIB4IxjPtJaz2/0XW/r4Yz4gLF3Cg9jXKgbLa3xfV/p1DoYaIiIhl/R/0XGKUByS3owAAACV0RVh0ZGF0ZTpjcmVhdGUAMjAyMi0wMy0yMFQxMjo0MDo1NyswMDowMJVrrkkAAAAldEVYdGRhdGU6bW9kaWZ5ADIwMjItMDMtMjBUMTI6NDA6NTcrMDA6MDDkNhb1AAAAAElFTkSuQmCC;" parent="15" vertex="1">
                    <mxGeometry x="9" y="5" width="48.46" height="50" as="geometry"/>
                </mxCell>
                <mxCell id="16" style="edgeStyle=none;html=1;entryX=0;entryY=0.5;entryDx=0;entryDy=0;startArrow=block;startFill=1;endArrow=block;endFill=1;" parent="1" source="6" target="11" edge="1">
                    <mxGeometry relative="1" as="geometry"/>
                </mxCell>
                <mxCell id="17" value="API Request/Response" style="text;strokeColor=none;align=center;fillColor=none;html=1;verticalAlign=middle;whiteSpace=wrap;rounded=0;strokeWidth=2;" parent="1" vertex="1">
                    <mxGeometry x="460" y="200" width="60" height="30" as="geometry"/>
                </mxCell>
                <mxCell id="18" style="edgeStyle=none;html=1;startArrow=none;startFill=0;endArrow=block;endFill=1;" parent="1" source="11" target="13" edge="1">
                    <mxGeometry relative="1" as="geometry"/>
                </mxCell>
                <mxCell id="19" value="CRUD execute" style="text;strokeColor=none;align=center;fillColor=none;html=1;verticalAlign=middle;whiteSpace=wrap;rounded=0;strokeWidth=2;" parent="1" vertex="1">
                    <mxGeometry x="680" y="290" width="60" height="30" as="geometry"/>
                </mxCell>
            </root>
        </mxGraphModel>
    </diagram>
</mxfile>